<?xml version="1.0" encoding="utf-8"?>
<!DOCTYPE svg PUBLIC "-//W3C//DTD SVG 1.0//EN" "http://www.w3.org/TR/2001/REC-SVG-20010904/DTD/svg10.dtd">
<svg version="1.0" xmlns="http://www.w3.org/2000/svg" width="1200px" height="1726px" viewBox="0 0 1200 1726" preserveAspectRatio="xMidYMid meet">
 <g fill="#000000">
  <path d="M604.2 1500.5 c-0.7 -0.9 -2.6 -4.4 -4.1 -7.8 -4.5 -9.9 -5 -11 -7.5 -15.2 -3.7 -6.2 -19.4 -46.4 -24.3 -62 -0.8 -2.7 -4 -11.3 -7.1 -19 -6.5 -16.4 -17.9 -48.4 -19.3 -53.7 -0.5 -2.1 -3.4 -10.4 -6.5 -18.5 -3.1 -8.1 -7.1 -19.1 -8.9 -24.3 -1.8 -5.2 -6.3 -17.8 -10 -28 -3.7 -10.2 -7.5 -20.7 -8.5 -23.5 -3 -8.3 -8.1 -21.9 -9 -24 -0.5 -1.1 -2.9 -7.2 -5.3 -13.5 -6.5 -16.6 -9.8 -24.8 -16.2 -40 -6.3 -15 -10.1 -24.8 -11.7 -29.9 -0.5 -1.9 -2.3 -6.3 -3.9 -9.8 -1.6 -3.4 -3.1 -7.5 -3.5 -9 -1.7 -7 -19.7 -58.1 -22.4 -63.8 -1.1 -2.2 -6.3 -15 -11.6 -28.5 -5.2 -13.5 -10.8 -27.6 -12.4 -31.5 -1.5 -3.8 -4 -11 -5.5 -16 -1.5 -4.9 -5.6 -16.4 -9.1 -25.5 -9.3 -23.8 -12.9 -33.2 -16.9 -44.5 -2 -5.5 -5.1 -14 -7 -18.8 -1.9 -4.9 -3.5 -9.5 -3.5 -10.3 0 -0.8 -1.4 -2.8 -3.2 -4.4 -2.6 -2.4 -3.1 -3.6 -3 -6.7 0.1 -2.4 -1.2 -7.3 -3.4 -12.8 -6 -14.9 -7.5 -18.8 -9.1 -23.5 -0.8 -2.5 -3 -8.3 -4.9 -13 -1.8 -4.7 -5.1 -13.7 -7.2 -20 -2.2 -6.3 -5.5 -15.1 -7.5 -19.5 -1.9 -4.4 -4.9 -12 -6.7 -17 -1.7 -4.9 -4.4 -12.1 -6 -16 -1.6 -3.8 -3.6 -9.5 -4.6 -12.5 -0.9 -3 -2.6 -7.3 -3.7 -9.5 -2.8 -5.6 -6.5 -15.6 -9.4 -25.5 -1.3 -4.7 -3.8 -12.1 -5.5 -16.5 -1.7 -4.4 -4.6 -12 -6.5 -17 -1.8 -4.9 -4 -10.3 -4.8 -12 -3.6 -7.9 -16.5 -39.2 -16.5 -40.1 0 -0.6 -1.4 -4.4 -3.1 -8.5 -1.7 -4.1 -4.4 -11.2 -6.1 -15.9 -1.6 -4.7 -3.4 -8.9 -3.8 -9.5 -0.4 -0.5 -2.8 -7.1 -5.4 -14.5 -7.3 -20.8 -13.4 -37.5 -17.8 -48.5 -2.2 -5.5 -5.1 -12.9 -6.4 -16.5 -1.3 -3.6 -2.8 -7.4 -3.4 -8.5 -1.3 -2.6 -9.9 -27.1 -11 -31 -0.7 -2.6 -3.6 -9.6 -7 -17 -2.5 -5.4 -8.5 -22 -11.1 -30.5 -3.5 -11.9 -13 -37.4 -17 -46 -1.7 -3.6 -4.4 -10 -6 -14.3 -1.6 -4.3 -4 -10.1 -5.3 -13 -1.3 -2.9 -4 -9.1 -5.9 -13.7 -1.9 -4.7 -4.2 -9.8 -5.1 -11.5 -0.9 -1.6 -1.6 -3.5 -1.6 -4 0 -2.4 -6.1 -20 -10.8 -31.1 -2.8 -6.7 -6.5 -16.4 -8.3 -21.5 -1.8 -5.2 -4.7 -13 -6.7 -17.4 -4.3 -10 -9.7 -24.7 -12.6 -34.5 -1.2 -4.2 -3.4 -9.8 -4.9 -12.5 -2.7 -5.1 -12.2 -30 -15.7 -41 -1 -3.3 -3.4 -10.5 -5.4 -16 -1.9 -5.5 -5.5 -15.6 -7.9 -22.5 -2.5 -6.9 -6.3 -17.4 -8.6 -23.5 -2.2 -6 -4.1 -11.6 -4.1 -12.4 0 -0.7 -1.3 -3.7 -2.9 -6.5 -1.6 -2.8 -3.5 -7.1 -4.1 -9.6 -0.7 -2.5 -2.1 -6.2 -3.1 -8.2 -1.7 -3.4 -1.8 -4.1 -0.6 -7 1.1 -2.5 2.4 -3.6 5.6 -4.6 5.2 -1.5 39.9 -1.8 41.5 -0.2 0.5 0.5 4.6 1 9 1 9.3 0 9.9 0.8 0.8 1.1 -7.8 0.2 -7.9 1.3 -1.1 9.7 2.8 3.5 6.5 8.8 8.2 11.8 1.8 3 6.1 9.9 9.7 15.4 3.6 5.5 8.1 12.5 10 15.5 1.9 2.9 7.2 10.9 11.7 17.7 4.5 6.8 10.5 16 13.5 20.6 4.5 7.1 29.7 43.1 40 57.2 1.8 2.5 4.1 7 5.1 10 1 3 3.1 7 4.6 9 1.5 1.9 4.5 6.7 6.6 10.5 2.1 3.9 5.6 9.5 7.6 12.6 2.1 3 5.9 9.6 8.5 14.5 2.6 4.9 5.5 9.8 6.5 10.9 1 1.1 2.7 4.1 3.8 6.6 1.2 2.6 4 7.3 6.4 10.5 2.4 3.3 5.8 8.6 7.7 11.9 1.8 3.3 6.1 10.3 9.5 15.5 3.4 5.2 7.1 11.5 8.2 14 1.1 2.5 4.1 7.7 6.8 11.5 2.6 3.9 5.9 9.5 7.3 12.5 1.3 3 3.9 7.5 5.7 10 1.7 2.5 5.1 8.1 7.5 12.5 4.8 8.9 5.9 10.9 15.2 27.5 3.5 6.3 9 16.9 12.2 23.5 3.2 6.6 7.8 16.1 10.2 21 2.4 5 4.4 9.4 4.4 9.7 0 1.3 9.5 20.4 12.1 24.3 1.4 2.2 3 5.1 3.4 6.5 0.4 1.4 3.4 8.1 6.7 15 5.3 11.2 8.8 19.4 12.8 29.9 0.7 1.8 2.4 4.8 3.6 6.7 1.3 1.9 3.7 7.2 5.3 11.8 1.7 4.7 4.1 10.7 5.5 13.5 1.5 2.8 2.6 5.5 2.6 6.1 0 0.6 2 6.7 4.5 13.6 2.5 6.8 5.6 16.1 6.9 20.6 1.3 4.6 4.1 13.7 6.1 20.3 2 6.6 4.5 14.9 5.5 18.5 1 3.6 3.7 12.9 5.9 20.8 2.3 7.9 4.1 15 4.1 15.7 0 0.8 1.1 4.9 2.4 9.2 1.3 4.3 2.9 12.3 3.5 17.8 0.7 5.5 2.4 19.5 3.8 31 4.7 38.3 3.1 83.9 -3.7 101.7 -1.1 2.9 -3.7 8.2 -5.8 11.7 -4 7 -6.7 8.4 -9.7 5.1 -1 -1.1 -2.1 -1.7 -2.6 -1.5 -0.4 0.3 -1 -0.4 -1.4 -1.5 -1.6 -5.1 -10.9 -4.9 -19.7 0.3 -10.5 6.3 -13.2 17.5 -8.4 35 4 14.3 10.6 23.3 21.6 29.1 3 1.6 5.8 3.5 6.2 4.1 0.6 0.9 4.9 1.2 16.5 0.9 8.7 -0.2 19 -0.4 22.8 -0.4 9.7 0 18.2 -2.9 26.7 -9.3 3.7 -2.8 6.8 -5.4 6.8 -5.8 0 -0.4 2 -2.9 4.5 -5.6 2.5 -2.6 5.5 -5.9 6.8 -7.3 7.1 -7.7 24.8 -36.8 31.4 -51.5 6.5 -14.6 12.3 -30.3 14.2 -38.5 3.8 -16.5 6.1 -28.6 6.1 -32 0 -1.9 0.7 -7.1 1.6 -11.5 2.9 -14.9 3.6 -19 4.5 -27 1.4 -12.1 3.6 -44.8 3.1 -46.7 -0.2 -0.9 0.4 -5.5 1.3 -10.3 1.5 -7.6 1.7 -12.7 1.1 -39.9 -0.3 -17.1 -0.8 -32.7 -1.1 -34.6 -0.3 -1.9 -0.9 -13.6 -1.4 -26 -0.5 -12.4 -1.4 -24.5 -1.9 -27 -0.6 -2.5 -1.3 -7.4 -1.7 -11 -2 -20.6 -4 -33.8 -6.5 -44 -1.6 -6.3 -3.8 -16.7 -5 -23 -1.2 -6.3 -3.2 -17.6 -4.6 -25 -1.3 -7.4 -2.8 -15.7 -3.3 -18.5 -0.5 -2.7 -2.1 -9 -3.5 -14 -1.4 -4.9 -2.8 -10.8 -3 -13 -0.4 -4 -4 -17.1 -7.1 -25.5 -0.9 -2.5 -4.2 -13.9 -7.5 -25.5 -3.2 -11.5 -6.4 -22.3 -7 -24 -0.6 -1.6 -2.2 -7.2 -3.6 -12.5 -1.4 -5.2 -5.4 -18.3 -8.9 -29 -3.5 -10.7 -8.6 -26.9 -11.5 -36 -2.9 -9.1 -10.1 -28.9 -16 -44 -5.9 -15.1 -12.9 -33.6 -15.5 -41 -5.4 -15.5 -8 -22 -14 -34.5 -7 -14.8 -9.4 -20.3 -10.1 -23.2 -0.7 -3 -7.9 -19.4 -12.4 -28.3 -5.7 -11.4 -7.5 -14.2 -10.1 -15.7 -3.3 -2 -3.6 -6.1 -0.5 -6.8 2.6 -0.6 -4.8 -0.6 64.1 -0.5 71.7 0.1 115 1.1 116.7 2.8 0.8 0.8 1.3 6.7 1.4 18.9 0.1 9.8 0.5 21.4 0.9 25.9 0.6 7.7 0.5 8.2 -2 11.2 -2 2.4 -3.5 3.2 -6 3.2 -2.8 0 -3.9 -0.7 -6.8 -4.7 -5 -6.8 -8.2 -8.8 -17.1 -10.8 -8.3 -1.9 -9 -1.8 -23.6 2.7 -5.8 1.8 -23 16.7 -23 19.9 0 0.6 -1.1 3.4 -2.4 6.2 -3.4 7.3 -4.8 14.9 -6.5 33.7 -0.9 9.3 -0.6 12.3 2.9 36.5 1 7 9.7 33.8 13.1 40.6 1 1.9 2.7 6.4 3.9 10 1.2 3.5 4.2 10.2 6.7 14.9 2.5 4.7 6.3 11.7 8.3 15.5 5.6 10.5 7.9 14.5 17.4 29.7 6.5 10.4 16.5 22.8 25 31.1 7.4 7.2 8 8.1 8.7 13 0.4 2.9 0.3 24.6 -0.2 48.2 -0.8 37 -1.4 82.2 -2 153 -0.1 9.4 0.1 31.2 0.4 48.5 0.3 17.3 0.2 39.8 -0.3 50 -1.3 26.1 -1.9 166.9 -0.8 182.5 0.5 7.2 0.9 28.9 0.9 48.3 l0 35.2 11.6 0 11.6 0 -0.9 -56.7 c-1.3 -92.6 -0.9 -158.6 1.1 -195.8 0.2 -3.3 0.4 -24 0.4 -46 0 -22 0.1 -41.6 0.2 -43.5 0 -1.9 0.2 -13.4 0.3 -25.5 0.3 -21.6 1.2 -56.9 2.3 -83.5 0.3 -7.4 0.7 -37.5 0.9 -66.9 0.4 -53.4 0.4 -53.4 2.6 -55.8 1.2 -1.2 2.6 -2.3 3.2 -2.4 1.9 -0.1 22.8 -24.1 29.5 -33.9 1.3 -1.9 4.7 -6.8 7.5 -10.9 9.6 -13.8 13.1 -19.8 21.3 -36.2 18.6 -37 24.5 -58.9 22.9 -85.4 -1.1 -17.8 -6.3 -35.2 -14.2 -47 -4.2 -6.3 -25 -27.8 -26.3 -27.1 -0.5 0.3 -3.7 -0.4 -7.2 -1.5 -10.9 -3.6 -23.3 -2.6 -27.3 2.2 -3.7 4.4 -11.2 8.7 -14 8.2 -3.1 -0.6 -3.6 -3.6 -1.8 -11.8 0.7 -3.3 1.5 -14.2 1.9 -24.2 0.5 -15.3 0.4 -18.3 -0.8 -18.4 -0.8 0 0.6 -0.7 3.1 -1.5 4.3 -1.4 27 -2.1 28.9 -0.9 0.5 0.2 21.3 0.7 46.2 1 25 0.3 47.2 0.7 49.4 1 4.8 0.7 11.2 1.2 26 2.1 6.1 0.4 11.6 1.1 12.3 1.7 2.2 1.8 1.3 10.2 -2.4 21.3 -2 5.9 -4.8 15 -6.4 20.3 -1.5 5.3 -4.4 14.1 -6.5 19.6 -2.1 5.5 -6.6 18.1 -10 28 -3.4 9.9 -7.2 20.5 -8.5 23.5 -4.7 11.5 -21.4 60.5 -23.4 68.5 -1.4 5.8 -7.3 24.3 -10.1 31.5 -0.8 1.9 -2.5 6.9 -3.8 11 -1.4 4.1 -4.5 13.4 -7 20.5 -4.8 13.8 -16.8 50.7 -19.1 59 -0.8 2.8 -2.6 9.1 -4 14 -3.8 13 -8.6 31 -10.2 38.1 -0.7 3.4 -2 7.9 -2.7 10 -0.8 2.2 -1.9 6.4 -2.5 9.4 -0.6 3 -2.2 11.6 -3.7 19 -6.4 33.1 -11.6 61.5 -12.9 71.1 -0.8 5.7 -2.4 17.4 -3.6 25.9 -2 14.3 -3.2 27.6 -4.5 50.5 -0.3 5 -1.1 12.4 -1.8 16.5 -1.6 10.6 -1.3 46 0.7 61 0.3 2.5 0.8 7.4 1 11 0.3 3.6 1.1 9.5 2 13 0.8 3.6 2 10.6 2.6 15.5 0.6 5 1.6 10.8 2.1 13 0.5 2.2 1.1 8.1 1.3 13 1 23.6 13.7 67.2 27.9 96.1 11.2 22.4 18.8 33.3 34.3 48.8 13.7 13.7 17 16.4 23.4 19.3 10.5 4.9 23.7 10.2 26.4 10.6 4.5 0.7 25.6 -1.2 29 -2.7 1.7 -0.7 4.2 -1.8 5.6 -2.3 3.7 -1.5 12.5 -9.8 16.1 -15.1 5.3 -7.9 7.8 -20.9 5.8 -31.1 -3.6 -18.1 -16.8 -25.5 -32.3 -18.1 l-4.9 2.4 -3.6 -4.1 c-9.4 -10.8 -16 -41.9 -14.8 -69.8 1.5 -35.1 3.3 -54.1 7.3 -77 2.9 -17 6.5 -35 8 -40.5 0.9 -3 1.9 -7.3 2.3 -9.5 0.5 -2.2 1.8 -6.9 3 -10.5 1.1 -3.6 2.1 -7.3 2.1 -8.2 0 -1 0.6 -3.7 1.4 -6 0.8 -2.4 3.1 -9.7 5.1 -16.3 2 -6.6 5 -15.8 6.7 -20.5 1.6 -4.7 3.9 -11.4 5 -14.9 2.5 -7.9 8.2 -23.1 10.8 -28.9 2.1 -4.4 12 -31.5 12 -32.7 0 -0.4 1.3 -3.4 2.8 -6.8 1.6 -3.4 3.5 -8 4.2 -10.2 2.8 -9 5 -14.6 9.8 -25.5 2.8 -6.3 6.5 -15.1 8.2 -19.5 9.1 -23.2 37.5 -77.3 48.6 -92.8 3.2 -4.4 10.2 -16.1 19.6 -32.7 1.1 -1.9 3.3 -5.4 4.8 -7.7 1.5 -2.2 3.1 -5 3.4 -6.1 0.4 -1.1 1.7 -3.1 2.9 -4.5 1.2 -1.5 5.1 -8.2 8.6 -14.9 3.6 -6.8 6.8 -12.5 7.2 -12.8 0.4 -0.3 1.9 -2.7 3.3 -5.3 2.8 -5 20.7 -31.8 26.4 -39.7 3.5 -4.8 9 -13.2 22.2 -34.5 4.4 -7.1 8.9 -14.1 9.9 -15.5 1 -1.4 4.5 -6.5 7.7 -11.4 10.4 -15.8 22 -32.8 36.4 -53.6 4.3 -6.3 9.2 -13.5 10.7 -16 1.5 -2.5 4 -6 5.6 -7.9 1.6 -1.9 4.5 -5.7 6.4 -8.5 4.7 -7 10.1 -14.9 11 -16.1 0.5 -0.5 1.9 -2.7 3.3 -4.8 2.8 -4.1 4.4 -4.9 11 -5.3 2.5 -0.1 13.2 -1.4 23.8 -2.9 13.6 -1.9 20.9 -2.5 24.8 -2 l5.6 0.7 -0.6 3.4 c-0.4 1.9 -0.3 3.4 0.3 3.4 0.5 0 -1.3 5.3 -4 11.7 -2.8 6.5 -6.4 15.6 -8 20.3 -1.7 4.7 -4.3 11.4 -5.9 15 -3.3 7.4 -12.4 32 -13.4 36.4 -0.4 1.6 -2 5.8 -3.7 9.2 -1.6 3.5 -2.9 6.8 -2.9 7.5 0 0.6 -0.6 2.5 -1.4 4.2 -1.6 3.5 -9.7 23.3 -12.7 31.2 -1.1 2.8 -2.4 5.9 -2.9 7 -0.5 1.1 -1.8 4.3 -2.8 7 -5.3 13.4 -5.8 14.8 -12.1 35 -1.8 5.5 -4.1 11.9 -5.2 14.3 -1.1 2.4 -2.3 5.8 -2.6 7.5 -0.3 1.8 -1.2 4.1 -1.9 5.2 -0.7 1.1 -2.4 5.2 -3.9 9 -1.4 3.9 -3.3 8.4 -4.1 10 -0.8 1.7 -2.1 5.3 -2.8 8 -1.7 6.1 -3.4 10.7 -5.8 16.1 -1 2.2 -1.8 4.8 -1.8 5.7 0 1 -0.4 2.5 -0.9 3.5 -4.3 8.1 -18.1 42.7 -18.1 45.3 0 0.6 -1 3.2 -2.3 5.8 -1.3 2.5 -2.9 6.9 -3.7 9.6 -0.7 2.8 -3.3 9.5 -5.7 15 -2.5 5.5 -5.8 13.4 -7.4 17.5 -1.6 4.1 -4.5 11.1 -6.4 15.5 -1.8 4.4 -4.6 11.4 -6 15.5 -2.6 7.3 -6.3 17.1 -11.1 29.8 -1.3 3.4 -2.4 7.1 -2.4 8.3 0 1.1 -0.9 3.8 -2.1 6.1 -1.2 2.3 -3.4 8 -4.9 12.7 -1.5 4.7 -3.8 10.9 -5 13.6 -3.1 7.1 -5 12.7 -5 15 0 1.1 -0.7 2.9 -1.5 3.9 -0.8 1.1 -1.5 2.9 -1.5 4 0 1.1 -0.6 2.7 -1.3 3.5 -0.8 0.9 -1.9 3.6 -2.6 6.1 -0.6 2.5 -2.3 7 -3.8 10 -1.4 3 -3.1 6.9 -3.8 8.5 -0.7 1.7 -2.9 6.4 -4.8 10.5 -4.2 8.8 -13.7 31.6 -13.7 32.7 0 0.5 -1.4 4.4 -3.1 8.8 -1.7 4.4 -3.7 10.4 -4.5 13.3 -0.8 3 -2.6 7.7 -3.8 10.5 -1.3 2.9 -3.2 7.7 -4.2 10.7 -2.9 9.1 -5.5 16.2 -7.9 21.5 -1.2 2.8 -3 7.7 -4 11 -0.9 3.3 -3.2 9.2 -5.1 13.2 -1.9 3.9 -3.4 7.7 -3.4 8.3 0 0.6 -0.9 3.2 -1.9 5.8 -1 2.6 -3.1 8.5 -4.6 13.2 -1.5 4.7 -4.8 13.5 -7.2 19.5 -4.7 11.5 -9.5 24.8 -11.8 32.5 -1.6 5.3 -8.8 23.4 -12.1 30.4 -1.3 2.8 -2.4 5.6 -2.4 6.4 0 0.8 -1.6 4.3 -3.5 7.8 -1.9 3.5 -5.1 11.2 -7.1 17.1 -2 5.9 -4.7 12.8 -5.9 15.3 -1.3 2.5 -3 6.5 -3.8 9 -0.9 2.5 -2.6 7 -3.7 10 -1.2 3 -4.6 12.6 -7.5 21.4 -3 8.7 -5.8 16.3 -6.3 17 -0.5 0.6 -1.5 2.9 -2.2 5.1 -0.7 2.2 -2.8 6.9 -4.6 10.5 -1.8 3.6 -4 8.5 -4.9 11 -1 2.5 -3 8.1 -4.7 12.5 -1.6 4.4 -3.4 9.6 -3.9 11.5 -0.6 1.9 -1.4 4.4 -1.9 5.5 -0.6 1.1 -2.1 5.2 -3.4 9 -1.4 3.9 -4.6 12.9 -7.1 20 -2.6 7.2 -5.8 16.4 -7.2 20.5 -3.6 10.8 -13.8 38.7 -25.3 69 -4.3 11.4 -12.7 36.1 -20.8 61.5 -1.1 3.3 -3.8 10.1 -5.9 15 -2.2 5 -4.6 10.8 -5.3 13 -0.7 2.2 -2.5 6.3 -4 9 -1.5 2.8 -4.2 9.1 -6 14 -1.7 5 -4.7 13.1 -6.5 18 -1.8 5 -5.8 15.8 -8.8 24 -3.1 8.3 -6.5 17.3 -7.6 20 -6.9 17 -12.5 32 -17 46 -2.8 8.8 -6 18 -7.1 20.5 -1.1 2.5 -6.2 16.4 -11.5 30.9 -5.2 14.6 -10.2 27.5 -11.1 28.8 -0.8 1.3 -3.7 8.5 -6.5 16.1 -2.7 7.5 -6 16.6 -7.3 20.2 -1.4 3.6 -4 11 -6 16.5 -1.9 5.5 -5.1 14.3 -7 19.5 -1.9 5.2 -5.1 15.1 -7.1 22 -2 6.9 -4 13.6 -4.4 15 -0.9 3 -5.8 3.9 -7.9 1.5z m5.6 -24.7 c1.8 -5.7 3.6 -10.9 3.9 -11.7 0.4 -1.1 -1 -1.3 -7.5 -1 -4.4 0.2 -8.3 0.7 -8.7 1.1 -1 1 7 21.8 8.4 21.8 0.3 0 2.1 -4.6 3.9 -10.2z m10.5 -31.3 c1.4 -3.8 2.8 -7.8 3.2 -8.7 0.6 -1.6 -0.1 -1.8 -6.9 -1.8 -7.6 0 -8.9 0.7 -6.1 3 0.8 0.7 1.7 2.7 2.1 4.6 0.3 1.9 0.9 3.4 1.3 3.4 0.4 0 1.3 1.6 2.1 3.5 0.7 1.9 1.5 3.4 1.6 3.2 0.1 -0.1 1.3 -3.3 2.7 -7.2z m-25.4 -2.1 c2.2 -3.6 4.1 -6.8 4.1 -7.1 0 -0.4 -12.1 0.6 -12.7 1.1 -0.4 0.3 3.8 12.6 4.2 12.6 0.1 0 2.1 -3 4.4 -6.6z m37.7 -31.9 c4.1 -11.3 4.1 -11.9 1.2 -11.2 -1.3 0.4 -7.4 0.9 -13.5 1.3 l-11.1 0.7 3.9 5.6 c2.1 3.1 3.9 6 3.9 6.4 0 0.9 5.1 8.5 7.9 12 1.4 1.6 1.6 1.4 3.4 -3 1 -2.6 3 -7.9 4.3 -11.8z m-47.2 10 c1.5 -2.4 3.8 -5.7 5.1 -7.1 2.1 -2.3 7.5 -10.9 7.5 -12 0 -0.4 -9.7 0.2 -19.7 1.2 l-5.2 0.5 1.5 4.2 c0.9 2.3 2.4 6 3.5 8.2 1 2.2 2.1 5.2 2.5 6.8 0.9 3.7 1.8 3.4 4.8 -1.8z m-6.7 -38.5 c10 -13.3 10.8 -14.5 12.7 -17.5 1.1 -1.6 2.8 -3.9 3.8 -5 l1.9 -2 -19.8 -0.6 c-10.9 -0.3 -20.1 -0.4 -20.5 -0.2 -0.4 0.2 1.1 5.4 3.3 11.6 2.2 6.2 4.4 12.4 4.9 13.8 0.4 1.4 1.2 3.4 1.8 4.5 0.6 1 1.3 2.7 1.6 3.7 0.9 2.7 3.8 0.4 10.3 -8.3z m65 -1 c1.1 -3 3.7 -9.8 5.7 -15 4.7 -12.2 4.7 -12.4 -0.6 -11.4 -4.5 0.7 -12 1.1 -27.6 1.3 l-9.3 0.1 2.3 3.1 c1.3 1.7 3.2 4.6 4.3 6.4 2.7 4.5 5.7 8.3 14 18.1 l6.9 8.2 1.2 -2.7 c0.6 -1.4 2 -5.1 3.1 -8.1z m-34.8 0.1 c-2.4 -2.7 -4.6 -4.8 -4.9 -4.7 -0.3 0 -2.5 2.2 -4.9 4.9 l-4.4 4.7 9.3 0 9.3 0 -4.4 -4.9z m-47.4 -48.6 c2.8 -3.3 6.6 -8 8.5 -10.5 5.5 -7.1 5.6 -7.2 10.7 -13.5 2.6 -3.3 6.6 -8.6 8.8 -11.8 2.2 -3.2 4.6 -6.7 5.4 -7.8 1.4 -2 1.3 -2 -23 -1.9 -13.4 0 -28 0.4 -32.5 0.7 l-8.1 0.6 2.8 7.6 c1.5 4.2 3.6 9.9 4.7 12.6 7 17.8 9.5 24.5 10.8 28.5 2.5 7.9 2.3 7.8 4.7 4.5 1.2 -1.6 4.4 -5.7 7.2 -9z m107.6 -21 c3.3 -9.3 6.7 -18.9 7.6 -21.3 0.8 -2.4 1.2 -4.6 0.9 -4.9 -0.3 -0.4 -9.5 -0.1 -20.4 0.5 -11.3 0.7 -25.9 0.9 -34.4 0.6 -8.2 -0.4 -14.8 -0.4 -14.8 0.1 0 1 8.1 10.5 12.6 14.7 2 1.8 7.5 7.8 12.2 13.3 4.8 5.5 9.8 11.2 11.1 12.7 1.3 1.5 2.8 2.5 3.2 2.2 0.5 -0.3 0.6 0.2 0.3 0.9 -0.3 0.9 0.5 2.3 2.1 3.4 1.4 1 4 3 5.8 4.5 l3.1 2.8 2.3 -6.3 c1.3 -3.4 5.1 -13.8 8.4 -23.2z m-45.2 22.9 c0.5 -0.4 -14.6 -17.4 -17.5 -19.7 -1.3 -1 -2.6 -2.6 -2.9 -3.7 -0.4 -1.1 -1 -2 -1.3 -2 -0.4 0 -2.6 3.1 -5 6.9 -2.3 3.7 -6.9 9.8 -10.2 13.4 l-6 6.5 21.2 -0.5 c11.7 -0.3 21.5 -0.7 21.7 -0.9z m-93.2 -59.9 c1 -1.4 3.2 -4.4 5 -6.7 1.7 -2.3 2.9 -4.6 2.7 -5 -0.3 -0.5 -0.1 -0.7 0.4 -0.6 1.5 0.4 5.3 -4.3 4.5 -5.6 -0.3 -0.6 -0.3 -0.8 0.2 -0.4 0.9 0.9 3.6 -2 6.7 -7.2 1.2 -1.9 3.8 -5.3 5.8 -7.5 1.9 -2.2 6.9 -8.7 11 -14.5 4.1 -5.8 9.5 -12.7 12.1 -15.5 5 -5.4 16.1 -19.6 15.6 -20.1 -0.2 -0.2 -22.2 -0.5 -49.1 -0.6 -42.9 -0.3 -48.6 -0.1 -48.2 1.2 0.3 0.8 2.1 6.5 4 12.5 4.6 14.6 7.7 23.3 14.1 39.5 2.9 7.4 6.7 17.9 8.4 23.3 1.8 5.3 3.7 9.7 4.1 9.7 0.5 0 1.7 -1.1 2.7 -2.5z m156.7 -11 c7.4 -18.3 22.8 -59.9 23.1 -62.4 0.2 -1.4 1.1 -4.6 1.9 -7 0.9 -2.4 1.6 -4.7 1.6 -5.2 0 -1.4 -48.8 -1 -68.5 0.6 -9.9 0.8 -21.3 1.5 -25.3 1.5 l-7.4 0 3.3 4.3 c1.8 2.3 3.7 4.7 4.3 5.2 0.6 0.6 3 3.5 5.3 6.6 2.4 3.1 6.1 7.4 8.3 9.6 2.2 2.3 5.6 6.3 7.7 9 2 2.6 4.8 6 6.2 7.4 1.4 1.4 4.2 4.5 6.1 6.9 1.9 2.4 7.9 9.1 13.3 14.9 5.4 5.8 11 12.4 12.5 14.8 1.5 2.3 3 3.9 3.3 3.5 0.4 -0.4 2.3 -4.7 4.3 -9.7z m-79.6 1.2 l34.3 0.2 -2.3 -2.7 c-2.4 -2.8 -5.7 -6.5 -16.8 -18.6 -5.6 -6.1 -18.1 -20.4 -18.6 -21.4 -0.1 -0.2 -4 3.6 -8.6 8.5 -4.5 4.8 -9.4 9.9 -10.9 11.3 -3.4 3.4 -19.9 22.9 -19.9 23.6 0 0.3 1.9 0.2 4.3 -0.2 2.3 -0.5 19.6 -0.7 38.5 -0.7z m40.2 -82.7 c9.1 -0.6 20.1 -1.1 24.5 -1 4.4 0.2 16.2 0.2 26.3 0.1 l18.2 -0.1 2.5 -5.6 c1.4 -3.1 2.5 -5.9 2.5 -6.3 0 -0.4 -3.3 -0.3 -7.2 0.1 -6.9 0.7 -45 2.7 -64.3 3.4 -9.8 0.3 -128.7 1.5 -147.7 1.4 -12.9 0 -13.5 0.3 -10.4 5.9 l1.4 2.4 26.8 0.4 c14.7 0.2 26.9 0.5 27 0.6 0.9 0.8 86.2 -0.3 100.4 -1.3z m-142.8 -18.1 c0.7 -0.5 1.1 -4.2 1.1 -11.1 -0.1 -5.6 -0.2 -23.1 -0.2 -38.8 l-0.2 -28.5 -4.2 4.9 c-2.3 2.7 -4.9 6 -5.7 7.2 -0.8 1.2 -3.1 4.4 -5 7 -3 4.2 -3.6 5.9 -4.1 12.4 -0.3 4.1 -0.2 11.1 0.3 15.5 0.5 4.4 1.1 10.5 1.2 13.5 0.2 3 0.7 8.6 1.1 12.3 l0.8 6.8 6.9 -0.3 c3.7 -0.1 7.4 -0.5 8 -0.9z m86.2 0.3 c0.3 -0.5 0.6 -3.7 0.6 -7.3 0.1 -3.5 0.4 -8.7 0.7 -11.6 0.6 -5.1 0.6 -5.1 4.8 -6.2 4.6 -1.2 12.4 -0.2 14.8 1.8 0.8 0.6 1.4 3 1.5 5.3 0.2 4.2 0.8 9.7 1.8 14.8 0.4 2.4 0.7 2.5 7.2 2.3 3.7 -0.1 7.2 -0.2 7.8 -0.2 1.4 -0.1 1.6 -11.8 0.3 -23.1 -0.6 -4.7 -1.1 -9.4 -1.1 -10.6 -0.1 -1.1 -0.7 -2.1 -1.3 -2.2 -0.5 0 -2 -0.4 -3.2 -0.7 -1.3 -0.4 -2.3 -0.3 -2.3 0.2 0 0.5 -0.9 0.9 -2 0.9 -1.1 0 -2 -0.5 -2 -1 0 -0.6 -0.5 -0.5 -1.2 0.2 -1.4 1.4 -3.8 -0.2 -3.8 -2.5 0 -0.8 -0.4 -1.2 -0.8 -0.9 -0.5 0.3 -0.9 -1.6 -0.9 -4.2 0.1 -2.6 0 -7.7 -0.1 -11.4 l-0.2 -6.8 -3.4 0 c-1.9 0 -3.7 -0.6 -4 -1.2 -0.5 -1 -0.7 -1 -1.2 -0.1 -0.3 0.7 -1.2 0.9 -2.1 0.6 -1.1 -0.4 -1.4 -0.2 -0.9 0.5 0.4 0.7 0.2 1.2 -0.3 1.2 -0.6 0 -1.1 -0.4 -1.1 -0.9 0 -0.5 -1.5 -0.5 -3.4 -0.1 -1.9 0.4 -3.7 0.5 -4 0.2 -0.4 -0.3 -0.6 1.3 -0.6 3.6 0 3.3 0.4 4.2 1.7 4.2 1.3 0 1.4 0.3 0.6 1.1 -0.6 0.6 -0.9 1.7 -0.7 2.4 0.3 0.7 0.1 1.6 -0.5 2 -1.4 0.8 -1.4 10.5 0 10.5 0.6 0 0.9 0.5 0.7 1.2 -0.5 1.3 -3.3 1.8 -9.1 1.9 -3.2 0 -3.7 0.2 -2.7 1.4 1 1.2 0.6 1.4 -2.6 1.2 -3.8 -0.2 -3.9 -0.1 -3.8 3.1 0.1 1.7 -0.2 3.2 -0.7 3.2 -1.4 0 -1.1 4 0.4 4.1 0.9 0 0.9 0.2 -0.1 0.6 -1 0.4 -1 0.8 0 2.1 1 1.2 1 1.4 0.1 0.8 -0.7 -0.4 -1.3 -0.2 -1.3 0.3 0 0.6 0.6 1.1 1.3 1.1 0.7 0.1 0.5 0.6 -0.5 1.4 -1.8 1.3 -2.6 5.2 -0.9 4.2 0.5 -0.3 1.2 2.3 1.6 5.9 l0.6 6.4 5.7 0.4 c3.1 0.2 6.7 0.4 7.9 0.5 1.2 0.1 2.4 -0.2 2.7 -0.6z m-40.4 -1.1 c0 -0.6 -0.4 -1.2 -0.9 -1.6 -0.5 -0.3 -0.8 -4.3 -0.7 -9 0.1 -4.7 -0.1 -8.5 -0.5 -8.5 -0.3 0 -0.3 -1.7 0 -3.7 0.4 -2.1 0.7 -8.5 0.7 -14.3 -0.1 -10.2 0 -10.6 2.6 -12.8 2.1 -1.8 4.4 -2.4 10.6 -2.9 l8 -0.6 -0.4 -14.8 c-0.2 -10.4 0 -15.1 0.8 -15.5 0.7 -0.4 4.7 -1 9 -1.2 7.3 -0.4 7.8 -0.6 7.2 -2.5 -0.4 -1.3 -0.2 -1.7 0.5 -1.3 0.8 0.5 0.8 0 0.2 -1.7 -0.5 -1.3 -0.6 -2.9 -0.2 -3.5 0.3 -0.6 0.6 -3.7 0.4 -6.9 -0.1 -3.3 0.3 -6.4 1 -7.2 0.9 -1.2 0.9 -1.3 0 -0.7 -0.8 0.4 -1.3 0.1 -1.3 -0.9 0 -0.9 0.5 -1.3 1 -1 0.6 0.3 1 0.3 1 -0.2 0 -0.4 2.7 -0.9 6 -1 3.7 -0.2 6 0.2 6 0.8 0 0.7 2.1 1 5.7 0.7 l5.8 -0.3 0.7 5 c0.4 2.8 0.9 8.2 1 12.2 0.2 6.9 0.3 7.2 3 7.7 1.6 0.3 4.8 0.3 7.2 0 3.8 -0.6 4.6 -0.4 5.5 1.5 0.7 1.1 0.9 2.1 0.6 2.1 -0.4 0 -0.3 0.6 0.1 1.2 0.5 0.7 0.9 2.8 1 4.8 0.1 1.9 0.4 4.2 0.7 5 0.3 0.8 0.7 4.7 0.9 8.5 l0.3 7 6.4 -0.3 c10.5 -0.6 12.5 0.1 13.9 5.1 0.6 2.3 1.4 13 1.8 23.7 0.3 10.7 0.9 21.1 1.3 23 l0.7 3.5 6.9 -0.3 c3.9 -0.2 7.1 -0.5 7.1 -0.5 0.8 -1.1 -4.1 -72.3 -5 -73.4 -0.1 -0.1 -2.4 -0.5 -5.1 -0.8 -2.7 -0.4 -5.2 -0.8 -5.4 -1.1 -0.2 -0.2 -1 0.1 -1.8 0.7 -0.7 0.6 -1.3 0.8 -1.3 0.4 0 -0.4 -0.7 -0.2 -1.5 0.5 -0.8 0.7 -1.6 0.9 -1.6 0.4 -0.1 -0.5 -0.3 -2 -0.5 -3.4 -0.2 -1.4 -0.5 -9.1 -0.6 -17.2 l-0.1 -14.7 -8.1 0.6 c-7.8 0.5 -8.2 0.5 -9.3 -1.8 -2.1 -4.4 -3.5 -10 -2.8 -11.7 0.3 -0.9 0.3 -6.2 -0.1 -11.9 l-0.7 -10.2 -9 0.2 c-10.6 0.2 -9.5 2.1 -9.8 -17.2 0 -7.4 -0.3 -14 -0.5 -14.6 -0.3 -0.6 -4.2 -1.1 -9.9 -1.3 l-9.5 -0.2 -0.2 11.3 c-0.1 6.1 -0.2 13.1 -0.1 15.5 0.1 2.3 -0.3 4.2 -0.8 4.2 -0.5 0 -0.9 0.7 -0.9 1.5 0 1.1 -1.2 1.5 -4.7 1.4 -2.7 0 -6.1 0.2 -7.8 0.5 -1.6 0.2 -3.6 0.5 -4.3 0.5 -1 0.1 -1.1 3.6 -0.6 16.4 0.4 9 0.4 17.6 0 19 -0.7 2.8 -3.1 3.7 -3.9 1.5 -0.3 -0.9 -1 -0.7 -2.6 0.7 -1.8 1.5 -2.4 1.6 -3 0.6 -0.7 -1 -1.3 -1 -2.9 -0.2 -1.1 0.6 -3.1 1.1 -4.4 1.1 -1.3 0 -3.2 0.7 -4.2 1.5 -1.2 0.9 -1.5 1.5 -0.7 1.5 0.9 0 1.2 1 0.9 3 -0.3 1.7 0 3.3 0.5 3.7 0.5 0.3 0.3 0.9 -0.4 1.4 -1.1 0.6 -1.1 1.1 -0.1 2.1 1.3 1.3 1.7 3.2 0.5 2.5 -0.5 -0.3 -0.7 5 -0.6 11.7 0.2 10.8 0 12.2 -1.5 12.3 -0.9 0.1 -3.6 0.2 -5.9 0.3 -2.4 0.1 -4.3 0.7 -4.3 1.2 0 0.6 -1.3 0.8 -3 0.6 l-3 -0.5 -0.2 17.6 c-0.4 22.3 -0.1 38.7 0.7 42.9 l0.6 3.2 8.9 0 c5 0 9 -0.4 9 -0.9z m22.3 -0.8 c0.3 -0.5 0.1 -2.8 -0.3 -5.3 -0.6 -3.7 -0.8 -3.9 -0.9 -1.5 -0.2 1.7 -0.4 4 -0.7 5.3 -0.4 2.1 1 3.1 1.9 1.5z m139.6 -9.5 c0.1 -4.6 -0.4 -19.5 -1 -33.2 -0.9 -20.8 -1.4 -25.4 -2.8 -27.5 -1 -1.4 -3.7 -5.5 -6.1 -9.1 -2.4 -3.6 -5.6 -7.9 -7.1 -9.7 l-2.7 -3.1 0.3 3.6 c0.2 2.1 0.4 3.7 0.4 3.7 0.1 0 0.3 4.7 0.6 10.5 0.4 10.5 0.7 14.4 2.5 36 0.5 6.3 1 17.2 1 24.3 l0 12.7 7.3 0 7.4 0 0.2 -8.2z m-239.8 -40.1 c2.5 -3.4 6.8 -9.5 9.5 -13.6 6 -9.1 7.2 -10.7 15.3 -20.7 3.5 -4.3 7.9 -10.1 9.8 -12.9 1.8 -2.7 4.1 -6.1 5 -7.5 0.9 -1.4 3.1 -4.1 4.9 -6 1.7 -1.9 4.1 -5.4 5.3 -7.6 1.1 -2.3 4.9 -7.7 8.3 -12 12.8 -15.8 14.5 -18 18.6 -24.1 2.3 -3.4 5 -6.8 6 -7.5 1 -0.7 2.8 -3 4 -5 1.3 -2 2.6 -3.8 3 -4 0.5 -0.2 2.3 -2.3 4 -4.8 1.8 -2.5 6.8 -8.8 11.2 -14 4.4 -5.2 11 -13.5 14.7 -18.4 7.5 -9.8 10.1 -11.5 13.8 -9 1.3 0.9 2.8 1.4 3.2 1.3 0.4 -0.2 3.9 3.7 7.6 8.6 11.9 15.7 19 24.6 23 28.9 6.4 6.7 27.3 33.3 37.7 47.9 11.6 16.3 13.5 18.7 14.8 18.7 2.5 0 8.2 6.9 8.2 9.8 0 1.6 1.6 4.8 3.9 7.9 2.2 2.8 4.5 6.2 5.2 7.5 0.7 1.2 2.4 3.9 3.9 5.8 1.4 1.9 5.5 7.3 9 12 3.5 4.7 8.5 11 11 14 2.5 3 5 6.4 5.6 7.4 1.5 2.9 3.1 3 3.8 0.4 0.3 -1.3 1.2 -4.4 2 -6.9 l1.4 -4.6 -8.6 -10 c-16.2 -18.6 -26.7 -31.5 -33.9 -41.7 -3.9 -5.5 -9.7 -13.2 -12.8 -17.1 -3 -3.8 -6.4 -8.3 -7.5 -10 -1 -1.6 -3.3 -4.8 -4.9 -7 -1.7 -2.2 -4.7 -6.5 -6.7 -9.5 -2.1 -3 -5 -6.8 -6.5 -8.5 -1.5 -1.6 -6.5 -7.8 -11.1 -13.6 -9.4 -12.1 -21 -26 -27.7 -33.4 -5.4 -5.9 -8.1 -9.1 -13.6 -16 -2.2 -2.7 -4.7 -5.6 -5.6 -6.5 -0.8 -0.9 -2.3 -2.7 -3.2 -4 -0.9 -1.3 -1.8 -2.2 -2 -1.9 -4.2 5.5 -9.3 11.7 -13.7 16.9 -7.8 9.1 -18.3 22.7 -33.5 43.5 -7.1 9.8 -18.6 25 -25.5 33.9 -6.9 8.9 -15.9 20.7 -20 26.1 -4.1 5.5 -9.3 12.3 -11.6 15 -2.3 2.8 -4.8 6.4 -5.7 8.1 -0.9 1.6 -3.5 5.2 -5.9 8 -5.5 6.2 -11.6 14.6 -15.1 20.6 -1.5 2.6 -4.1 5.5 -5.7 6.5 -3.2 1.9 -3.2 1.7 -0.2 10.6 0.9 2.6 1.9 4.7 2.2 4.7 0.3 -0.1 2.6 -2.9 5.1 -6.3z m285.2 -39.4 c0.8 -1.6 2.4 -5.6 3.7 -9.1 l2.2 -6.2 -5.5 -5.8 c-3.1 -3.1 -9.8 -11.1 -14.9 -17.7 -12.3 -15.8 -23.6 -29.5 -26.2 -32 -1.2 -1.1 -3.7 -4.2 -5.6 -7 -1.9 -2.7 -7.4 -10.2 -12.2 -16.6 -4.8 -6.4 -8.8 -11.9 -8.8 -12.3 0 -1.3 -14.6 -19.2 -22.1 -27.1 -4.2 -4.4 -8.9 -9.5 -10.5 -11.3 -2.8 -3.1 -3.3 -3.3 -12.4 -3.9 l-9.5 -0.6 3.6 4.4 c2 2.4 6.7 8.4 10.4 13.3 3.8 4.9 8.4 9.8 10.2 10.9 3.3 1.9 11 11.6 23.1 29.2 13.6 19.6 22.3 31.5 36.2 49.5 4.5 5.8 10.2 13.7 12.8 17.5 5.4 8.2 9.8 13.6 12.3 15 1 0.6 1.9 1.5 2.1 2 0.2 0.6 0.7 0.9 1.1 0.7 0.5 -0.1 0.6 0.2 0.3 0.7 -0.6 0.9 6.1 8.7 7.6 9 0.4 0 1.4 -1.1 2.1 -2.6z m-303.1 -2.5 c1.2 -1.8 5 -6.6 8.3 -10.7 3.3 -4 9.6 -12 14 -17.6 4.4 -5.6 10.1 -12.9 12.6 -16.1 2.5 -3.3 5.2 -7.1 6 -8.5 0.8 -1.5 3.8 -5.8 6.7 -9.5 2.9 -3.8 8.7 -11.4 12.8 -16.9 19.2 -25.7 34.9 -45.6 48.2 -61.4 l4.4 -5.1 -10.2 0 c-6.5 0 -9.9 0.4 -9.5 1 0.3 0.6 -1 2.9 -2.9 5.3 -2 2.3 -6.5 7.9 -10.1 12.5 -3.6 4.5 -7 8.2 -7.5 8.2 -1.3 0 -18.3 20 -20.4 24.2 -2 3.6 -11.8 15.9 -42.3 52.8 -12 14.6 -15.3 19.2 -15.3 21.3 0 1 -0.9 3.2 -2.1 4.8 l-2 2.8 2.8 8.1 c1.5 4.4 3.1 8 3.5 8 0.3 0 1.7 -1.5 3 -3.2z m69.5 2 c1.3 -1.6 1.6 -11.9 0.5 -13.6 -0.6 -0.9 -1.2 -0.5 -2.3 1.5 -0.8 1.6 -2.9 4.7 -4.6 7.1 -1.8 2.4 -3.3 4.8 -3.3 5.3 0 1.4 8.6 1.1 9.7 -0.3z m162 -11.2 c-0.8 -1.1 -3.4 -3.5 -5.8 -5.2 -3.3 -2.3 -4.5 -3.8 -4.7 -6.1 -0.2 -1.7 -1.3 -3.9 -2.4 -4.9 -1.2 -1.1 -1.8 -1.4 -1.5 -0.8 0.8 1.3 1.5 6.3 2.2 13.9 0.2 2.8 0.4 5.1 0.5 5.3 0 0.1 2.9 0.2 6.5 0.1 6.5 -0.2 6.5 -0.2 5.2 -2.3z m88.3 -32.9 c1.2 -3.9 2.5 -8.4 3 -9.8 0.7 -2.4 -0.1 -3.8 -8.7 -13.5 -13.9 -15.9 -21.7 -25.8 -28 -35.4 -3.1 -4.7 -7.5 -10.6 -9.7 -13.1 -2.3 -2.5 -6.3 -7.2 -9 -10.5 -2.6 -3.2 -7.7 -9 -11.2 -12.7 -3.5 -3.8 -6.4 -7.3 -6.4 -7.8 0 -0.9 -16.6 -1 -18.2 -0.2 -0.4 0.2 3.6 5.7 9 12.1 12.4 15 16.1 19.7 19.6 25.2 1.6 2.5 5.3 7.5 8.3 11.2 2.9 3.7 5.3 7 5.3 7.4 0 0.4 1.1 2.1 2.4 3.9 1.3 1.7 3.5 5.1 4.9 7.6 3 5.3 34.9 43.8 35.9 43.3 0.3 -0.2 1.6 -3.7 2.8 -7.7z m-227.2 1.2 c-0.2 -0.6 -0.8 -1 -1.3 -1 -0.5 0 -1.1 0.4 -1.3 1 -0.2 0.6 0.4 1.1 1.3 1.1 0.9 0 1.5 -0.5 1.3 -1.1z m113 -2.8 c-0.2 -0.3 -1.4 -2.3 -2.7 -4.4 -1.7 -2.7 -2.6 -3.5 -3.2 -2.6 -0.4 0.7 -0.5 1.8 -0.1 2.4 1.2 1.9 1.2 4.5 -0.1 4.5 -0.9 0 -0.9 0.2 0.1 0.9 1.4 0.9 6.5 0.2 6 -0.8z m-223 -4.9 c0.9 -1.5 6.5 -7.7 12.3 -13.7 5.9 -6.1 12.7 -13.5 15.2 -16.5 13.9 -16.6 20.8 -25.3 25.6 -32 3 -4.1 7.8 -10.2 10.6 -13.5 2.8 -3.3 7.8 -9.5 10.9 -13.9 l5.8 -7.9 -5.3 0.5 c-5.2 0.4 -5.7 0.7 -12.4 7.8 -3.8 4.1 -8.6 9 -10.5 11 -7.2 7.4 -25.9 27.7 -31.3 34 -4.7 5.5 -10.1 11.8 -26.9 31.8 -2.1 2.5 -1.9 5.5 0.8 12 1.6 3.9 2.9 4 5.2 0.4z m352 -35.5 c4.9 -11.9 5.1 -10.9 -4 -20.6 -4.4 -4.7 -9.9 -11.1 -12.2 -14.1 -2.2 -3 -7.1 -9.2 -10.8 -13.6 -3.8 -4.5 -6.8 -8.4 -6.8 -8.8 0 -0.3 -1 -1.6 -2.2 -2.8 -2 -2 -3.3 -2.3 -10.5 -2.3 -4.6 0 -8.3 0.2 -8.3 0.4 0 0.8 14 18.8 18 23.1 4.7 5 22.3 28.1 28.8 37.8 2.4 3.4 4.6 6.2 5.1 6.2 0.4 0 1.7 -2.4 2.9 -5.3z m-357.3 -8.2 c6.9 -7.8 31.5 -35.5 40.3 -45.4 l5.6 -6.4 -8.8 0.5 c-4.9 0.3 -9.1 1 -9.5 1.6 -0.3 0.5 -4.2 4.9 -8.6 9.7 -4.4 4.8 -8.3 9.3 -8.7 9.9 -0.4 0.7 -3.9 4.6 -7.8 8.7 -9.7 10 -18 20.4 -18 22.5 0 0.9 1 3.8 2.3 6.6 l2.2 4.9 2.4 -2.8 c1.3 -1.5 5.1 -5.9 8.6 -9.8z m-4.3 -39.6 c5.2 -5.1 8.5 -9 7.9 -9.4 -0.6 -0.3 -3.2 -0.3 -5.9 0 -7.3 0.9 -9.2 1.5 -8.9 2.4 0.1 0.5 -3.5 4.8 -8.1 9.5 l-8.3 8.7 2.1 4.6 2 4.7 5.2 -6 c2.8 -3.2 9.1 -9.8 14 -14.5z m374.1 13 l1.7 -5.1 -2.8 -3.4 c-1.5 -1.9 -5.1 -6 -8.1 -9.1 -2.9 -3.1 -6 -6.7 -6.8 -8 -1.3 -2 -2.4 -2.3 -8 -2.3 -3.6 0 -6.3 0.4 -6.1 0.9 0.2 0.5 3.8 4.6 8 9 4.3 4.5 10.3 11.5 13.4 15.6 3.1 4.1 6 7.5 6.4 7.5 0.4 0 1.4 -2.3 2.3 -5.1z m-398 -22.6 c-2.6 -0.6 -8.1 -0.8 -7.8 -0.2 0.3 0.3 0.9 1.9 1.5 3.4 l1.1 2.8 3 -2.9 c1.6 -1.6 2.6 -3 2.2 -3.1z m409.5 -6.1 c0.2 -0.7 -0.7 -1.2 -2.3 -1.2 -2.4 0 -2.6 0.2 -1.5 1.5 1.4 1.7 3.1 1.6 3.8 -0.3z m-415.9 -6.1 c2.4 -0.6 2.4 -0.7 -1.2 -3.4 -2 -1.5 -3.9 -3.7 -4.2 -4.9 -0.4 -1.3 -2.2 -4.5 -4.1 -7.3 -1.9 -2.7 -3.8 -7 -4.3 -9.5 -5.1 -24.7 -5.2 -29.8 -0.8 -39.5 4.5 -9.9 14.1 -16.5 26.9 -18.6 6.2 -1 8.5 -1 11.9 0 3.4 1 4.3 1 5 -0.1 1.4 -2.1 1.1 -2.7 -2.1 -4.3 -5.7 -3 -19.2 -1.2 -27.9 3.8 -6.6 3.7 -13.1 10.9 -17.2 18.9 -5 10 -6.5 16.2 -4.5 19.3 0.8 1.2 3.8 9.1 6.6 17.6 5.7 17.3 10.7 29 12.4 28.8 0.6 -0.1 2.2 -0.4 3.5 -0.8z m113.3 -6.8 c10.2 -9.1 13.7 -13.2 25 -29.3 7 -9.9 10.8 -16.5 16.8 -28.5 4.8 -9.8 13.2 -33.6 14.3 -40.5 0.3 -1.9 1.2 -6.6 2 -10.5 0.8 -3.8 2 -10.8 2.7 -15.5 0.7 -4.7 2.1 -10.2 3.1 -12.2 1.1 -2.1 1.9 -5.6 1.9 -7.8 0 -2.2 0.6 -7.3 1.4 -11.3 1.1 -5.4 1.6 -19.9 1.9 -58.2 0.4 -46 0.1 -58.3 -1.6 -53.5 -0.3 0.8 -1 16.9 -1.6 35.7 -0.6 18.9 -1.6 37.8 -2.2 42 -1.5 11.1 -4 27.1 -4.9 31.8 -0.4 2.2 -1.3 7.6 -1.9 12 -0.7 4.4 -1.8 11.2 -2.6 15 -0.8 3.9 -1.9 10 -2.4 13.6 -4 24.5 -26.7 72.3 -45.9 96.4 -6.2 7.9 -12 14.2 -16.8 18.5 -3.2 2.9 -6.3 5.7 -6.9 6.2 -0.6 0.6 1.7 0.8 6.2 0.5 6.6 -0.5 7.5 -0.8 11.5 -4.4z m54.8 1.1 l0 -3.5 -16.7 0.6 c-9.2 0.4 -17.1 0.9 -17.5 1.1 -0.4 0.3 -1.7 0 -2.8 -0.6 -1.8 -1 -2.5 -0.7 -4.6 1.5 -1.3 1.4 -2.4 2.8 -2.4 3 0 0.3 9.8 0.6 21.8 0.8 11.9 0.1 21.8 0.3 22 0.5 0.1 0.1 0.2 -1.4 0.2 -3.4z m131.3 2.9 l3.8 -0.6 -2.9 -2.7 c-2.9 -2.6 -3.1 -2.6 -12.3 -2 -5.2 0.3 -17.7 0.6 -27.7 0.5 -18.2 0 -18.2 0 -18.2 2.2 l0 2.3 22.8 0.3 c12.5 0.1 24.5 0.3 26.7 0.5 2.2 0.1 5.7 -0.1 7.8 -0.5z m-114.7 -3.7 c-0.9 -4.8 -2.1 -63.2 -1.8 -88.1 0.2 -20.9 -0.4 -23.5 -2.7 -12.5 -0.7 3 -2.1 8.4 -3.2 12 -1.6 5.3 -1.8 7.5 -1 12 0.5 3 0.9 20 1 37.7 0 17.7 0.3 33.3 0.6 34.7 0.3 1.5 0.7 3.7 1 5.1 0.4 2 1.1 2.5 3.6 2.5 3 0 3.1 -0.1 2.5 -3.4z m46.2 -31 c0.1 -19.5 -0.3 -42 -1 -52.6 -1.4 -21.3 -1.4 -24.3 0 -32.5 0.9 -4.9 0.8 -7.1 -0.8 -13 -1 -3.8 -2.2 -9.1 -2.6 -11.7 -0.3 -2.7 -1.1 -4.8 -1.6 -4.8 -0.7 0 -0.8 6.3 -0.3 18.8 1 23.7 1.3 45.2 1.4 92.2 l0.1 37.5 2.3 0.1 2.2 0.2 0.3 -34.2z m98.7 32.9 c-9.1 -4.4 -22.3 -16.6 -41 -37.8 -1.3 -1.4 -7.5 -11.5 -7.5 -12.2 0 -0.2 -2.5 -4.4 -5.5 -9.4 -3 -5 -5.5 -9.3 -5.5 -9.5 0 -0.3 -2.2 -5.3 -5 -11.1 -2.7 -5.8 -7.1 -16.7 -9.6 -24.2 -2.5 -7.6 -5 -14.2 -5.5 -14.8 -0.5 -0.5 -0.9 -1.8 -0.9 -3 0 -1.1 -0.9 -4.9 -2 -8.5 -1.2 -3.6 -2.9 -11.2 -4 -17 -1.1 -5.8 -2.7 -13.6 -3.5 -17.5 -0.8 -3.8 -2.6 -15.8 -4 -26.5 -1.5 -10.7 -3.1 -21.3 -3.7 -23.5 -0.6 -2.2 -1.2 -6.5 -1.3 -9.5 -0.2 -3 -0.7 -13.8 -1.2 -24 -1.1 -23 -0.9 -43.4 0.6 -61 0.7 -7.4 1.4 -18 1.6 -23.5 0.4 -10 1.7 -22.9 3.7 -36 0.6 -3.8 1.4 -9.5 1.8 -12.5 2.3 -17.2 3.2 -22.9 4 -26 0.4 -1.9 1.1 -5.7 1.5 -8.5 1 -8.4 7.8 -40.8 17.5 -83.5 6.1 -27 12.7 -50.7 23.4 -83 7.2 -21.8 9.9 -31 9.3 -31.6 -1.2 -1.2 -10.6 14.8 -12.6 21.7 -1.2 4.1 -4.6 14.8 -7.5 23.9 -3 9.1 -6.8 21.8 -8.5 28.2 -1.7 6.5 -4 14 -5.1 16.7 -1 2.7 -2.7 8.2 -3.6 12.3 -0.9 4 -3 12.5 -4.6 18.8 -4.7 18.1 -9.3 40.4 -12.2 58.5 -0.9 5.5 -2 12.7 -2.6 16 -0.6 3.3 -1.9 13.4 -2.9 22.5 -1.2 9.8 -2.6 17.8 -3.6 19.7 -1.4 2.9 -1.7 8.9 -2.1 45.5 -1.1 107.1 -1.3 123.9 -1.9 124.7 -0.7 1.3 1.9 20.3 4.5 32.1 2.1 9.4 4.9 22.8 7.2 34.5 1.1 5.9 5 17.4 12.1 36.5 7.8 20.7 9.5 25 11.6 28.2 1.1 1.8 3.5 6.2 5.3 9.8 1.7 3.6 5.3 10 8 14.2 2.6 4.3 4.8 8.1 4.8 8.4 0 1 6.5 9.9 14.6 20 8.8 11 17.7 19.3 21.5 20.1 1.6 0.3 3.4 1.2 4 1.9 0.8 0.9 3.2 1.4 7.3 1.4 6 -0.1 6.1 -0.1 3.1 -1.5z m93.9 -13.6 c3 -8.9 3.3 -12 0.7 -6.7 -2.5 5 -11 17.6 -12.4 18.5 -0.8 0.4 -0.3 0.9 1.3 1.3 3.6 0.9 7.2 -3.7 10.4 -13.1z m-263.3 -1.4 l6.6 -0.7 -0.1 -22.3 c-0.1 -12.3 -0.2 -22.3 -0.3 -22.2 0 0.1 -1.6 2.9 -3.3 6.2 -4.6 8.5 -9.3 15.9 -18.2 28.5 -4.3 6 -7.8 11.1 -7.8 11.3 0 0.6 14.8 0.1 23.1 -0.8z m126.9 0.5 c0 -0.3 -1 -1.7 -2.2 -3 -7.2 -8 -22.3 -31 -24.8 -37.6 -0.6 -1.6 -3.3 -6.7 -6 -11.4 -2.7 -4.7 -6.6 -13 -8.6 -18.5 -2 -5.5 -4.1 -10.4 -4.6 -11 -0.5 -0.6 -0.6 6.5 -0.3 16.5 0.3 9.6 0.7 28.3 1 41.5 0.2 13.2 0.4 24.1 0.4 24.1 0.2 0.5 45.1 -0.2 45.1 -0.6z m146.3 -32 c0 -9.2 -8.6 -24.6 -18.1 -32.5 l-3.3 -2.8 -1.9 2.1 c-1.9 2 -1.8 2 2.3 4.6 4.5 2.9 12.8 13.3 15.4 19.4 1.1 2.4 1.7 6.9 1.7 13 l0.1 9.4 1.9 -4.4 c1.1 -2.3 1.9 -6.3 1.9 -8.8z m-461.5 -17.2 c3.2 -5.3 3.7 -8.5 1.4 -9.2 -1.2 -0.4 -2.6 -2.5 -3.6 -5.4 -1 -2.6 -3.9 -10.3 -6.6 -17.2 -2.8 -6.9 -7.7 -20.8 -11.1 -31 -3.4 -10.2 -6.7 -19.6 -7.4 -21 -0.7 -1.4 -2.9 -7.2 -5 -13 -2.1 -5.8 -5.3 -13.6 -7.2 -17.3 -3.5 -7.1 -6.1 -14.1 -14.3 -38.7 -10.8 -32.4 -17.2 -50.5 -20.6 -58.8 -2 -4.8 -5.3 -13.4 -7.4 -19.2 -2.1 -5.8 -4.9 -13 -6.2 -16 -1.4 -3.1 -3.1 -7.4 -3.8 -9.5 -0.7 -2.2 -4.1 -10.3 -7.5 -18 -3.4 -7.7 -7.9 -18.9 -10 -25 -2.1 -6 -5.6 -15.3 -7.7 -20.5 -2.2 -5.2 -8.3 -21.9 -13.5 -37 -14.2 -41.3 -14.8 -42.9 -18.6 -51 -1.9 -4.1 -4.7 -11.1 -6.2 -15.5 -1.4 -4.4 -3.6 -9.6 -4.7 -11.5 -2.2 -3.7 -6.9 -15.5 -12.3 -31 -7.9 -22.9 -25.5 -66.6 -27.6 -68.9 -1.1 -1.1 -1.9 -2.6 -1.9 -3.3 0 -1.3 -6 -17.2 -8 -21.3 -0.5 -1.1 -2.6 -6.5 -4.6 -12 -7.4 -20.6 -12.3 -33.5 -20.1 -53 -4.4 -11 -8.6 -21.8 -9.3 -24 -0.7 -2.2 -2.3 -6.5 -3.5 -9.5 -3.3 -7.8 -11.4 -29.2 -14.1 -37.5 -1.3 -3.8 -3.9 -11.5 -5.8 -17 -1.9 -5.5 -3.5 -10.5 -3.6 -11.2 0 -1.4 -10.7 -27.7 -15.5 -38.1 -2.7 -5.9 -3.1 -7.9 -2.5 -10.7 l0.8 -3.5 -3.9 0 c-3.5 0 -3.9 0.2 -3.1 1.8 0.5 0.9 1.2 3.4 1.6 5.5 0.4 2.1 1.3 4 2.1 4.3 0.8 0.3 1.2 1.1 0.9 1.8 -0.5 1.3 2.9 12.3 4.9 16.1 0.6 1.1 2.8 6.7 4.8 12.5 2 5.8 5.6 16.4 8.1 23.5 2.5 7.2 5.5 15.7 6.6 19 1.1 3.3 3.4 9.6 5.2 14 1.7 4.4 4 10.5 5 13.6 1 3.1 2.9 7.6 4.1 10 1.2 2.4 3.5 8 5 12.4 1.5 4.4 4.1 11.8 5.7 16.5 1.6 4.7 4.8 12.8 7 18 2.2 5.2 5.2 13.6 6.7 18.5 1.5 5 5.6 14.9 9.1 22 6.5 13.3 9.4 21.1 9.4 25.5 0 1.4 2.1 7.2 4.6 13 2.6 5.8 5.9 13.4 7.5 17 1.5 3.6 4.4 10.6 6.3 15.5 1.9 5 5.9 14.4 9 21 3.1 6.6 5.6 12.5 5.6 13.1 0 0.6 1.4 4.4 3.1 8.5 1.7 4.1 4.1 11.2 5.3 15.9 1.3 4.7 3.9 12.6 5.9 17.5 1.9 5 3.8 10.1 4.2 11.5 0.4 1.4 1.5 3.6 2.5 5 0.9 1.4 2.5 4.8 3.5 7.5 0.9 2.8 2.2 5.4 2.6 6 0.5 0.5 0.9 1.7 0.9 2.8 0 1.8 3.3 11.4 8.6 25.2 1.5 3.9 3.9 10.4 5.4 14.5 1.5 4.1 4.3 11.6 6.2 16.5 2 5 3.9 10.1 4.3 11.5 0.4 1.4 1.1 3 1.5 3.5 0.4 0.6 3.1 7.8 5.9 16 2.8 8.3 7 19.7 9.3 25.5 4.9 12.3 8.5 22.3 13.8 37.7 3.6 10.3 9 24.2 12.5 31.8 0.8 1.7 2 5 2.8 7.5 0.9 2.5 3.4 9.1 5.6 14.7 2.3 5.5 4.1 11 4.1 12 0 1.1 1.1 4.2 2.5 6.9 1.4 2.7 3.7 8.7 5.1 13.4 2.6 9.2 5.2 16.1 9.5 25.5 1.4 3.3 3.6 8.7 4.7 12.1 1.2 3.4 3.2 8.7 4.6 11.9 1.4 3.1 3.5 8.5 4.5 11.9 1.9 6 3.8 10.8 9.9 25.3 1.7 4 4.7 12.3 6.8 18.5 2 6.2 4.3 12.4 5 13.8 0.8 1.4 2.9 7 4.8 12.5 4.3 12.7 7.6 21.5 8.1 21.5 0.2 0 1.2 -1.5 2.3 -3.2z m472.6 -9.3 c1.5 -4.4 4.5 -11.6 6.6 -16 2.2 -4.4 4.6 -9.8 5.4 -12 0.8 -2.2 4 -10.1 7.1 -17.5 3.1 -7.4 6 -14.8 6.5 -16.5 0.4 -1.6 3.8 -11.1 7.5 -21 3.8 -9.9 8.1 -21.4 9.7 -25.5 1.5 -4.1 2.8 -8.1 2.8 -8.7 0 -0.7 2.5 -7.5 5.6 -15 3 -7.6 7.1 -18 8.9 -23.1 1.8 -5.1 4 -10.8 4.8 -12.5 0.8 -1.8 2.2 -5.3 3.2 -7.9 1 -2.6 2.4 -5.3 3.1 -5.9 0.8 -0.6 1.4 -1.8 1.4 -2.5 0 -0.8 0.4 -1.4 0.8 -1.4 0.5 0 1.5 -2.6 2.2 -5.7 1.5 -6.7 9.8 -32.3 11 -33.8 0.4 -0.5 2 -4.7 3.4 -9.3 1.4 -4.6 3.4 -10.2 4.4 -12.5 1 -2.3 2.6 -6.2 3.6 -8.7 1.8 -4.5 3.6 -8.6 9.6 -21.5 1.8 -3.8 4.3 -9.7 5.5 -13 1.3 -3.3 3.3 -8.5 4.5 -11.5 1.2 -3 2.6 -7.2 3.1 -9.3 0.5 -2.2 2.1 -6.7 3.6 -10 2.5 -6 8.7 -23 12 -33.2 0.9 -2.7 3.3 -9.7 5.5 -15.5 2.1 -5.8 3.8 -11 3.8 -11.6 0 -0.5 1.1 -2.5 2.5 -4.4 1.3 -1.8 3.4 -6.3 4.6 -9.9 1.2 -3.6 6.8 -18.1 12.6 -32.1 5.7 -14 11.7 -29.1 13.3 -33.5 1.6 -4.4 4.4 -12.3 6.3 -17.5 1.8 -5.2 4 -10.8 4.9 -12.5 0.8 -1.6 2.3 -5.5 3.3 -8.5 1 -3 2.9 -7.7 4.3 -10.5 2.8 -5.5 6.5 -15.5 11.7 -31.2 1.9 -5.5 3.8 -10.9 4.4 -12 2.7 -5 18.1 -45.9 19.5 -51.6 0.7 -2.8 7.4 -20.5 12.5 -33.2 1.6 -3.8 3.7 -9 4.6 -11.5 0.9 -2.5 2 -4.9 2.5 -5.5 0.9 -1.1 3.9 -8.7 9.5 -24 2 -5.5 4.2 -10.9 4.8 -12 0.6 -1.1 2.1 -5.4 3.3 -9.5 2.6 -8.5 11 -33.2 14.8 -43.3 1.5 -3.8 2.3 -7.3 2 -7.9 -0.7 -1.2 -4.1 4.1 -5 7.9 -0.4 1.6 -1.9 5.5 -3.4 8.8 -8.1 17.6 -17.7 42.5 -25.9 67.5 -2.7 8 -6.6 19 -8.8 24.5 -2.3 5.5 -4.4 11.6 -4.8 13.5 -0.8 3.9 -2.8 9 -14 36 -13.4 32.7 -21.6 53.8 -29.5 76.7 -2.1 6.2 -6 15.7 -8.7 21 -2.7 5.4 -6.6 14.1 -8.7 19.3 -2.2 5.2 -4.7 11.3 -5.6 13.5 -1 2.2 -2.1 5.1 -2.5 6.5 -0.4 1.4 -2.2 6.1 -4.1 10.5 -1.8 4.4 -4.4 11.2 -5.9 15 -1.4 3.9 -3.4 8.7 -4.5 10.7 -2.3 4.4 -10.4 23.2 -11.5 26.8 -0.4 1.4 -2.1 5.2 -3.7 8.5 -1.6 3.3 -4 8.7 -5.3 12 -1.2 3.4 -3.5 8.5 -5 11.5 -1.6 3 -4.6 10.2 -6.7 16 -2.2 5.8 -6.1 16.4 -8.8 23.5 -2.6 7.2 -6.2 16.3 -7.9 20.3 -1.7 4 -3.7 9.2 -4.5 11.5 -0.8 2.3 -3.4 9.4 -5.6 15.7 -2.3 6.3 -4.7 13.3 -5.4 15.5 -0.7 2.2 -3.4 8.9 -6 14.8 -2.6 5.9 -5.4 13 -6.2 15.7 -0.8 2.7 -2.8 8 -4.5 11.7 -1.7 3.8 -5.3 12.7 -7.9 19.8 -5.8 15.4 -8.8 22.9 -14.1 35.2 -2.1 5 -6.2 15.3 -9 22.9 -2.8 7.6 -5.7 15 -6.4 16.5 -1.6 2.9 -7.5 20.3 -7.5 21.9 0 0.5 -2.5 6.4 -5.6 13.2 -3.1 6.8 -6.8 16.3 -8.1 21.2 -1.4 5 -4.5 13.4 -6.9 18.9 -2.5 5.4 -5.6 14.4 -7 20 -1.3 5.6 -2.9 11.8 -3.4 13.7 -0.6 1.9 -1.1 5.4 -1.3 7.7 -0.2 2.9 -1 4.8 -2.6 6 -2.3 1.8 -2.3 1.9 -0.5 5.6 1 2 2.1 3.4 2.5 3 0.3 -0.5 1.8 -4.4 3.3 -8.8z m-48.1 -6.2 c4.2 -0.5 4.8 -0.8 4.5 -2.7 -0.5 -3.4 -6.1 -3.4 -10.9 0 -4.6 3.1 -5.1 4.9 -1.1 4 1.5 -0.4 4.9 -0.9 7.5 -1.3z m-409.7 -5 c1.6 -1.6 1.9 -2.3 0.9 -2.3 -0.8 0 -3.8 -2.9 -6.7 -6.4 -2.9 -3.6 -5.4 -6.3 -5.5 -6.2 -0.2 0.1 0.4 2 1.2 4.2 0.8 2.1 2.1 6.5 3 9.7 1.7 6.4 1.7 6.4 7.1 1z m446.1 -10.3 c-0.2 -0.9 -1.4 0.3 -3.1 3 -1.6 2.5 -3.4 4.8 -4 5.3 -0.7 0.5 -0.3 1.4 1.4 2.6 l2.4 1.9 1.8 -5.6 c1 -3.1 1.7 -6.4 1.5 -7.2z m-47 3.8 c0.8 -0.9 0.5 -3.3 -1.3 -8.8 -2.1 -6.6 -2.4 -9.4 -2.4 -24 -0.1 -22.8 0.7 -42.2 1.9 -50.5 0.6 -3.8 1.2 -8.6 1.5 -10.5 2.6 -19.2 4.1 -28.6 5.8 -34.5 1.1 -3.8 2.3 -9.2 2.8 -12 0.5 -2.7 1.5 -7.5 2.3 -10.5 0.8 -3 1.7 -7.3 2.1 -9.6 0.3 -2.2 1.7 -7.5 3.1 -11.8 1.4 -4.2 2.5 -8.7 2.5 -9.9 0 -1.2 1.6 -7.8 3.6 -14.7 2 -6.9 4 -14.3 4.6 -16.5 0.5 -2.2 1.8 -6.2 2.8 -9 2 -5.1 6.2 -19.2 8.5 -28 1.6 -6.1 2.6 -9.1 6 -18 1.5 -3.8 3.7 -9.9 5 -13.5 1.2 -3.6 3.9 -9.9 5.9 -14.1 2 -4.2 3.6 -7.9 3.6 -8.2 0 -0.4 1.1 -3.1 2.5 -6.1 1.4 -3 2.5 -6.1 2.5 -6.8 0 -0.8 0.4 -1.8 0.9 -2.4 1.2 -1.3 9.8 -20.4 11.7 -26.1 0.9 -2.6 3 -7.7 4.6 -11.3 1.7 -3.6 4.5 -9.9 6.4 -14 1.9 -4.1 5 -10.4 6.8 -14 25.7 -50 31.3 -60.5 40.3 -74.9 3.2 -5.2 7 -11.7 8.4 -14.5 4.5 -8.7 9.5 -17.9 11.7 -21.6 1.2 -1.9 2.5 -4.2 2.9 -5 4 -8.6 21.2 -36.8 37.8 -62 5.6 -8.5 13.7 -21.6 18 -29 4.2 -7.4 9.4 -15.7 11.4 -18.5 2 -2.7 5.5 -7.9 7.6 -11.5 5.6 -9.2 5.6 -9.2 9.8 -15.1 5.4 -7.7 18.1 -28 23.8 -37.9 2.7 -4.7 6.6 -11 8.6 -14.1 11 -16.4 15.4 -23.1 20.1 -30.4 2.8 -4.4 7.2 -10.8 9.7 -14.2 2.5 -3.4 4.5 -6.7 4.5 -7.2 0 -0.6 -1.1 -1.1 -2.5 -1.1 -1.8 0 -3.1 1.1 -5.2 4.8 -1.5 2.6 -4.8 7.5 -7.3 10.8 -2.5 3.4 -7 9.8 -10 14.4 -3 4.5 -8.2 11.9 -11.5 16.4 -3.3 4.5 -6.9 9.7 -7.9 11.6 -1.1 1.9 -3.9 6.2 -6.3 9.5 -4.1 5.7 -6.2 8.7 -15.9 23.5 -2.4 3.6 -5.7 8.4 -7.3 10.7 -1.7 2.3 -5.6 8.4 -8.7 13.5 -7.1 11.7 -17.3 27.2 -26.8 40.8 -13.6 19.5 -34.6 51.8 -34.6 53.4 0 0.4 -8.5 15.2 -15.7 27.1 -15.9 26.5 -21 35.8 -27.7 50.5 -1.4 3 -4.1 8.2 -6.1 11.5 -1.9 3.3 -4.5 7.8 -5.6 10 -1.2 2.3 -3.3 4.8 -4.7 5.6 -2.5 1.4 -12.6 20.3 -21.7 40.4 -1.5 3.3 -3.5 7.8 -4.6 10 -1 2.2 -3.1 7.4 -4.8 11.5 -1.6 4.1 -4.6 11.3 -6.6 16 -2 4.7 -5 12.1 -6.5 16.5 -1.6 4.4 -4.6 12.3 -6.8 17.5 -2.1 5.2 -4.2 10.6 -4.5 12 -0.5 2.5 -4.8 14 -10.7 28.5 -7.4 18.4 -23.7 66.6 -27 80 -1.2 5 -3.7 14.2 -5.5 20.5 -1.8 6.3 -3.5 13.1 -3.9 15 -0.3 1.9 -1 5.5 -1.6 8 -4.4 19.1 -10 58.2 -10 70 -0.1 4.1 -0.7 12.5 -1.4 18.5 -1.6 14.1 -1 29.3 1.9 47.1 2.7 16.3 4 19.8 6.5 18.4 0.9 -0.5 2.1 -1.5 2.7 -2.2z m-388.1 -1.7 c-2.6 -8.2 -3.6 -13.9 -3.7 -21.4 -0.1 -4.8 0.1 -9 0.3 -9.3 1.2 -1.2 3.7 1.1 4.4 3.9 0.3 1.8 1 3.7 1.4 4.2 0.4 0.6 1.8 4.9 3.1 9.8 1.3 4.8 2.7 8.7 3 8.7 0.7 0 0.8 -0.3 3.9 -15.4 1.1 -5.5 2.7 -11.3 3.5 -12.9 0.8 -1.7 1.5 -3.2 1.5 -3.5 0 -0.2 -5.1 -5.7 -11.3 -12.1 -6.1 -6.4 -13.1 -13.7 -15.5 -16.3 -2.3 -2.7 -4.5 -4.8 -4.7 -4.8 -0.3 0 -0.5 2 -0.5 4.5 0 3.6 -4.1 29.5 -6.6 42.5 -0.5 2.2 0.3 3.3 4.8 7.2 4.1 3.5 6.3 6.4 8.7 11.7 3.1 6.8 3.3 7 5.7 5.9 1.6 -0.8 2.3 -1.8 2 -2.7z m37 -7.2 c0.8 -5.2 1.7 -19.1 2 -30.9 0.5 -20.9 0 -29 -3.5 -56 -0.6 -4.1 -1.7 -13.8 -2.7 -21.5 -0.9 -7.7 -2 -14.7 -2.4 -15.5 -0.4 -0.8 -1.5 -4.9 -2.4 -9 -1.9 -8.5 -10.3 -38.4 -15.1 -54 -1.8 -5.8 -5 -16.1 -7 -23 -3.8 -12.8 -7.6 -23.7 -12.8 -37 -1.6 -4.1 -4.2 -10.9 -5.7 -15 -1.5 -4.1 -4.6 -10.9 -6.8 -15 -2.2 -4.1 -5.2 -10.4 -6.5 -14 -1.3 -3.6 -5.1 -12.1 -8.4 -19 -3.3 -6.9 -6.6 -14.1 -7.3 -16 -0.8 -1.9 -3.6 -7.2 -6.2 -11.7 -2.6 -4.4 -4.8 -8.5 -4.8 -9.1 0 -1.4 -7.1 -16.5 -18.7 -39.7 -18.6 -37.2 -31.3 -60.4 -44.3 -80.8 -3.6 -5.6 -8.4 -13.6 -10.6 -17.7 -2.2 -4.1 -5.4 -9.5 -7 -11.9 -3.8 -5.7 -4.3 -6.5 -8.3 -13.6 -1.9 -3.3 -5.1 -8.3 -7.2 -11 -2 -2.8 -4.9 -7.5 -6.4 -10.5 -1.5 -3 -3.9 -6.8 -5.2 -8.4 -1.3 -1.6 -4.3 -6.6 -6.5 -11 -2.2 -4.5 -5.8 -10.6 -7.9 -13.7 -2.1 -3.1 -5 -7.8 -6.5 -10.5 -1.4 -2.7 -5 -8.5 -7.9 -12.9 -2.9 -4.4 -9 -14.1 -13.5 -21.5 -10.2 -16.6 -26 -40.3 -36.5 -55 -1.8 -2.5 -5.5 -8.3 -8.3 -13 -2.7 -4.7 -7.9 -12.4 -11.3 -17.1 -3.5 -4.8 -7.1 -9.9 -8 -11.5 -5.9 -10.4 -15.9 -24.8 -20.6 -29.6 -4.7 -4.8 -6.1 -5.6 -8.6 -5.3 -1.6 0.2 -3.1 0.6 -3.3 0.8 -0.3 0.2 2.6 5.1 6.4 10.8 3.8 5.7 9.5 14.5 12.7 19.4 3.2 5 7.8 11.5 10.1 14.5 4.5 6 11.7 17.4 16 25.5 1.4 2.8 5.2 8.7 8.3 13.3 3.1 4.6 6.7 10 8.1 12.2 1.4 2.1 3.9 5.9 5.5 8.5 1.7 2.6 5.3 8.1 8.2 12.3 2.8 4.2 7.3 11.3 9.9 15.7 2.7 4.4 7.4 12.2 10.7 17.3 3.2 5.1 7.6 12.7 9.9 17 2.2 4.2 6.4 11.3 9.3 15.7 9.1 14.1 12.5 19.5 12.5 19.9 0 0.3 2.6 4.7 5.7 9.8 3.1 5.1 8.2 13.8 11.3 19.3 7.2 12.6 16.6 28.3 24.5 40.5 3.3 5.2 7.9 12.7 10.1 16.5 2.3 3.9 6.6 11.3 9.6 16.5 3.1 5.2 7 12.4 8.8 16 1.8 3.6 4.5 8.3 6.1 10.6 1.5 2.2 4.3 7.2 6.2 11 1.9 3.8 5 9.6 6.8 12.9 1.9 3.3 4.3 7.8 5.3 10 1 2.2 6.3 13 11.8 24 5.5 11 11.1 22.9 12.5 26.5 1.4 3.6 4.9 11.5 7.8 17.5 3 6.1 7.3 15.3 9.6 20.5 2.3 5.2 5.6 12.7 7.4 16.5 5 10.7 14.1 33.5 21.3 53.5 10.1 28 12.3 34.6 15.2 45 1.8 6.3 4 13.5 5 16 1 2.5 2.7 9.2 3.9 15 1.2 5.8 3 14.6 4 19.5 4.6 22 6 32 8.4 59.5 2.8 31.4 2.9 60.9 0.3 67 -0.4 1 0.3 2 2.1 3.1 1.6 0.9 2.9 1.5 3.1 1.3 0.2 -0.1 1 -4.4 1.8 -9.5z m386 4.4 c1.5 -2.7 4.1 -6.5 5.8 -8.5 9.5 -11.4 9.1 -10.7 7.7 -14.1 -0.7 -1.8 -1.7 -5.4 -2.2 -8.2 -0.6 -2.7 -1.9 -8.6 -3 -13 -1 -4.4 -2 -11.1 -2 -14.8 -0.1 -3.7 -0.3 -6.7 -0.5 -6.7 -0.2 0 -3.3 4.6 -7 10.1 -3.6 5.6 -9.3 13.1 -12.5 16.6 -3.3 3.6 -5.9 6.8 -5.9 7.2 0 1.2 4 15.5 5.2 18.4 1.5 3.7 2.3 3.4 3.7 -1.5 0.7 -2.4 2.3 -6.3 3.6 -8.8 1.3 -2.5 2.6 -5.5 3 -6.7 0.3 -1.3 1.3 -2.3 2 -2.3 1.9 0 1.8 10.3 -0.1 25.4 -0.8 6.1 -1.4 11.1 -1.4 11.3 0 1.1 1.2 -0.3 3.6 -4.4z m-24.1 -7.4 c-1 -2.1 -1.4 -2.5 -1 -0.9 0.4 1.4 0.9 3.6 1.3 5 0.4 1.6 0.7 1.9 0.9 0.9 0.2 -0.8 -0.3 -3.1 -1.2 -5z m-424.9 -42.9 c0.5 -3.3 0.3 -3.7 -3.3 -5.8 -2.1 -1.2 -5.4 -3.8 -7.3 -5.8 -3.3 -3.4 -7.8 -6 -8.7 -5 -0.2 0.2 0.9 3.2 2.6 6.7 1.6 3.5 3.9 9.6 5.1 13.4 1.2 3.9 3 9.3 4 12 1 2.8 2.1 5.9 2.5 7 0.7 1.9 1.1 0.1 5.1 -22.5z m475.4 10.1 c1.7 -5.1 2.9 -9.6 2.6 -9.8 -0.3 -0.3 -2.1 2 -4 5 -2 3.1 -4 5.9 -4.6 6.2 -1 0.6 -0.6 5.6 0.6 9.5 0.8 2.3 2 -0.1 5.4 -10.9z m-46.9 -9.4 c0.7 -1.3 0.4 -3.2 -1.4 -7 -1.3 -2.9 -2.8 -6.3 -3.5 -7.7 -0.9 -2.1 -1.1 -0.9 -1.1 6.6 -0.1 5 -0.4 10.7 -0.7 12.5 l-0.7 3.4 3.2 -3 c1.8 -1.6 3.7 -3.8 4.2 -4.8z m-384.2 -12.8 c-0.6 -7.9 -1.4 -15.1 -1.6 -15.9 -0.3 -0.8 -1.4 2.6 -2.4 7.5 -1 5 -2.3 10.3 -2.9 12 -0.9 2.7 -0.6 3.3 3.2 7.2 2.3 2.3 4.3 4.1 4.5 4 0.1 -0.2 -0.2 -6.8 -0.8 -14.8z m430.3 -2.4 l4.6 -6.2 -1.3 -5.5 c-0.7 -3.1 -2 -7.8 -2.9 -10.5 -0.8 -2.6 -2.2 -10.1 -3 -16.6 -0.7 -6.5 -1.6 -12.1 -1.9 -12.3 -0.3 -0.3 -2.3 1.4 -4.4 3.8 -8.7 9.9 -21 22.8 -28.4 29.8 l-8 7.6 2.6 5.7 c1.4 3.2 2.5 7.1 2.5 8.7 0 1.7 0.3 3 0.8 3 0.4 -0.1 4.5 -5.7 9.2 -12.6 4.7 -6.9 9 -13.1 9.5 -13.7 0.6 -0.7 1.7 -2.8 2.5 -4.7 1.8 -4.5 4.2 -7.9 5.6 -8 1.5 0 2.4 4.5 1.7 8.7 -0.3 1.9 0 3.9 0.7 4.7 0.6 0.8 1.1 3.2 1 5.3 -0.1 2.1 -0.1 8.5 0 14.3 l0.1 10.5 2.2 -2.9 c1.2 -1.6 4.3 -5.7 6.9 -9.1z m-471.7 -8.7 c0.4 -6.8 1.1 -13.1 1.6 -14 0.6 -1 0.6 -3.3 0 -5.8 -1 -4.6 -0.4 -8.3 1.3 -7.7 1.4 0.4 4.2 6 5.7 11.2 0.6 2.2 1.8 4.9 2.8 6 0.9 1.1 3.4 4.7 5.5 8 4.1 6.4 7.5 10.5 8.7 10.5 0.4 0 1.1 -2.6 1.4 -5.7 1.1 -9.7 3.6 -20.8 4.8 -21.6 1.3 -0.8 1.9 -0.2 -22 -22 -8.3 -7.6 -16.8 -15.6 -18.8 -17.8 -2 -2.3 -3.8 -3.9 -4 -3.7 -0.1 0.1 -0.7 7.1 -1.4 15.3 -0.6 8.3 -2.2 20.9 -3.6 28 -1.4 7.2 -2.5 13.6 -2.5 14.3 0 0.7 2.5 2.3 5.5 3.7 4.6 2 6.1 3.4 9.2 8.3 2.1 3.3 4.1 5.8 4.4 5.6 0.4 -0.2 1 -5.9 1.4 -12.6z m490 -13.3 c0.9 -2.7 2.3 -7.2 3.1 -10 l1.3 -4.9 -5.4 5.7 -5.5 5.8 1.1 4.7 c0.6 2.6 1.3 5.4 1.6 6.2 0.6 1.7 0.6 1.5 3.8 -7.5z m-60.2 -6.3 l4.7 -5.3 -2.4 -3.2 c-1.3 -1.8 -2.7 -4.2 -3 -5.4 -0.4 -1.1 -1.3 -2.6 -2.1 -3.3 -1.5 -1.3 -2.7 3.4 -4.5 18 -1.2 10.3 -1.3 10 0.8 7 0.9 -1.4 3.8 -4.9 6.5 -7.8z m-456.9 -8.7 c0.8 -4.9 1.7 -10.8 2.1 -13 0.3 -2.2 0.8 -9.6 1.1 -16.4 0.3 -7.6 1.1 -13.7 2 -15.9 1.3 -3.2 1.3 -3.9 -0.1 -6.9 -3.4 -7.2 -0.9 -22.7 2.6 -16.2 0.7 1.3 2 3.8 2.9 5.4 0.9 1.7 2.5 5.4 3.5 8.4 1.4 4.3 3.6 7.3 12.3 16.2 5.8 6 10.8 10.7 11 10.4 0.5 -0.4 2.7 -12.4 4.9 -26.1 0.4 -2.7 0 -3.3 -5.1 -6.7 -3 -2 -9.1 -6.7 -13.4 -10.4 -4.4 -3.8 -11 -9.3 -14.7 -12.3 -3.8 -3 -9.6 -8.4 -13 -11.9 l-6.1 -6.3 -0.2 13.3 c-0.1 12.8 -2.5 45.1 -3.8 51.8 -0.6 2.8 -0.4 3.1 1.8 3.1 5 0 13.8 8.4 13.8 13.1 0 1.4 -0.7 1.9 -3 1.9 -3.1 0 -10.4 -3.1 -11.5 -5 -0.7 -1.2 -4.5 -1.4 -4.5 -0.2 0 2.4 10 30.4 12.7 35.5 l1.6 3.2 0.9 -3 c0.4 -1.6 1.4 -7 2.2 -12z m514.1 -7.6 c2.8 -3.3 5.5 -6.5 6 -7.2 3.7 -4.4 3.6 -4.1 0.4 -13.8 -1.7 -5.2 -3.5 -13.5 -4 -18.5 -0.6 -5 -1.8 -12.2 -2.7 -15.8 l-1.7 -6.7 -6.4 7.8 c-9.9 12.2 -30 30 -42 37.3 -4.4 2.6 -4.9 4.1 -2.6 8 0.8 1.4 2.6 5 4.1 7.9 l2.5 5.5 9.7 -10.3 c5.3 -5.7 10.8 -12 12.3 -14 1.4 -2 3.6 -4.5 4.8 -5.5 1.1 -1.1 2.1 -2.9 2.1 -4.1 0 -6 4.1 -11.2 5.4 -6.7 1.5 5.1 5.5 34.3 5.6 41 0 2.2 1.4 1.2 6.5 -4.9z m-452.6 -3.1 c-0.5 -3.5 -1.7 -10.6 -2.9 -15.8 -1.1 -5.2 -2.7 -12.6 -3.4 -16.5 -1.9 -9.2 -3.2 -12.5 -5.1 -12.5 -1.8 0 -1.8 -1.1 -0.4 14.4 0.7 8.8 0.7 14.1 0 18.3 l-1.1 5.8 6.4 6.2 c3.6 3.5 6.6 6.3 6.8 6.3 0.3 0 0.1 -2.8 -0.3 -6.2z m481.2 -40.2 c1.6 -4.3 2.8 -8.1 2.6 -8.3 -0.5 -0.4 -10.4 10.1 -14.1 15 l-2.6 3.4 2.1 6.3 2.2 6.3 3.4 -7.4 c1.9 -4.1 4.8 -11 6.4 -15.3z m-77.7 12.4 l6.4 -5 -1.8 -3.8 c-1 -2 -2.4 -6.3 -3.1 -9.4 -0.8 -3.2 -1.7 -5.8 -2 -5.8 -0.4 0 -1 1.7 -1.4 3.8 -0.3 2 -1.7 8.3 -3.1 13.9 -1.3 5.7 -2.4 10.5 -2.4 10.8 0 1.1 1.3 0.3 7.4 -4.5z m-488 -18 c0.4 -4.7 0.9 -10.9 1.2 -13.7 0.5 -4.1 0.3 -5.3 -0.7 -5.3 -1.5 0 -3.1 -1.4 -12.4 -11 -6.7 -6.9 -8.2 -6.3 -4.2 1.7 1.4 2.6 5.1 12.6 8.3 22.1 3.3 10 6 16.8 6.4 16 0.4 -0.7 1 -5.1 1.4 -9.8z m508.9 -0.2 c11.5 -12 22.6 -25.2 23.2 -27.7 0.6 -2.9 7 -12.1 8.4 -12.1 1.2 0 3.4 5.7 2.7 6.9 -0.4 0.6 -0.2 2 0.4 3.1 0.6 1.1 1.8 5.8 2.5 10.3 2.2 12.4 3.8 18.8 4.5 18.5 2.1 -0.9 12 -13.4 11.5 -14.6 -1.7 -4.4 -3.5 -16.8 -3.5 -23.9 0 -4.5 -0.5 -9.4 -1 -10.8 -0.6 -1.5 -1.3 -7.5 -1.5 -13.3 -0.3 -5.8 -0.7 -10.8 -1 -11 -0.9 -0.9 -2.5 1.1 -2.5 3.1 0 1.4 -2.8 4.9 -7.8 9.7 -11.7 11.4 -39.2 37.1 -43.9 41.1 -4.1 3.4 -4.2 3.6 -3.3 7.4 3.5 15.4 4.3 18.5 5.2 18.5 0.5 0 3.3 -2.4 6.1 -5.2z m-438.9 -13.5 c-1.8 -7.5 -15.7 -46.3 -16.6 -46.3 -0.5 0 -0.8 1.4 -0.8 3.1 0 1.7 -0.6 5.4 -1.4 8.2 -0.8 2.9 -1.6 8.8 -1.8 13.1 l-0.4 7.9 9.5 8.3 c10.2 9 12.6 10.2 11.5 5.7z m506.6 -9.3 c0.7 -1.9 2.1 -5.3 3 -7.5 5.9 -13.4 8 -18.9 8 -20.4 0 -0.9 0.9 -3.4 2 -5.6 1.1 -2.1 1.8 -4 1.6 -4.2 -0.1 -0.2 -4.2 4 -9 9.2 -5.2 5.7 -9.5 9.5 -10.7 9.5 -2.2 0 -2.4 1.5 -0.9 11 1.3 8.2 3 13.4 3.9 12.3 0.5 -0.4 1.4 -2.4 2.1 -4.3z m-318.5 -22.2 c-0.5 -14.5 -1 -37.1 -1.1 -50.3 -0.2 -19.8 -0.7 -27 -2.8 -41 -3.9 -26.4 -5.6 -36.5 -7.1 -43 -0.8 -3.3 -2.1 -10.9 -3 -17 -2.4 -16.1 -5.1 -30.2 -9 -46 -13.5 -55.7 -15.9 -63.9 -24.2 -83.2 -2.4 -5.5 -4.6 -12.2 -4.9 -14.8 -0.8 -5.3 -7.6 -19 -8.2 -16.2 -0.2 0.9 1.1 6.3 2.8 12 3.6 11.6 4.8 15.9 7.9 27.2 1.2 4.4 4.2 14.3 6.6 22 7.1 22.4 8.4 27.6 9.4 35.6 0.6 4.1 1.4 8.7 2 10 1.6 4.4 6.8 30.2 12 59.4 1.8 9.9 3.8 20.3 4.6 23 1.7 6.2 3.2 16.3 4 27.5 0.6 8.4 1.5 15.2 5.6 44 1.1 8 2.3 21 2.5 29 0.3 8 0.9 18.3 1.5 23 0.5 4.7 0.9 12.2 0.9 16.8 0 4.5 0.3 8.2 0.7 8.2 0.3 0 0.2 -11.8 -0.2 -26.2z m244.9 7.4 c5.9 -5.8 7.3 -7.7 6.6 -9 -1.3 -2.6 -3.7 -8.4 -4.5 -11 -0.8 -2.8 -2.6 -2.4 -3.6 0.9 -0.4 1.3 -1.5 5.1 -2.4 8.4 -1 3.3 -2.6 8.7 -3.6 11.9 -1.1 3.3 -1.9 6.1 -1.9 6.3 0 1.2 2.5 -0.8 9.4 -7.5z m-501.4 -9.2 c-0.6 -10.7 -0.4 -15.2 0.5 -17 0.8 -1.7 1 -4.5 0.6 -8.3 -0.4 -3.1 -0.4 -6.2 0 -6.8 0.9 -1.5 2.9 -0.3 2.9 1.7 0 0.8 0.9 2.5 2.1 3.7 1.2 1.2 3.4 4.5 5 7.2 1.6 2.8 3.7 5.9 4.6 7 1 1.1 3.5 4.4 5.6 7.2 3.6 4.9 13.3 14.3 14.8 14.3 0.3 0 0.9 -2.8 1.3 -6.2 0.6 -6.8 2 -15.8 3 -19.8 0.5 -2.2 -0.2 -3 -7.1 -7.5 -4.3 -2.7 -10 -7 -12.7 -9.4 -2.8 -2.4 -6.9 -5.6 -9.1 -7 -2.3 -1.5 -9.4 -7.8 -15.7 -14.1 l-11.5 -11.5 -0.1 19 c0 10.5 -0.5 24.9 -1.2 32.1 l-1.1 13.2 8.8 9 c4.8 4.9 9.1 8.7 9.4 8.4 0.3 -0.4 0.3 -7.2 -0.1 -15.2z m572.5 -11.5 c2.1 -2.7 5.6 -6.9 7.8 -9.1 4.4 -4.7 4.4 -5.5 0.6 -16.4 -2.2 -6.3 -6.9 -32.9 -6.9 -39 0 -2.2 -0.2 -4 -0.4 -4 -0.2 0 -5.3 4.9 -11.2 10.8 -6 6 -17.5 16.9 -25.6 24.3 -19.2 17.6 -21.3 19.4 -25.9 22.7 -2.1 1.5 -3.9 2.9 -3.9 3.2 0 0.9 9 12.5 10 12.8 1 0.4 28.9 -27.4 35.1 -34.9 2 -2.4 4.3 -6.2 5 -8.4 1.5 -4.4 3.1 -6.5 5 -6.5 0.8 0 1 1.7 0.6 6.2 -0.3 3.4 -0.1 7 0.4 7.9 0.4 0.9 1.4 9 2 18 0.6 9 1.3 17 1.5 17.8 0.5 1.6 0.4 1.7 5.9 -5.4z m-599.9 -19.7 l0.7 -16.5 -6.4 -2.5 c-3.5 -1.5 -7.7 -3.3 -9.4 -4.2 -1.6 -0.9 -3.5 -1.6 -4.2 -1.6 -0.6 0 1.1 4.9 3.9 11.3 2.7 6.1 6.3 14.8 8 19.2 1.6 4.4 3.4 9.3 4 10.9 1.9 5 2.7 0.9 3.4 -16.6z m625.7 -3.3 c0.8 -2.7 3.9 -11.6 7 -19.7 6.4 -17.2 6.2 -17.5 -5 -9.8 -4 2.8 -8.2 5 -9.3 5 -2.8 0 -2.6 3.4 0.6 15.6 1.4 5.5 2.9 11.2 3.1 12.7 0.7 3.6 1.7 2.5 3.6 -3.8z m-556.8 -6.7 c-2 -5.1 -5.8 -14 -8.5 -19.8 -2.6 -5.8 -6.6 -14.5 -8.8 -19.3 -2.2 -4.9 -4.2 -8.4 -4.6 -7.9 -0.5 0.9 -0.9 4.2 -2.5 23.2 -0.4 5.2 -1.1 10.3 -1.5 11.2 -0.6 1.3 0.3 2.3 3.6 4.4 2.4 1.5 7 5 10.2 7.8 7.5 6.5 15 11.6 15.4 10.5 0.2 -0.4 -1.3 -5 -3.3 -10.1z m480.6 -5.7 c6.4 -6 6.7 -6.5 5.4 -8.5 -0.8 -1.1 -1.5 -3.3 -1.5 -4.9 0 -1.6 -0.5 -3.8 -1.1 -4.9 -0.6 -1.1 -1.4 -4.1 -1.8 -6.7 l-0.7 -4.6 -1.7 3.5 c-3.9 8.7 -11.5 29.9 -12.1 34.2 l-0.7 4.6 3.6 -3.1 c2.1 -1.8 6.8 -6.1 10.6 -9.6z m-549.3 -18.8 c-0.3 -6.6 -0.1 -12.9 0.4 -14.5 0.8 -2.1 0.6 -3.9 -0.6 -6.8 -2 -5 -2 -7.4 -0.1 -9.4 1.2 -1.2 2.1 -1.3 4.6 -0.4 2.5 0.9 3.8 2.4 6.2 7.7 3.5 7.5 20.1 27 23.1 27.1 0.4 0 0.5 -0.8 0.2 -1.7 -0.9 -2.3 1.2 -20.8 3 -26.2 1.7 -5.4 1.7 -5.1 0.2 -5.1 -1.5 0 -17.2 -8.2 -26.6 -13.9 -3.4 -2 -10.9 -7.4 -16.6 -11.8 l-10.4 -8.1 -0.6 23.7 c-0.4 13 -0.9 26.8 -1.2 30.8 -0.5 6.8 -0.5 7.1 1.8 7.8 4.3 1.3 12.4 6.7 14.4 9.6 1 1.6 2.1 2.9 2.3 2.9 0.2 0 0.1 -5.3 -0.1 -11.7z m582.7 -13.4 c14.3 -14.3 17.6 -18.2 20.6 -24.2 2 -4 4.3 -7.3 5.1 -7.5 1.9 -0.4 3.5 3.8 3.3 8.8 -0.1 1.9 0.4 10.3 1.1 18.5 0.7 8.3 1.3 15.6 1.4 16.3 0 0.7 3.4 -1.7 7.5 -5.5 7.6 -6.8 7.6 -6.8 7.2 -11.3 -1.3 -13.5 -3.9 -37.7 -5 -45.9 l-1.3 -9.4 -6.9 6.4 c-3.9 3.5 -11.9 11.1 -18 16.8 -6 5.7 -14.3 12.8 -18.3 15.8 -4 2.9 -8.1 6.2 -9.2 7.3 -1.1 1.1 -3.6 3 -5.7 4.3 -2.1 1.4 -4.6 3.3 -5.6 4.5 -1.7 1.9 -1.7 2.1 0.2 5.3 1.2 1.9 2.1 4.2 2.1 5.2 0 2.5 3.1 11.7 3.9 11.7 0.4 0 8.3 -7.7 17.6 -17.1z m62.5 -8.1 c1.2 -3.5 5.1 -14.1 8.7 -23.7 3.5 -9.5 6.2 -17.5 6 -17.7 -0.4 -0.4 -9.7 7.6 -14.3 12.2 -1.7 1.8 -3.9 3.4 -5 3.6 -1.7 0.3 -1.9 1.2 -1.8 8.3 0.1 18.3 1.1 25.4 3.3 24.1 0.4 -0.3 1.8 -3.4 3.1 -6.8z m-673.2 -16 c0 -11.2 -0.1 -11.8 -2 -11.8 -1.1 0 -4.8 -1.4 -8.1 -3 -4.9 -2.6 -5.8 -2.8 -5.2 -1.3 0.4 1 2.4 6.8 4.5 12.8 2.1 6.1 4.7 13 5.8 15.5 1 2.5 2.3 5.4 2.7 6.5 1.3 3.2 2.4 -5.3 2.3 -18.7z m600.2 -6.5 c3 -2.2 7.3 -5.6 9.4 -7.5 3.7 -3.3 3.9 -3.7 2.8 -6.4 -0.6 -1.6 -1.6 -4.9 -2.1 -7.4 -0.6 -2.5 -1.7 -6.3 -2.7 -8.5 l-1.6 -4 -4.7 12 c-2.7 6.6 -6.3 14.9 -8.1 18.4 -1.8 3.6 -3.9 8.3 -4.7 10.5 l-1.4 4.1 3.8 -3.6 c2.1 -1.9 6.3 -5.3 9.3 -7.6z m-535.9 -3.8 c-1.7 -3.7 -3.1 -6.9 -3.1 -7.1 0 -1.5 -18.5 -37.4 -19.2 -37.4 -0.5 0 -0.8 8.4 -0.7 18.8 l0.2 18.7 6.7 4.3 c10.1 6.6 18.5 11 18.8 10.1 0.2 -0.4 -1 -3.8 -2.7 -7.4z m-66.2 -24.3 c-1.9 -9.5 -1.9 -11.1 0.1 -12.2 4.8 -2.6 7.5 -1.1 18.6 9.8 4.4 4.3 9.3 8.7 10.9 9.9 l3 2.1 -0.1 -16.1 -0.1 -16 -7.4 -4 c-10.2 -5.4 -28.8 -18.8 -37.7 -27.2 l-7.5 -7 0.8 4.5 c0.6 3.7 1.3 28.4 1.5 54 l0 5.5 4.3 1.8 c2.3 0.9 6.5 3.9 9.2 6.5 l5 4.7 0.3 -5.3 c0.2 -2.8 -0.2 -7.8 -0.9 -11z m675.9 8.1 c6.2 -7 7.1 -8.5 6.3 -10.5 -0.5 -1.3 -1.4 -8.6 -2 -16.3 -0.6 -7.7 -1.5 -17.6 -2 -22 -0.5 -5.5 -0.4 -11.2 0.6 -18.4 2.4 -17.8 3.9 -18.3 -22.9 8.6 -13 13.1 -24.5 24.8 -25.5 26 -2.1 2.6 -13.3 11.3 -14.5 11.3 -0.4 0 -0.4 0.8 0.2 1.8 1.1 1.8 3.2 7.8 5.7 15.5 l1.5 4.8 7.1 -6.3 c3.9 -3.5 10.3 -9.3 14.1 -13 3.9 -3.7 7.6 -7 8.3 -7.2 0.6 -0.3 3.4 -4.2 6.1 -8.8 7.6 -13 10.2 -11.6 6.1 3.2 -1.2 4.1 -2.1 8 -2 8.5 0.5 14.9 3 31.7 4.6 31.3 0.6 -0.2 4.4 -4 8.3 -8.5z m-362.9 -20 c-0.1 -5.4 -0.4 -11.7 -0.8 -13.9 -0.6 -4.1 -0.6 -4.2 -2.2 -2 -1.6 2.2 -1.6 1.9 1.7 22.4 0.9 5.9 1.5 3.3 1.3 -6.5z m385.7 2.2 c1.4 -3.3 3.3 -7.8 4.4 -10 3.4 -6.8 13 -29.6 13 -30.7 0 -0.6 -0.8 -0.4 -1.8 0.5 -1 1 -2.3 1.7 -2.8 1.7 -0.5 0 -2.9 1.6 -5.3 3.5 -2.4 1.9 -4.7 3.3 -5.1 3 -0.4 -0.2 -1.6 0.5 -2.6 1.6 -1 1.2 -3 2.7 -4.4 3.4 l-2.5 1.3 0.8 13.8 c1.3 21.1 2 22.5 6.3 11.9z m-334.6 -9.2 c2.2 -9.9 3.2 -87.4 1.1 -88.7 -2.6 -1.6 -2.9 2.1 -2.7 30.9 0 16.5 -0.2 38.8 -0.6 49.5 -0.8 19.1 -0.5 20.1 2.2 8.3z m279.9 -37.7 c0 -1.1 -0.6 -5.2 -1.2 -9.1 l-1.3 -7 -5 9.5 c-11.1 20.6 -17.4 32.8 -17.4 33.4 0 0.3 5.6 -5.1 12.5 -12 8.4 -8.5 12.5 -13.3 12.4 -14.8z m-607 20.7 c-1.8 -3.2 -4.6 -8.3 -6.2 -11.3 -1.7 -3 -4.1 -7.1 -5.4 -9 -1.2 -1.9 -2.3 -4.2 -2.3 -5.1 0 -2.1 -9.6 -18 -10.4 -17.2 -0.3 0.4 -0.6 7.3 -0.6 15.4 l0 14.8 6.2 4.3 c5.5 3.8 20.8 13.5 21.6 13.7 0.2 0.1 -1.1 -2.5 -2.9 -5.6z m-66.3 -4.9 c-0.4 -5.3 -1 -10.2 -1.4 -10.9 -0.7 -1.3 -12.2 -10.8 -12.2 -10.2 0 3.2 11.9 30.7 13.3 30.7 0.6 0 0.8 -3.4 0.3 -9.6z m726.9 -5.7 c1.9 -2.7 6.1 -7.8 9.5 -11.3 l6.2 -6.4 -1.6 -3.5 c-1.4 -2.9 -1.9 -8.8 -2.6 -33.5 -0.5 -16.5 -0.6 -32.5 -0.3 -35.5 0.3 -3 0.2 -5.5 -0.3 -5.5 -0.5 0.1 -2.6 2.4 -4.6 5.3 -2.1 2.9 -9.4 11.3 -16.3 18.7 -6.9 7.4 -15.4 16.7 -18.8 20.6 -8.2 9.4 -11.5 11.7 -16.4 11.2 -4.7 -0.4 -5.4 1.7 -2.5 7.6 1.1 2.3 2.4 6.2 2.7 8.9 0.4 2.6 0.9 4.7 1.2 4.7 0.2 0 5.1 -4.3 10.9 -9.5 5.8 -5.2 11.1 -9.5 11.7 -9.5 2.3 0 10.2 -8.7 13 -14.3 1.6 -3.1 3.5 -5.7 4.3 -5.7 2 0 1.8 1.9 -1 10.2 -2.2 6.3 -2.4 8.3 -1.8 14.8 0.5 4.6 0.3 11.9 -0.5 18.5 -1.2 9.8 -1 18.5 0.4 20.8 0.7 1.2 3.2 -1.2 6.8 -6.6z m-383.3 -27.9 c0.3 -29 0.2 -30.7 -1.5 -31.8 -1.1 -0.6 -2.1 -0.9 -2.4 -0.7 -0.2 0.3 0 7.3 0.6 15.7 0.6 8.3 1.1 19.5 1.1 24.8 0 9.6 1 23.5 1.6 22.9 0.2 -0.2 0.5 -14.1 0.6 -30.9z m-312.9 4.2 l0.5 -12.1 -10.6 -10.3 c-5.9 -5.7 -14.7 -14.2 -19.6 -18.7 -4.9 -4.6 -10.5 -10.4 -12.5 -12.9 l-3.6 -4.5 -0.1 26.5 -0.1 26.6 4.1 1.3 c2.2 0.7 4.9 2 6 2.9 1.8 1.6 1.8 1.6 1.1 -1.8 -0.4 -1.9 -0.9 -4.5 -1.2 -5.7 -0.4 -1.6 0.4 -3.1 2.5 -5.3 4.7 -4.6 7 -4 11.7 3.2 3.9 6 19 22.8 20.5 22.8 0.4 0 1 -5.4 1.3 -12z m299.2 1.9 c-0.4 -2.2 -0.8 -13.9 -0.8 -26 l-0.1 -22 -9.5 -8.7 c-5.2 -4.8 -9.2 -8.2 -8.8 -7.5 1.4 2.3 13.7 46 15.2 54.3 1 5.4 3.6 14 4.2 14 0.2 0 0.2 -1.8 -0.2 -4.1z m425.6 -4.7 c7.3 -20.9 20.4 -51.6 29.7 -69.3 0.1 -0.4 -0.8 -0.6 -2.2 -0.6 -2 0 -2.6 0.7 -3.7 4.4 -1 3.7 -2.5 5.5 -9.8 11.6 -11.7 9.9 -15.7 12.7 -17.6 12.7 -1.6 0 -1.7 1.9 -1.2 22.8 0.3 12.5 0.6 22.8 0.6 23 0.1 0.1 0.7 0.2 1.4 0.2 0.6 0 1.9 -2.2 2.8 -4.8z m-345.4 -13.2 c1.1 -3 3 -8.9 4.2 -13 1.3 -4.1 3.5 -11.5 5.1 -16.5 2.7 -8.6 6 -20.9 6 -22.3 0 -0.4 -1 0.9 -2.2 2.8 -1.2 1.9 -5.8 7.3 -10.2 11.8 -4.9 5.1 -8 9 -7.7 10 0.1 1 0.5 9.1 0.8 18 0.3 9 0.8 16 1.2 15.5 0.4 -0.4 1.6 -3.3 2.8 -6.3z m-436.6 -24.7 c-0.9 -1.6 -9.1 -7 -9.1 -6 0 0.6 7.9 21.9 8.8 23.7 0.4 0.8 0.8 -2.4 1 -7.2 0.1 -4.9 -0.2 -9.6 -0.7 -10.5z m55 7.5 c-1.1 -1.8 -3 -5.1 -4.2 -7.3 -2.8 -5.2 -16 -25.5 -16.5 -25.5 -0.2 0 -0.4 3.3 -0.4 7.3 l0 7.4 4.8 4.6 c7.6 7.4 17.7 16.7 18 16.7 0.2 0 -0.5 -1.5 -1.7 -3.2z m674.9 -16.8 c4.1 -4.7 8.3 -9.4 9.3 -10.5 1 -1 1.5 -2.5 1.3 -3.1 -0.3 -0.7 -1 -3 -1.7 -5.3 -0.7 -2.3 -1.5 -4.1 -1.8 -4.1 -0.4 0 -3.3 5.3 -6.6 11.7 -3.3 6.5 -8.1 15 -10.7 19 -7.9 12.2 -6.7 11.2 10.2 -7.7z m-360.2 -8 c-2.9 -1.6 -10.6 -8.8 -15.6 -14.5 -7.1 -8.2 -21.7 -30 -29.2 -43.5 -16 -29.2 -19.6 -37.2 -29.6 -65.8 -7.9 -22.8 -11.9 -45.8 -10.9 -64 1.3 -25.1 6.7 -41.9 17 -52.6 3.3 -3.4 8.1 -7.9 10.7 -9.9 4.7 -3.8 13.7 -8.7 15.7 -8.7 0.6 0 4.4 -1.1 8.4 -2.5 6.6 -2.4 7.7 -2.5 14.2 -1.5 7.7 1.2 12.6 2.5 16.7 4.6 3.6 1.9 3.8 1.8 3.8 -1.8 0 -2.8 -0.8 -3.8 -4.8 -6.5 -8.6 -5.8 -11.6 -6.7 -20.2 -5.4 -8.5 1.3 -22.6 5.4 -28.5 8.4 -21.1 10.7 -31.4 24.8 -38.2 52.5 -2.4 10.1 -2.5 11.7 -1.9 27.7 0.5 14.7 1.1 19.5 4.6 35.3 2.3 10.9 5 20.5 6.6 23.5 4.7 9.4 7.6 18 7.1 21.3 -0.3 1.8 -0.2 3.6 0.3 4 0.5 0.5 1.5 2.7 2.3 4.9 4 10.9 17.3 39.2 23.2 49.5 13.3 23.1 25.5 37.5 45.7 54.2 l3.3 2.6 0.3 -5.5 c0.2 -3.9 -0.1 -5.8 -1 -6.3z m55.3 3.7 c8.1 -6.1 14.3 -11.9 17.7 -16.9 1.7 -2.4 4 -5.3 5.1 -6.5 1.2 -1.2 2.1 -2.5 2.1 -2.8 0 -0.4 2 -3 4.3 -5.8 10.3 -12.2 31.9 -48.2 40.2 -66.8 1.1 -2.5 2.7 -5.6 3.6 -7 2.8 -4.2 9.8 -27.4 10.3 -34 0.2 -3.5 1.3 -9.1 2.3 -12.4 2.9 -9.5 2.4 -29.1 -1.1 -41.9 -3.7 -13.6 -7.2 -22.3 -14 -34.7 -10.9 -19.9 -26 -35.5 -41.3 -42.7 -5 -2.3 -7 -2.7 -14.4 -2.6 -6.9 0.1 -9.6 0.6 -14.2 2.7 -6.5 3 -7.7 5.1 -2 3.5 9.1 -2.5 24.8 0.1 35.9 6 4.9 2.7 30.5 31 33.6 37.3 7.8 15.8 11.1 28 12.6 46.4 2.5 29.8 -6.3 58.8 -31.6 104.5 -3.5 6.3 -7.8 13.4 -9.5 15.7 -1.8 2.3 -5.7 7.8 -8.7 12.3 -8.8 13 -27.4 35.1 -34.1 40.5 -3 2.3 -3.8 3.7 -3.8 6.3 -0.1 1.7 0.2 3.2 0.7 3.2 0.4 0 3.2 -1.9 6.3 -4.3z m-426 -9.3 c-0.6 -5.2 -2.2 -12.4 -3.6 -16 -3.2 -8.5 -3.3 -14 -0.4 -14.9 2.8 -0.9 6.4 2.6 9.8 9.7 1.4 2.9 3.1 5.3 3.8 5.3 1.4 0 4.1 3.1 10.1 11.5 l4.7 6.4 0.8 -4.9 c0.5 -2.8 1.7 -6 2.9 -7.2 l2 -2.2 -2.2 -3 c-1.2 -1.7 -2.5 -3.1 -3 -3.1 -1.2 0 -17.8 -14.7 -29.3 -25.9 -5.4 -5.3 -10.2 -9.7 -10.7 -9.9 -0.5 -0.2 -0.7 1.8 -0.5 4.5 2 20.2 2.5 28.3 2.5 39.4 l0 12.8 4.8 2.1 c2.6 1.1 5.6 3.2 6.7 4.6 2.6 3.5 2.9 1.9 1.6 -9.2z m797.1 -6.5 c3.3 -2.3 7.1 -4.2 8.3 -4.3 l2.4 -0.1 -3 -5.5 c-1.6 -3 -3.3 -6.7 -3.9 -8.2 -0.9 -2.6 -1.4 -2.8 -6 -2.8 -3.6 0 -5.7 -0.6 -7.1 -1.9 -2 -1.8 -2 -1.9 1.6 -2.5 5.6 -1.1 6.9 -5.2 6 -18.6 -0.4 -5.8 -0.8 -10.6 -0.9 -10.7 -0.9 -1 -8.1 4.2 -10.8 7.8 -3.1 3.9 -10.4 10.6 -26.8 24.3 -3.6 3 -7.6 5.6 -9 5.8 -2.2 0.3 -2.5 0.8 -2.4 4.3 0.1 4.9 2.2 12.5 3.4 12.5 0.4 0 3.1 -3.1 5.9 -7 5.1 -7 8.2 -9.6 10.5 -8.7 1.7 0.7 6.2 -3.5 10.3 -9.6 3.1 -4.4 6.3 -6.2 6.3 -3.4 0 0.6 -1 4.6 -2.3 8.7 -2 6.6 -2.2 9.2 -1.9 21.2 l0.4 13.8 6.5 -5.5 c3.5 -3 9.2 -7.4 12.5 -9.6z m24.6 -27.2 c4.6 -11.7 4.9 -12.7 2.9 -12.1 -2.2 0.7 -11.9 6.3 -12.7 7.4 -0.3 0.4 -1 0.9 -1.6 1.1 -0.8 0.3 -0.4 3.1 1.3 9.4 3.4 12.5 3.4 12.4 4.3 9.5 0.5 -1.4 3.1 -8.3 5.8 -15.3z m-847.3 -3.4 l-0.7 -9.9 -4.4 -2 c-4.2 -2 -4.4 -2 -4.4 -0.2 0 1.9 9.2 22.9 9.8 22.3 0.2 -0.2 0.1 -4.8 -0.3 -10.2z m849.6 -23.9 c1.2 -0.8 1.4 -2.2 0.9 -8.4 -1 -10.3 0.4 -21.1 5 -42 2.2 -9.8 4 -18.1 4 -18.5 0 -0.4 -2.8 2.3 -6.2 6 -7.8 8.5 -37.3 34.5 -39.2 34.5 -0.9 0 -1.5 2.3 -2 8.1 -0.4 4.5 -0.5 8.4 -0.2 8.6 0.3 0.3 2 -0.6 3.8 -2 1.8 -1.3 4.2 -2.8 5.3 -3.1 2.8 -0.9 6.7 -4.5 11 -10.2 5.7 -7.4 7.5 -8.2 7.5 -3.1 0 1.7 -0.7 5.5 -1.6 8.2 -0.9 2.8 -1.7 6.8 -1.9 9 -0.1 2.2 -0.8 7.2 -1.4 11 -0.5 3.9 -1 9.4 -1.1 12.3 l0 5.2 7.3 -7.4 c3.9 -4 7.9 -7.8 8.8 -8.2z m-49.5 3 c0.9 -0.7 1.4 -3.2 1.4 -6.9 0 -5.7 0 -5.8 -2 -4 -1.1 1 -2 2.2 -2 2.7 0 0.5 -0.8 2.1 -1.9 3.6 -4 5.7 -9.1 13.9 -9.1 14.6 0 0.6 5.2 -3.2 13.6 -10z m-771.7 -0.3 c-4.2 -7.3 -5.9 -8.2 -5.9 -3.1 0 2.1 1.2 3.8 4.7 6.9 2.5 2.3 4.8 4 5 3.7 0.2 -0.2 -1.5 -3.5 -3.8 -7.5z m-30.5 -3.3 c-1.3 -8 -2.8 -13.6 -4.5 -16.8 -2.4 -4.3 -2.4 -6.9 -0.2 -8.5 2.4 -1.8 5.8 0 8.3 4.3 2.6 4.3 9 12.2 10 12.2 0.3 0 1.2 -2.1 1.8 -4.7 1 -4.1 0.9 -4.9 -0.5 -5.8 -0.9 -0.5 -4.3 -3.2 -7.5 -6 -3.3 -2.7 -8.4 -7 -11.3 -9.5 -3 -2.5 -6.7 -6.2 -8.2 -8.2 -3.2 -4.2 -4.8 -4.8 -4 -1.5 0.3 1.2 1.4 11.3 2.3 22.5 1.5 16.8 2 20.2 3.3 20.2 0.9 0 3.4 1.1 5.6 2.4 5.3 3.2 5.5 3.1 4.9 -0.6z m869.1 -21.8 c2.1 -4.7 5.5 -13.1 7.6 -18.8 2.2 -5.7 4.6 -11.3 5.3 -12.5 0.8 -1.2 3.3 -8 5.6 -15.2 2.3 -7.1 5.5 -16.1 7 -20 1.6 -3.8 4.4 -11.7 6.3 -17.5 7.5 -22.4 22.3 -61.5 26.7 -70.5 1.1 -2.2 2.6 -5.8 3.4 -8 0.8 -2.2 2.4 -6.4 3.5 -9.4 l2.2 -5.4 -2.3 0.7 c-1.3 0.3 -4.4 0.6 -6.9 0.6 l-4.5 0 -8.5 12.2 c-4.7 6.8 -10.7 15.7 -13.3 19.8 -2.7 4.1 -6.8 10.4 -9.1 14 -2.4 3.6 -8.9 14.2 -14.5 23.5 -17 28.1 -22.9 37.8 -26.1 42.5 -3.7 5.5 -17.1 25.9 -18.4 27.9 -1.7 2.8 5 -2.7 11.6 -9.6 3.6 -3.7 9.3 -10.2 12.7 -14.4 3.3 -4.1 8.6 -10.2 11.7 -13.5 3.1 -3.2 7 -8.6 8.7 -11.9 1.7 -3.3 4.7 -8.2 6.7 -11 2.1 -2.7 5 -6.9 6.5 -9.3 3.2 -5.2 5.2 -5.1 4.8 0.2 -0.4 5.8 -2.8 11.9 -10.4 27.1 -4.1 8.3 -7.6 16.6 -8.4 20.5 -0.7 3.6 -3 12.8 -5 20.5 -6.2 24.5 -9.3 40.1 -9.3 47 l0 5 1.4 -3 c0.8 -1.6 3 -6.8 5 -11.5z m-896.9 -28.3 c-0.9 -5.2 -2 -10.7 -2.6 -12.2 -0.5 -1.4 -1 -4 -1 -5.6 0 -1.7 -0.7 -4.4 -1.7 -6.2 -3.8 -7.4 -5.8 -18.7 -3.3 -18.7 1.5 0 6.6 7.3 10.5 14.7 2.2 4.4 6.8 10.5 11.4 15.5 4.2 4.6 9.2 10.2 11 12.6 6.2 7.9 4.9 4.2 -2 -6 -3.8 -5.6 -6.9 -10.6 -6.9 -11 0 -0.5 -1.8 -3.3 -4.1 -6.3 -2.3 -3 -5.9 -8.9 -8.1 -13.2 -2.1 -4.3 -5 -8.9 -6.3 -10.3 -1.3 -1.4 -3 -3.6 -3.7 -5 -0.7 -1.4 -4.3 -7 -7.9 -12.5 -8.1 -12.1 -13.8 -21.4 -17.3 -27.9 -3.1 -5.6 -10.9 -15.2 -11.3 -13.9 -0.2 0.5 1 4.7 2.7 9.4 1.8 4.6 4.2 11.6 5.4 15.4 1.3 3.9 3.4 9.7 4.8 13 1.3 3.3 3.7 9.4 5.3 13.5 5.2 13.9 15.6 40.4 18.4 47 1.6 3.6 3.9 9 5.2 12.2 1.3 3.1 2.5 5.5 2.7 5.3 0.2 -0.1 -0.4 -4.5 -1.2 -9.8z m321.7 -63.9 c-0.6 -9.6 -0.8 -10.5 -3.5 -13 -1.5 -1.4 -2.8 -3.1 -2.8 -3.7 0 -0.6 -2.4 -6.8 -5.4 -13.8 -3 -7.1 -7.8 -18.9 -10.6 -26.3 -2.9 -7.4 -7.2 -17.4 -9.7 -22.2 -2.4 -4.7 -4.3 -9.5 -4.1 -10.5 0.2 -1.3 -0.4 -1.9 -2.4 -2.1 -1.6 -0.2 -2.8 0.2 -2.8 0.8 0 0.6 1.5 4.1 3.4 7.8 1.8 3.7 3.9 8.5 4.6 10.7 0.7 2.2 4.1 9.9 7.5 17 8.2 17 13.2 29.3 23 57.8 1.5 4.2 2.9 7.7 3.1 7.7 0.2 0 0 -4.6 -0.3 -10.2z m259.6 4 c0.7 -1.8 4.1 -11.4 7.6 -21.3 3.5 -9.9 8.5 -23.6 11 -30.5 2.6 -6.9 5.2 -14.7 6 -17.5 1.2 -4.6 5.5 -17.8 7.1 -21.9 0.6 -1.5 0.1 -1.7 -3.1 -1.4 l-3.7 0.3 -2.8 8.5 c-1.5 4.7 -4.2 12.8 -6 18 -1.7 5.2 -4.9 15.6 -7 23 -6.2 21.4 -10.3 33 -11.9 33 -1 0 -1.2 0.9 -0.7 3.8 0.3 2 0.6 4.9 0.6 6.5 0 3.6 1.3 3.4 2.9 -0.5z m-6.4 -28.5 c1 -3.5 1.1 -3.8 2.4 -9.7 0.7 -2.7 3.1 -10.8 5.5 -18 4 -12 9.5 -29 11 -34.3 0.7 -2.1 0.6 -2.1 -12.6 -2 -7.3 0.1 -22.6 -0.2 -34 -0.6 -12 -0.4 -20.8 -0.4 -20.8 0.1 0 0.5 2.2 2.1 4.9 3.5 3.2 1.8 7.4 5.7 12.2 11.5 4 4.8 7.9 9.3 8.6 10 4 4.2 17.2 29.7 19.3 37.5 1.4 5.4 2.4 5.9 3.5 2z m-249.1 -13.5 c4.3 -14.6 9.5 -24.9 17.9 -35 2.2 -2.6 4.9 -5 6.1 -5.4 1.1 -0.4 3.5 -2.1 5.1 -3.8 1.7 -1.7 4.8 -4.1 7 -5.3 l4 -2.2 -11.5 -0.1 c-6.3 0 -22 -0.2 -34.7 -0.4 -12.8 -0.2 -23.3 -0.2 -23.3 0.1 0 0.2 1.6 3.5 3.5 7.1 1.9 3.7 4.6 9.6 6 13.2 1.4 3.6 3 7.4 3.5 8.5 0.5 1.1 3.4 8.5 6.5 16.3 5.7 14.9 6.4 16.6 7.1 16 0.2 -0.3 1.5 -4.3 2.8 -9z m648 -57.7 l11 -0.6 1.3 -3.2 c1.6 -4 1.2 -4.1 -9.2 -1.8 -3.9 0.9 -13 1.8 -20.4 2.1 -12.4 0.4 -16.1 1.2 -16.1 3.5 0 1.1 9.2 1.7 16.5 1.1 3.3 -0.3 10.9 -0.8 16.9 -1.1z m-357.1 -4.5 c6.3 -2.9 -4.2 -3.5 -54.8 -3.6 -22.5 0 -50.2 -0.5 -61.5 -1 -29.2 -1.3 -27 -1.5 -27 1.6 0 2.7 0 2.7 6.3 2.2 3.4 -0.3 15 0 25.7 0.7 21.5 1.2 108.5 1.3 111.3 0.1z m-217.2 -1.3 l27.7 -0.3 0 -2.4 0 -2.4 -47.7 -0.2 c-26.2 0 -61 -0.2 -77.4 -0.3 -16.3 -0.1 -29.7 0 -29.7 0.3 0 0.3 0.6 1.5 1.4 2.6 1.3 1.9 2.6 2 19.2 2.2 9.8 0.2 17.9 0.4 18 0.5 0.3 0.3 54.4 0.3 88.5 0z m-466.8 -2.4 c8.5 -0.1 9.8 -0.4 9.5 -1.8 -0.3 -1.4 -2.3 -1.6 -14.6 -1.9 -8.4 -0.1 -14.2 0.1 -14.2 0.7 0 3.1 1.3 4 5.3 3.6 2.3 -0.2 8.6 -0.5 14 -0.6z"/>
  <path d="M425.5 900.4 c-8.4 -2.7 -13.9 -7.6 -17.4 -15.8 -4.4 -10.1 -4.8 -15 -1.8 -20.6 3.4 -6.3 6.7 -6.6 9.8 -1.1 2.4 4.3 5.4 5.6 11.9 5.2 6.2 -0.4 9 -1.9 17.1 -8.9 9.1 -8 17.5 -32 21.1 -60.2 2.3 -18.7 0.8 -88.6 -2.2 -98.5 -0.5 -1.6 -1.6 -7.5 -2.5 -13 -0.8 -5.5 -2.2 -11.8 -3 -14 -0.8 -2.2 -1.4 -5.8 -1.5 -8 0 -2.2 -0.9 -6.9 -2.1 -10.5 -1.1 -3.6 -3.1 -11.2 -4.5 -17 -3.9 -16.9 -5.5 -22.2 -8 -27.6 -1.3 -2.8 -2.4 -5.6 -2.4 -6.2 0 -2.1 -12.9 -40.2 -15.1 -44.4 -1.2 -2.3 -3 -6.5 -4 -9.3 -3.7 -10.5 -6.7 -18.2 -8.7 -22.6 -1.2 -2.5 -3.1 -7 -4.2 -10 -1.2 -2.9 -3.2 -7.7 -4.6 -10.7 -1.3 -2.9 -2.4 -5.5 -2.4 -5.8 0 -0.9 -17.8 -38.9 -25.2 -53.9 -3.9 -7.7 -8.8 -17.5 -10.9 -21.9 -2.1 -4.3 -3.9 -8.3 -3.9 -9 0 -0.6 -2.9 -6 -6.4 -12.1 -11.2 -19.3 -18.4 -32 -39.1 -69.5 -8.4 -15.2 -19 -35.1 -21.4 -40 -1.2 -2.5 -4.8 -9 -8.1 -14.5 -3.3 -5.5 -6.6 -11.4 -7.4 -13.1 -0.9 -1.8 -2.6 -4.5 -3.9 -6 -1.3 -1.6 -4.3 -6.5 -6.7 -10.9 -5.5 -10.2 -15.6 -27.1 -18.5 -31 -1.2 -1.6 -4.5 -7.3 -7.4 -12.5 -8.2 -15.1 -18.1 -30.4 -28.6 -44.5 -2.5 -3.3 -7 -9.6 -10.1 -14 -3 -4.4 -7.8 -11.1 -10.5 -15 -2.8 -3.8 -6.6 -9.2 -8.4 -12 -1.9 -2.7 -5.5 -7.9 -8 -11.5 -2.4 -3.6 -6.5 -9.5 -9 -13.3 -2.4 -3.7 -7.1 -10.2 -10.3 -14.5 -3.2 -4.2 -6.6 -9 -7.7 -10.7 -1.6 -2.6 -7 -9.2 -13.9 -17 -1.1 -1.2 -2 -3.2 -2.1 -4.5 -0.4 -4.7 1.3 -4.8 68.5 -4.8 55.6 0 62.8 0.2 66.2 1.6 3.7 1.6 6.8 6 6.8 9.6 0 0.8 1.1 4.4 2.4 7.8 1.2 3.5 4 12.1 6.1 19.2 2 7.1 5 16.1 6.5 20 1.5 3.9 3.8 11.4 5 16.6 1.2 5.2 3.5 12.9 5 17 6.4 17.6 9 25.6 20.9 65.5 2.3 7.7 5.8 18.3 7.7 23.5 2 5.2 4.4 12.4 5.4 16 5.6 19.1 24.9 73.4 28.5 79.9 0.8 1.4 2.4 5.4 3.5 8.9 1.1 3.5 3.7 9.8 5.6 14 2 4.2 4.9 10.5 6.5 14 1.6 3.4 2.9 7 2.9 7.9 0 1.7 5.4 15.3 10 24.8 3.7 7.8 8.6 19.3 9.5 22.5 0.4 1.4 2 5.2 3.5 8.5 1.6 3.3 4.4 9.4 6.4 13.5 1.9 4.1 5.3 10.9 7.5 15 2.2 4.1 4.7 9.1 5.5 11 2.1 4.6 11.7 20.4 15.5 25.5 8.4 11.3 27 27.7 35.6 31.4 1.7 0.7 5.3 2.7 8 4.6 6.8 4.5 17.4 7.9 22.4 7.2 6.6 -0.8 13 -5.3 15.3 -10.6 1.1 -2.5 2.2 -5.9 2.5 -7.6 0.7 -3.7 3 -6.5 5.3 -6.5 3.2 0 5.8 3.4 7.4 10 1.8 7.3 8.8 58.9 10.6 78 1.2 13.7 2.9 59.9 2.4 67 -0.2 2.5 -0.8 9.9 -1.3 16.5 -0.6 6.6 -1.3 16.1 -1.6 21.2 -0.2 5.1 -1 11.4 -1.6 14 -0.5 2.6 -1.4 8.4 -1.9 12.8 -2.8 27.6 -6.8 48.2 -13.6 70 -1.9 6.1 -3.4 11.4 -3.4 11.8 0 1.5 -10.2 27.3 -13 32.7 -1.6 3 -3.2 6.6 -3.5 7.9 -0.8 2.6 -14.8 21.6 -20.1 27.1 -1.9 2 -3.4 4.1 -3.4 4.7 0 4 -13.9 13.7 -24 16.8 -3 1 -7.4 2.4 -9.8 3.1 -6.9 2.3 -19.9 2.6 -25.7 0.8z m28.8 -10.9 c7.5 -2.6 12.6 -6.7 23.5 -19.2 14.9 -16.9 20.2 -25.3 29.5 -46.3 2.4 -5.5 12.6 -35.9 14.1 -42 0.8 -3 2.5 -9.8 3.9 -15 1.3 -5.2 2.7 -13 3.1 -17.2 0.4 -4.3 1.1 -9.9 1.7 -12.5 0.5 -2.6 1.4 -7.9 1.8 -11.8 0.5 -3.8 1.6 -10.8 2.5 -15.5 0.8 -4.7 1.7 -13.4 2 -19.5 0.3 -6 0.9 -14.4 1.5 -18.5 1.3 -9.4 0.7 -60.6 -0.9 -75.5 -0.6 -6 -1.6 -15 -2.1 -20 -0.6 -4.9 -1.4 -13.9 -2 -19.9 -0.5 -6 -1.1 -11.1 -1.2 -11.3 -0.2 -0.2 -1.4 0.6 -2.6 1.6 -1.3 1.1 -2.7 2.1 -3.3 2.3 -0.7 0.3 -0.2 3.4 1.2 8.3 1.2 4.4 2.8 14.8 3.6 23 0.8 8.3 1.8 17.5 2.3 20.5 1.7 10 2.1 27.3 1.1 42.5 -0.6 8.3 -1.4 23.1 -1.9 33 -0.5 9.9 -1.2 19.4 -1.5 21 -0.5 3.2 -1.7 11.4 -4.1 29 -0.9 6.1 -2.1 13.7 -2.7 17 -1.4 7.8 -8.7 38 -10 41.4 -0.5 1.4 -1.3 4.7 -1.8 7.3 -0.5 2.6 -3 10.2 -5.6 17 -2.6 6.8 -5.8 15.5 -7.2 19.3 -1.4 3.9 -4.2 9.5 -6.2 12.5 -2 3.1 -3.9 6.2 -4.2 7 -0.3 0.8 -3.3 5.2 -6.6 9.7 -10.2 13.7 -26.7 29 -35.5 32.8 -5.5 2.4 0.1 1.7 7.6 -1z m-19.9 -11 c10.1 -1.9 14.7 -4.7 22.5 -13.3 8.3 -9.2 9.9 -12.1 16.7 -29.7 1.4 -3.8 3.4 -8.6 4.4 -10.5 0.9 -1.9 2 -6.6 2.4 -10.5 0.3 -3.8 1.3 -10.1 2.1 -13.9 3 -14 4.7 -34.6 4.2 -49.1 -1 -26.6 -8.4 -87.9 -11.1 -92.3 -0.3 -0.5 -1.5 -6.2 -2.6 -12.7 -2.6 -14.5 -7.3 -31.8 -16.1 -58.5 -7.4 -22.2 -10.4 -30 -16.7 -42.8 -2.3 -4.6 -5.1 -11.2 -6.2 -14.8 -1.5 -5 -3.4 -8 -8.4 -13.8 -3.5 -4.1 -7.7 -9.3 -9.2 -11.5 -1.4 -2.3 -2.8 -4.1 -2.9 -4.1 -0.1 0 2.2 6 5.2 13.3 3 7.2 6.3 15.5 7.3 18.2 5.8 15.3 10.5 28.1 13.6 37 1.9 5.5 4.1 11.4 4.8 13 0.8 1.7 2.2 5.9 3.1 9.4 0.9 3.6 2.9 9.3 4.5 12.7 1.5 3.4 3.8 9.7 5 14 1.2 4.4 2.6 8.8 3.1 9.9 0.6 1.1 1.6 5.4 2.4 9.5 0.7 4.1 2.3 10.8 3.4 14.7 1.2 4 2.1 9.2 2.1 11.5 0 2.4 0.5 5.9 1 7.8 5.6 18.7 10.1 67.4 9.4 101 -0.3 15.8 -3 40 -5.4 48.5 -0.6 2.2 -1.5 5.8 -2 8 -1.3 6 -5.8 18.6 -7.3 20.4 -0.7 0.9 -2.1 3.2 -3.1 5.1 -4.9 9.1 -9.8 13.2 -20.8 17.7 -6.2 2.5 -19.5 3.7 -23.6 2.2 -2 -0.8 -2.3 -0.6 -2 1.3 0.5 3.9 7.6 4.7 20.2 2.3z m52 -48 c0.9 -1.4 1.3 -2.5 0.8 -2.5 -0.5 0 -1.4 1.1 -2 2.5 -0.6 1.4 -1 2.5 -0.8 2.5 0.2 0 1.1 -1.1 2 -2.5z m20.5 -60.5 c2.8 -13.5 3.1 -37 0.6 -43.2 -0.8 -2 -3.2 -3 -5.5 -2.3 -3.5 1.1 -4.3 5.4 -4.6 25.8 -0.1 10.8 -0.1 19.7 0.1 19.7 0.2 0 1.1 -3.4 2 -7.5 0.9 -4.1 2 -7.5 2.5 -7.5 0.9 0 2 8.6 2 17 0.1 7.4 1.1 6.6 2.9 -2z m-5.7 -72.5 c0.4 -17.7 1.8 -22 3.9 -11.6 1.5 7.3 2.7 6.2 3.6 -3.3 0.7 -7.5 2.5 -8 4.2 -1 0.6 2.4 1.5 4.4 2 4.4 1.2 0 0.4 -15 -1 -20.2 -2 -7.8 -7.4 -13.8 -12.2 -13.8 -3.8 0 -8 17.3 -6.7 27.5 0.5 3.3 1.6 12.2 2.6 19.8 0.9 7.5 2.1 13.7 2.5 13.7 0.4 0 0.9 -7 1.1 -15.5z m-13.2 -41.9 c0 -0.8 -0.4 -1.8 -1 -2.1 -0.5 -0.3 -1 0.3 -1 1.4 0 1.2 0.5 2.1 1 2.1 0.6 0 1 -0.6 1 -1.4z m34 -2.7 c0 -1 -0.7 -1.9 -1.5 -1.9 -1.6 0 -1.9 0.9 -0.9 3.4 0.8 2 2.4 1.1 2.4 -1.5z m-27.4 -8.7 c0.8 -0.5 0.9 -2.5 0.3 -6.2 -0.4 -3 -0.8 -8.3 -0.8 -11.8 -0.1 -5.4 0.2 -6.3 1.5 -6 1.8 0.3 2.9 1.8 4.4 6.2 1.7 4.8 2.2 2.2 1 -5.5 -0.7 -4.1 -1.4 -8.9 -1.7 -10.7 -0.5 -2.9 -0.3 -3.3 1.2 -3 1.2 0.2 2.6 2.5 4 6.8 1.2 3.6 2.9 7.9 3.8 9.5 0.9 1.7 2.7 6.8 4.1 11.5 l2.6 8.5 -0.3 -15 c-0.2 -14.9 -0.2 -15.1 -3.6 -22 -4.6 -9.2 -10.8 -15.5 -15.4 -15.5 -6.3 0 -9.3 1.8 -11.5 6.7 -3.4 8 -2.2 16 6.4 42.1 1.8 5.4 2.1 5.7 4 4.4z m10.3 -2.9 c0 -1 -0.4 -2.7 -0.9 -3.8 -0.7 -1.6 -0.9 -1.3 -0.9 1.8 -0.1 2 0.4 3.7 0.9 3.7 0.6 0 1 -0.8 0.9 -1.7z m16.1 -40 c0 -1.9 -0.3 -2.4 -1 -1.7 -0.6 0.6 -0.8 1.8 -0.4 2.7 0.9 2.4 1.4 2.1 1.4 -1z m-40.7 -12.7 c1.3 -1.2 2.9 -2.5 3.7 -2.8 1.1 -0.3 1.1 -1 0.2 -3.8 -1.6 -4.5 -1.5 -9 0.1 -9 0.7 0 1.9 2.2 2.6 5 0.8 3.1 1.8 5 2.7 5 1.1 0 1.4 -0.8 1 -3.2 -1.9 -11.8 0.3 -13.2 5.4 -3.4 2.3 4.5 4 6.6 5.7 7.1 1.3 0.3 4.2 2.2 6.4 4.2 2.2 2 4.2 3.3 4.5 3 1.6 -1.5 -0.1 -19.5 -2.3 -25.2 -3.7 -9.7 -3.1 -9.4 -16.3 -9.6 -4.6 -0.1 -10.7 -0.7 -13.5 -1.4 -4.5 -1.2 -5.1 -1.2 -6 0.3 -3.7 6.2 -4.3 12.9 -2.1 23.4 1.3 6 4 12.8 5.1 12.8 0.2 0 1.5 -1.1 2.8 -2.4z m-15.6 -40.9 c-0.7 -0.4 -2.5 -1.5 -4.2 -2.4 -1.6 -0.9 -4.9 -2.9 -7.2 -4.4 l-4.2 -2.9 5.5 11.4 c3 6.3 5.4 12.1 5.4 12.9 0 0.7 0.3 1.7 0.7 2.1 0.4 0.4 1.7 -3 2.9 -7.6 1.6 -6.1 1.9 -8.5 1.1 -9.1z m47.6 -2.3 c2.6 -0.9 4.7 -2 4.7 -2.5 0 -0.5 0.9 -0.9 1.9 -0.9 1.8 0 11.1 -8.3 11.1 -9.8 0 -0.4 -0.4 -1.4 -1 -2.2 -0.8 -1.2 -1.1 -1.2 -2.8 0.3 -1 0.9 -2.2 1.7 -2.5 1.7 -0.4 0 -2.7 1.5 -5.1 3.4 -5.4 4.1 -14.8 6.2 -23.2 5.1 -5.6 -0.7 -22 -8 -29.4 -13 -1.9 -1.4 -5.7 -3.9 -8.3 -5.7 -9.7 -6.6 -14.6 -10.8 -20.2 -17.4 -5.5 -6.5 -7.8 -9.9 -19.3 -27.9 -7.7 -12.2 -30.5 -59.9 -34.2 -71.6 -0.4 -1.5 -1.5 -3.8 -2.4 -5.2 -1.9 -2.8 -8 -16.8 -10.3 -23.7 -2.8 -8.4 -8.3 -21.7 -12.8 -31.5 -2.5 -5.3 -4.5 -10.2 -4.5 -11 0 -0.7 -1.8 -5.1 -3.9 -9.7 -4.1 -8.6 -7.9 -18.1 -11.2 -28.1 -1 -3.2 -3.1 -8.8 -4.5 -12.4 -1.5 -3.6 -5.3 -14.7 -8.5 -24.7 -3.2 -10 -7.6 -23.5 -9.8 -30.1 -2.2 -6.6 -6.3 -19.4 -9.1 -28.5 -6.1 -19.7 -14.6 -46.5 -20.6 -64.8 -2.4 -7.4 -4.4 -14.1 -4.4 -14.9 0 -0.9 -2 -6.8 -4.3 -13.2 -2.4 -6.4 -5.9 -16.9 -7.8 -23.3 l-3.4 -11.8 -5.2 0 c-3 0 -5.3 0.5 -5.3 1 0 0.6 1.6 6.1 3.5 12.3 2 6.2 4.4 13.9 5.4 17.2 2.6 8.3 13 35.9 18.4 48.6 2.4 5.8 5.7 15 7.1 20.5 3.2 11.5 5.8 20.4 12 40.4 2.5 8 5 16.5 5.5 19 0.6 2.5 3.1 10.6 5.6 18 2.5 7.4 5.7 17.3 7 22 1.3 4.7 3.4 11 4.8 14 1.3 3 3.2 8 4.2 11 1 3 3.3 8.9 5.2 13 5.2 11.2 9.7 22.3 13.6 33.5 3.3 9.3 4.9 13.3 11.3 27.2 1.3 2.8 2.4 5.4 2.4 5.7 0 3.5 23.5 57.3 28.3 64.8 1.8 2.9 4.5 7.6 5.9 10.3 1.3 2.8 4.5 9.1 7 14.1 5.3 10.4 9.9 17.8 17.7 28.4 18.8 25.3 27.8 33.4 51.6 46.3 9 4.9 12.2 6.1 17.5 6.7 11.2 1.2 17.5 1.1 22.3 -0.6z m-175.2 -197.6 c-5.3 -15.1 -10.4 -26.1 -19.2 -41.3 -2.2 -3.8 -5.1 -9.5 -6.5 -12.5 -1.4 -3 -5.3 -11.1 -8.6 -18 -3.4 -6.9 -7.8 -16.1 -9.9 -20.5 -4.4 -9.1 -14.9 -28.5 -16.5 -30.6 -0.6 -0.8 -3 -5 -5.4 -9.4 -2.3 -4.4 -5 -9.1 -5.9 -10.5 -1 -1.4 -3.5 -5.6 -5.6 -9.5 -2.1 -3.8 -6.4 -10.8 -9.5 -15.5 -3.2 -4.7 -8.3 -12.5 -11.5 -17.5 -8.6 -13.5 -12.2 -18.8 -14.3 -21 -1 -1.1 -4.1 -5.5 -7 -9.7 -2.9 -4.2 -7.5 -10.8 -10.3 -14.5 -2.8 -3.7 -8.5 -12 -12.7 -18.3 -4.2 -6.3 -10.5 -14.4 -13.9 -17.8 -3.5 -3.5 -6.3 -6.9 -6.3 -7.6 0 -0.8 -1.8 -1.3 -5 -1.5 -2.7 -0.1 -5 0.1 -5 0.3 0 0.3 1.7 2.5 3.8 5 4 4.8 5.2 6.4 14.2 20.1 3.3 5 8.3 12.2 11 16 2.8 3.9 5.8 8.3 6.8 9.8 2.4 4 15.5 22.5 19.2 27.2 8.1 10.4 15 20.4 21 30.1 4.8 7.8 11.3 18.6 16.3 26.9 1.6 2.8 6.6 10.9 10.9 18 4.4 7.2 9.6 16.2 11.5 20 1.9 3.9 4.3 7.9 5.2 9 2 2.3 6 9.2 10.3 17.9 1.6 3.3 4.4 8 6.1 10.5 1.7 2.6 5.2 8.7 7.8 13.6 8.7 16.9 16.1 31 16.9 32 0.7 0.9 7.3 13.2 11.4 21.3 2.5 4.8 2.7 3.9 0.7 -2z m-41.6 -115.4 c-1.5 -5.4 -3.9 -13.9 -5.4 -18.9 -4.3 -13.6 -8.9 -28.5 -10.2 -33 -1.7 -6 -2.6 -6.2 -3.2 -0.8 -0.5 4.1 0 5.9 3.3 13.1 6.7 14.2 6.4 23.1 -0.3 11.6 -1.6 -2.7 -3.3 -5.1 -3.7 -5.4 -0.4 -0.3 -2.2 -3.2 -3.9 -6.5 -1.8 -3.2 -3.9 -6.7 -4.8 -7.7 -2.8 -3.1 -3.4 -1.9 -1 2 1.3 2 5.5 9.3 9.2 16.2 3.8 6.9 7.6 13.7 8.6 15.1 1 1.5 4.4 7.7 7.5 13.9 3 6.1 5.8 11 6 10.7 0.2 -0.2 -0.7 -4.9 -2.1 -10.3z m-27.9 -73.4 c-0.1 -11.7 -0.3 -13.1 -2.1 -14.4 -1.9 -1.4 -2 -1.2 -2.8 2.1 -0.4 2 -0.3 5.8 0.1 8.4 0.5 2.7 0.5 5.3 0 6.1 -0.9 1.3 -2 0.3 -5.8 -5.1 -0.8 -1.2 -3.2 -3.3 -5.3 -4.7 -3.1 -2 -3.8 -2.2 -4.2 -0.9 -0.3 0.8 -0.7 2.2 -1 3.1 -0.7 2.2 2.4 7.2 5 7.8 1.2 0.3 5.3 2.8 9.1 5.6 3.8 2.7 6.9 5 7 5 0.1 0 0.1 -5.8 0 -13z m-16.7 -49.4 l-2.8 -3 -1.1 3 c-0.6 1.6 -1 6.2 -0.8 10.3 0.4 8.8 -0.7 9.8 -4.7 4.1 -1.5 -2.2 -3.3 -4 -4 -4 -0.7 0 -2.4 -1 -3.9 -2.1 -1.5 -1.2 -2.9 -2 -3 -1.8 -0.2 0.2 -0.1 2.8 0.1 5.7 0.5 4.3 1 5.5 2.7 6.2 1.2 0.4 4.3 2.4 6.8 4.3 2.6 2 6.4 4.5 8.5 5.5 l3.8 2 0.6 -13.6 0.6 -13.7 -2.8 -2.9z m-32.8 0.2 c-1.8 -1 -4 -2.3 -4.9 -3 -2.2 -1.9 -1.3 -0.1 3.3 6.3 l4 5.6 0.5 -3.6 c0.5 -3.3 0.2 -3.7 -2.9 -5.3z m18.9 -2.8 c0 -0.6 0.9 -2.9 1.9 -5.3 1.1 -2.3 2.5 -6.8 3.2 -9.9 l1.2 -5.7 -4.8 -5.8 c-6.5 -7.8 -7.2 -8.3 -12.2 -8.3 -4.7 0 -4.8 0.1 -3.2 3.2 0.6 1.1 1.3 3 1.5 4.2 0.2 1.1 0.6 3.5 1 5.2 0.8 4.3 -1.3 5.5 -3.9 2.3 -1 -1.3 -2.2 -2.2 -2.6 -1.9 -0.8 0.6 -6 -9 -6.1 -11.1 0 -1.4 -3.8 -3.4 -4.7 -2.5 -0.2 0.2 0.3 2.3 1.1 4.7 0.8 2.4 2.1 7.9 2.9 12.2 0.8 4.3 1.6 7.9 1.8 8 0.2 0.1 1.8 1.1 3.4 2.3 1.7 1.1 4.6 2.6 6.5 3.2 1.9 0.7 5.3 2.3 7.5 3.7 4.4 2.7 5.5 3 5.5 1.5z m-34.4 -20 c-0.7 -3.6 -1.6 -7.5 -2 -8.7 -0.4 -1.2 -0.2 -3.1 0.4 -4.3 1 -1.9 0.8 -2 -7.2 -2 l-8.2 0 4.5 4.8 c5.3 5.6 10.9 12.7 10.9 13.9 0 0.9 2.2 3.5 2.6 3 0.1 -0.1 -0.4 -3.1 -1 -6.7z m59.6 -27.5 c-0.2 -1.4 -1.1 -2.5 -2.1 -2.5 -9.8 0 -104.1 0 -105.5 0 -1.9 0 -1.9 0.1 -0.1 2 1.8 2 2.7 2 31.9 1.6 16.6 -0.3 33.9 -0.2 38.6 0.3 4.7 0.4 15.1 0.9 23.1 1 l14.6 0.1 -0.5 -2.5z"/>
  <path d="M767 897.1 c-1.4 -0.5 -4.1 -0.9 -6.1 -1 -8.6 -0.2 -27.2 -12.1 -36.7 -23.3 -2.9 -3.5 -7.8 -10.1 -10.9 -14.8 -3.1 -4.7 -6.9 -10 -8.4 -11.8 -1.6 -1.8 -2.9 -3.7 -2.9 -4.2 0 -0.5 -1.3 -3.1 -2.8 -5.7 -1.6 -2.6 -3.3 -6.1 -3.9 -7.8 -0.6 -1.6 -2.8 -6.8 -4.8 -11.5 -8.7 -20 -11.8 -30.5 -17.8 -60.2 -3.1 -15.1 -4.3 -23.9 -6.1 -43.8 -0.3 -2.5 -0.9 -8.6 -1.5 -13.5 -0.5 -5 -1.2 -15.6 -1.6 -23.7 -0.3 -8.1 -0.9 -16.6 -1.3 -19 -0.4 -2.4 -0.7 -14.2 -0.6 -26.3 0.2 -25.8 2.2 -45 8.9 -87.5 2.3 -14.8 3.4 -22.4 4.5 -30.9 1.2 -9.1 2 -10.2 6.3 -9 1.8 0.5 3.3 0.9 3.3 0.9 0.1 0 0.4 -1.4 0.6 -3 0.4 -2.7 0.2 -3 -2.3 -3 -3.5 0 -5.1 -2.1 -5.4 -7.3 -0.3 -4.7 1.1 -11.7 7.9 -38.7 6.3 -25.4 7.5 -29.7 9.7 -35.8 1 -3 2.6 -8.3 3.4 -11.9 0.8 -3.6 3.3 -12 5.4 -18.7 7.9 -24.3 12.1 -38.2 12.1 -39.6 0 -0.7 0.4 -2.7 1 -4.4 0.5 -1.7 3.7 -12.5 6.9 -24.1 3.3 -11.5 8 -27.1 10.6 -34.5 2.5 -7.4 5.4 -16.8 6.4 -20.8 1.1 -4.1 2.4 -7.9 3 -8.5 0.6 -0.6 1.1 -1.9 1.1 -2.9 0 -0.9 0.6 -3.2 1.4 -5 0.8 -1.8 2.1 -4.9 3 -6.8 0.8 -2 2.8 -8.3 4.4 -14 1.7 -5.8 4.4 -13.2 6 -16.5 1.6 -3.3 4.9 -11.8 7.2 -19 2.3 -7.1 5.5 -16.4 7 -20.5 1.6 -4.1 5.9 -15.4 9.5 -25 3.6 -9.6 7.9 -20.9 9.5 -25 1.6 -4.1 4.3 -12.7 6 -19 1.8 -6.3 4.7 -16 6.5 -21.5 1.9 -5.5 4.1 -12.7 5 -15.9 2.6 -9.4 3.6 -10.5 9.8 -10 15.9 1.3 41.2 2.4 55 2.3 10.3 -0.1 16.2 0.2 17.1 1 1.7 1.4 0.9 5.7 -1.3 7.4 -0.9 0.7 -1.7 2.6 -1.8 4.2 -0.2 1.7 -0.5 6 -0.8 9.7 -0.3 3.6 -1.2 8.6 -2.1 11 -1.6 4.4 -4.9 15.9 -8.9 30.8 -1.2 4.7 -3.8 13.7 -5.8 20 -1.9 6.3 -5 16.2 -6.7 22 -1.7 5.8 -4.3 13.9 -5.6 18 -2.6 7.9 -7.5 23.9 -9.9 32.7 -0.8 2.9 -2.8 8.8 -4.4 13 -3 7.8 -6.8 19.6 -17.5 53.8 -3.1 9.9 -6.5 20.3 -7.6 23 -6.2 16.6 -12.4 32.1 -13 33 -0.5 0.6 -2.4 5.7 -4.4 11.5 -3 9 -10.2 29.8 -15.1 43.5 -11.2 31.7 -31.5 76.5 -40.5 89.5 -1 1.4 -2.9 4.8 -4.4 7.5 -6 11.4 -16.5 22.8 -22.7 24.6 -4.7 1.4 -11.7 0.4 -14.7 -2.1 -5.7 -4.7 -4.5 -14.7 1.5 -13.1 1.9 0.5 2.9 1.5 3.2 3.2 0.1 1.3 0.8 2.7 1.4 3.1 1.6 1 5.5 -0.9 8.2 -3.9 2.9 -3.3 3.4 -10.7 1 -15.3 -4 -7.7 -20.1 -3 -26.9 7.9 -1.4 2.2 -3.4 4.5 -4.4 5.3 -2.9 2 -3.5 7.2 -1.3 12.1 1 2.3 2.4 6 3.1 8.2 1.8 5.8 6 11.2 9.9 13.1 2.7 1.3 5.3 1.5 11.5 1.1 6.9 -0.4 9.2 -1.1 15.1 -4.2 13.4 -7.2 26.7 -20.7 41.3 -42.3 3.5 -5.1 18.2 -33.9 18.2 -35.6 0 -0.4 4.8 -11 9 -20.1 2.1 -4.5 6.5 -14.9 11.6 -27.4 1.8 -4.6 3.8 -8.9 4.2 -9.5 0.5 -0.6 1.9 -3.8 3 -7.1 1.1 -3.3 2.7 -7.3 3.6 -9 1.3 -2.8 3.6 -8.6 16.3 -41.5 10.2 -26.6 14.7 -38.9 16.3 -45 1 -3.6 2.8 -9 4 -12 3 -7.5 10.8 -29.5 12.4 -35 4 -13.6 21.2 -63.9 24.2 -70.7 0.8 -1.7 1.4 -3.7 1.4 -4.5 0 -1.2 1.3 -5.6 6.4 -21.8 0.8 -2.5 2.4 -7.9 3.6 -12 1.2 -4.1 5.3 -17.2 9 -29 3.8 -11.8 7.6 -24 8.4 -27 1.3 -4.9 4.2 -13.5 6.1 -18.1 0.3 -1 2.1 -2 3.8 -2.5 1.8 -0.4 31.3 -0.8 65.7 -0.8 47.1 -0.1 63 -0.5 64.7 -1.4 1.2 -0.6 2.8 -0.9 3.6 -0.6 1.6 0.6 3 5.4 1.6 5.4 -0.5 0 -0.9 0.5 -0.9 1 0 1 -8.3 13.5 -17.7 26.5 -2.3 3.3 -5.7 8.3 -7.4 11 -3.6 5.9 -10.6 15.9 -28.9 41.2 -7.4 10.3 -13.7 19.1 -13.9 19.7 -0.2 0.5 -6.3 9.3 -13.6 19.5 -7.2 10.3 -15.1 22 -17.5 26.1 -2.4 4.1 -7.3 12 -10.9 17.5 -3.6 5.6 -8.6 13.8 -11.1 18.4 -2.5 4.5 -9.9 16.3 -16.5 26.1 -24 35.7 -26.7 39.9 -35 55 -3.2 5.8 -8.4 14.6 -11.5 19.5 -6.4 10.2 -9 14.9 -12 21.7 -1.1 2.6 -3.2 6.5 -4.6 8.5 -1.4 2.1 -5.7 10.3 -9.6 18.3 -6.1 12.6 -8.2 17.1 -12.8 27.5 -1.7 3.8 -8.8 21.1 -14.3 34.5 -7.7 19 -23.6 55.8 -30.6 70.8 -3.2 7 -8.2 18.8 -11.1 26.2 -2.8 7.4 -6.2 16.2 -7.6 19.5 -1.3 3.3 -3.2 9.2 -4.3 13 -1 3.9 -2.7 8.8 -3.6 11 -1 2.2 -2.8 8.1 -4.1 13 -1.3 5 -3.2 12 -4.3 15.8 -1.1 3.7 -2.2 8.4 -2.5 10.5 -0.4 2 -1.5 7.8 -2.5 12.7 -2.3 10.6 -5.7 30.8 -7.6 45.5 -0.8 5.8 -2.3 16.7 -3.5 24.3 -1.8 11.8 -2 16.8 -1.6 35.5 0.6 23.3 2 44.6 3.6 52.7 3.8 19.3 7.2 32.9 10.6 43 0.8 2.2 3.2 6.8 5.5 10.3 6.5 9.9 16.1 13.7 25.2 9.8 2.6 -1 4.1 -2.5 4.8 -4.6 1.1 -3.1 2.3 -3.8 3.4 -2 0.3 0.6 1.5 1 2.5 1 1.2 0 2.3 1.3 3.4 4.3 4 10.5 -3.8 26.2 -15 30.1 -2.7 1 -5.7 2.2 -6.6 2.7 -2.6 1.3 -11.9 1.9 -14.8 1z m4.3 -9.7 c-1.7 -0.7 -3.4 -1.8 -3.8 -2.4 -0.3 -0.5 -1.9 -1 -3.4 -1 -1.6 0 -3.9 -0.8 -5.2 -1.9 -1.3 -1 -3.5 -2.2 -4.9 -2.6 -5 -1.5 -22.9 -17 -23 -19.9 0 -0.4 -1.1 -1.7 -2.5 -2.8 -1.4 -1.1 -3.2 -3.6 -4 -5.6 -0.9 -1.9 -3 -5.4 -4.9 -7.6 -1.8 -2.3 -3.7 -5.2 -4.1 -6.6 -0.4 -1.4 -2.2 -5.4 -4 -9 -3.8 -7.3 -3.4 -6.3 -9.1 -22.5 -2.3 -6.6 -5.1 -14.6 -6.3 -17.9 -1.8 -5.1 -5.8 -23 -8.1 -36.6 -0.5 -2.5 -1.7 -8.8 -2.9 -14.1 -1.1 -5.3 -2 -10.4 -2 -11.5 0 -1 -0.7 -6.6 -1.5 -12.4 -3.2 -21.7 -3.6 -25.3 -5.1 -46.4 -1.4 -18.1 -1.4 -24.6 -0.5 -40.3 0.7 -10.4 1.5 -25.3 2 -33.3 0.8 -16 3.4 -35 5.1 -38.2 1 -1.8 0.8 -2.4 -1.2 -3.9 -1.3 -1 -2.5 -1.6 -2.7 -1.4 -0.4 0.4 -2.8 16.7 -4.7 33 -3.9 31.6 -4.3 53.4 -2 90 0.8 12.7 1.7 27.9 2 33.8 0.8 15.2 3 31.3 6.1 44.7 4.8 20.7 10.1 40.4 12.7 47 1.3 3.6 3.5 9.2 4.7 12.5 3.3 9 12.6 27.2 16.4 31.9 1.8 2.2 4.8 6.7 6.6 9.9 4.1 7.5 13.6 18.4 20.3 23.6 2.9 2.3 5.8 4.6 6.4 5.1 2.7 2.3 11.1 5.3 17.8 6.5 9.1 1.6 9.6 1.6 5.8 -0.1z m16.9 -10.4 c5.9 -2.2 6.7 -2.7 7.1 -5.5 0.3 -1.6 0.3 -3.2 0.1 -3.4 -0.2 -0.2 -1.9 1 -3.8 2.7 -9.4 8.3 -26.3 3.3 -35.6 -10.5 -5.1 -7.5 -8.3 -14.9 -10.1 -23.3 -0.4 -1.9 -2 -8.7 -3.6 -15 -1.7 -6.3 -3.5 -14.4 -4.2 -18 -1.9 -9.4 -3.7 -45.5 -3.1 -59.5 0.4 -6.6 0.4 -19.6 0.2 -28.9 -0.2 -9.3 0.2 -20.9 0.8 -26 1.9 -15 4.8 -31.4 5.9 -33.5 0.6 -1.1 1.1 -3.6 1.1 -5.5 0 -2 0.9 -6.4 1.9 -9.8 2.9 -9.5 5.1 -18.5 5.1 -20.8 0 -2.4 2.4 -10.7 4.7 -16.2 0.8 -2 1.6 -5 1.8 -6.6 0.2 -3 2.9 -10.6 5.2 -15.2 0.7 -1.4 1.3 -3 1.3 -3.6 0 -0.6 3.7 -10.8 8.1 -22.5 4.5 -11.8 9.2 -24.2 10.5 -27.7 1.3 -3.4 4 -9.7 6 -14 4 -8.5 4.9 -10.5 6.3 -14.2 0.5 -1.4 2.1 -5.2 3.5 -8.5 3 -6.8 2 -5.7 -6.4 7 -3.3 5 -6 10 -6 11.2 0 1.3 -2.3 6.4 -5 11.4 -2.8 5 -8 16.8 -11.7 26.2 -3.6 9.4 -7.9 20.3 -9.5 24.1 -5.3 12.5 -10.6 30.4 -19.7 66.6 -4.9 19.3 -7.2 32 -9.3 51.5 -1.2 11.8 -1.1 62.2 0.3 78 2.1 24.8 2.8 31.5 3.3 32.3 0.2 0.4 0.9 4.1 1.5 8.2 0.6 4.1 2 10.4 3.2 14 1.2 3.6 2.5 8.1 2.9 10 1.2 5.5 5.5 16.3 8.2 20.6 1.4 2.1 2.5 4.1 2.5 4.4 -0.2 3.1 13.4 17.9 16.4 18 0.9 0 4.1 1.1 7 2.4 3 1.4 5.6 2.4 5.9 2.3 0.3 -0.1 3.5 -1.3 7.2 -2.7z m-79.1 -93.1 c-2.1 -8.9 -1 -14.7 1.9 -10.1 0.9 1.4 1 1 0.5 -1.8 -0.3 -1.9 -0.8 -8.4 -1.2 -14.4 l-0.6 -10.9 3 0.6 2.9 0.6 -0.7 -5.7 c-1 -8.4 -2.6 -13.7 -4.9 -15.7 -2 -1.8 -2.1 -1.8 -4 0.1 -1.2 1.1 -2.7 5.2 -3.7 9.7 -1.8 8.5 -1.9 7.9 2.6 34.2 2.1 11.9 3.9 19 4.7 18.2 0.3 -0.2 0 -2.4 -0.5 -4.8z m-9.8 -101.5 c1.3 -1.3 3.5 1.9 4.5 6.6 0.9 4.3 1 4.2 1.2 -4 0.2 -10 1 -13.4 3.2 -13.8 1.2 -0.2 1.7 1 2.2 5.5 0.8 7.2 3.9 20.3 4.8 20.3 1.1 0 2.1 -14.9 1.5 -21.9 -0.8 -8.9 -2.2 -13 -5.7 -17.9 -2.8 -3.9 -3.1 -4.1 -6 -3.1 -8.9 3.2 -12.6 17.2 -10.1 38.8 1.8 14.7 2.5 15.2 3.1 1.9 0.3 -6.4 0.8 -12 1.3 -12.4z m-9.2 -33.8 c-1.5 -6.1 -1.3 -26.4 0.3 -35.6 0.8 -4.1 2.3 -9.9 3.4 -12.7 1.7 -4.4 1.8 -6 1 -9.3 -1.3 -5.1 0.2 -15.1 3.7 -25.3 1.4 -3.9 2.5 -7.2 2.5 -7.4 0 -0.2 -0.9 -0.3 -2 -0.3 -1.3 0 -2 0.7 -2 1.8 0 1 -0.7 4.5 -1.6 7.7 -3.2 11.9 -4.4 19.2 -5.9 35 -2.1 21.7 -2.9 40.8 -2.1 47.9 0.7 5.3 0.9 5.7 2.3 4.3 1.3 -1.3 1.4 -2.3 0.4 -6.1z m11.6 -5.3 c-0.7 -3.8 2.9 -23.3 5.1 -27.6 0.2 -0.4 1 -0.3 1.8 0.4 1 0.8 1.4 3.7 1.5 10.3 l0.1 9.1 1.8 -8.5 c1 -4.7 1.9 -9 1.9 -9.6 0.1 -0.7 1 -2.2 2.1 -3.5 2.7 -3.3 3.9 -1.2 2.9 4.9 -0.9 6 -1.1 26.7 -0.2 25.8 0.9 -0.9 3.9 -10.1 6.8 -21.6 3.2 -12 3.3 -22.6 0.4 -29 -4.3 -9.5 -6.9 -10.1 -13.7 -3.2 -6.1 6 -9.6 14.6 -11.6 28.3 -1.4 9.9 -2 24.5 -1 26.1 1.2 1.9 2.6 0.6 2.1 -1.9z m37.7 -69.3 c2.6 -4.8 7.6 -21 7.6 -24.7 0 -2.1 -0.2 -2.1 -8.8 1.7 -8.2 3.7 -13.2 5.1 -22.2 6.5 -3.3 0.5 -3.7 0.9 -6.3 7.8 -2.5 6.5 -5 16.8 -4.2 17.5 1 1.1 6.2 -5.3 7.3 -8.9 2.5 -9.2 7.2 -10.7 7.2 -2.3 0 6.2 2 5.4 4.1 -1.7 2.5 -8.6 4 -11.9 5.4 -11.9 2.4 0 2.5 1.5 0.5 9.9 -2.5 10.3 -2.5 10.5 0.2 13.7 l2.3 2.5 2.2 -2.7 c1.2 -1.6 3.3 -4.9 4.7 -7.4z m-24.2 -26.6 c8.8 -1.4 19.8 -5.1 24.4 -8.2 8.6 -5.7 21.5 -17.8 28.1 -26.2 2.4 -3 7.7 -10.7 11.9 -17 4.2 -6.3 9.8 -14.7 12.5 -18.7 4 -5.9 14 -24.4 27 -50.3 0.9 -2 2.6 -6.2 3.7 -9.5 1.1 -3.3 3.6 -9.2 5.5 -13 1.9 -3.9 4.6 -10.4 6 -14.6 1.4 -4.2 3.7 -10 5 -13 1.3 -3 4.1 -10.6 6.2 -16.9 2 -6.3 5.4 -16 7.5 -21.5 2.1 -5.5 5.5 -15.2 7.5 -21.5 2.1 -6.3 5.3 -15.5 7.1 -20.5 1.8 -4.9 4.3 -12.1 5.5 -16 3.1 -10.2 7 -19.3 8.4 -19.8 0.6 -0.3 4.9 -11.9 9.4 -25.9 4.6 -13.9 9.9 -29.8 11.8 -35.3 1.9 -5.5 5.2 -15.8 7.3 -23 2.1 -7.1 4.8 -15.9 6 -19.5 1.2 -3.6 4.3 -13.2 7 -21.5 2.7 -8.2 6.5 -19.5 8.5 -25 2.1 -5.5 4.3 -12.5 5 -15.5 0.7 -3.1 2 -7 2.9 -8.7 0.9 -1.8 1.6 -3.4 1.6 -3.8 0 -0.3 -2.2 -0.5 -4.8 -0.5 l-4.8 0 -1.6 4.8 c-0.9 2.6 -4 11.5 -6.8 19.7 -2.8 8.3 -6.7 20.2 -8.5 26.5 -5.8 19.9 -7.2 24.2 -11.4 36.5 -5.7 16.9 -6.7 20 -9.2 29 -2.9 10.3 -9.6 31.6 -12 38 -1 2.8 -2.9 7.9 -4.3 11.5 -8.5 22.8 -13.8 37.2 -15.2 42 -1.9 6.7 -10.1 29.6 -14.4 40.5 -4.7 11.9 -13 31.7 -14.1 33.7 -0.5 1 -0.9 2.8 -0.9 4 0 1.2 -1.3 5.1 -2.9 8.7 -1.7 3.6 -5.3 12.2 -8.1 19.1 -2.8 6.9 -6.1 15 -7.4 18 -1.3 3 -3.7 8.4 -5.2 12 -1.5 3.6 -4.7 10.7 -7.1 15.8 -2.3 5.1 -4.3 9.4 -4.3 9.7 0 0.9 -12.7 26.6 -15.4 31 -17.7 29.3 -43.8 53.8 -61.3 57.5 -6.3 1.4 -20.3 -0.1 -26.4 -2.8 -2.7 -1.2 -6.1 -3.8 -7.9 -6.1 -1.8 -2.2 -3.7 -3.8 -4.1 -3.5 -2.1 1.2 -0.9 8.2 2.1 12.2 3.3 4.6 5.4 6 12 7.8 6 1.6 6.4 1.6 18.2 -0.2z m43.1 -6.1 c1.5 -3.2 0.6 -3.6 -2.7 -1 -2.6 2.1 -2.7 2.4 -1.5 5.1 l1.3 2.8 0.9 -2.3 c0.5 -1.3 1.4 -3.4 2 -4.6z m-25.3 -61.4 c0 -1.1 -1.8 -3.9 -3.9 -6.2 -3.2 -3.5 -5.2 -4.6 -10.8 -6.1 -10.6 -2.9 -12.2 -2.9 -19.5 0 -5.4 2.1 -7 3.3 -8.3 5.9 -2.2 4.7 -1.9 5 1.8 2.2 4.1 -3.1 11.6 -5.7 16.6 -5.7 5.3 0 14.2 2.8 16.9 5.3 1.3 1.2 3 3.5 3.8 5 1.6 3 3.4 2.8 3.4 -0.4z m12.9 -21.7 c4.6 -9.2 10.6 -23.2 16.6 -38.7 1.5 -3.8 3.7 -9.2 5 -12 3.6 -7.8 11.3 -28.3 14.5 -39 1.2 -3.9 9 -24 13.1 -34 5.6 -13.4 16.1 -41.5 18.4 -49.3 1.4 -4.8 3.2 -10 4 -11.7 0.8 -1.6 2.5 -7 3.9 -12 2.9 -10.5 7.6 -24.8 11.7 -35.5 1.5 -4.1 4.2 -12.2 5.9 -18 1.7 -5.8 4.7 -14.8 6.6 -20 1.9 -5.3 4.6 -13.4 5.9 -18 1.3 -4.7 3.7 -13 5.4 -18.5 1.7 -5.5 4.5 -14.9 6.2 -21 1.7 -6 4.4 -15.3 6 -20.5 1.5 -5.2 4.1 -14.2 5.7 -20 1.7 -5.8 3.4 -11.3 3.7 -12.2 0.6 -1.5 0.1 -1.8 -2.9 -1.8 l-3.6 0 0 5 c0 2.7 -0.6 6.9 -1.4 9.2 -0.8 2.4 -2.1 7.7 -3.1 11.8 -3.7 16.7 -4.8 20.9 -7.6 29.5 -1.6 5 -5.5 17.6 -8.8 28 -3.2 10.5 -6.6 21 -7.5 23.5 -0.9 2.5 -5.4 16 -10 30 -8.2 25.1 -13.7 40.7 -17.8 50.5 -1.1 2.8 -2.9 7.7 -3.9 11 -3.6 12.2 -14.6 43.2 -17.2 48.5 -1.4 3 -2.9 7.3 -3.3 9.4 -0.4 2.2 -2 7.6 -3.7 12 -1.6 4.5 -4.1 11.5 -5.4 15.6 -6.9 20.7 -11.7 33.1 -21.1 54.5 -1.7 3.9 -4.9 11.7 -7.2 17.5 -2.3 5.8 -4.8 11.6 -5.6 13 -0.7 1.4 -2.7 5.7 -4.4 9.5 -1.7 3.9 -4 7.7 -5.1 8.6 -1.9 1.4 -2 1.8 -0.8 3.7 0.7 1.1 1.7 1.8 2.1 1.6 0.5 -0.3 3 -4.9 5.7 -10.2z m-46.1 -3.8 c1.4 -0.4 2.2 -1.4 2.2 -2.8 0 -1.1 1 -5.2 2.1 -9.1 1.1 -3.8 2.8 -9.7 3.6 -13 0.9 -3.3 2.6 -9.1 3.9 -13 1.3 -3.8 3.9 -12.6 5.9 -19.5 6.2 -22 9.5 -33.2 14 -47.5 2.5 -7.7 5.4 -17.4 6.6 -21.5 1.2 -4.1 6.2 -20.1 11.1 -35.5 5 -15.4 9.9 -31.1 11.1 -35 1.1 -3.8 4.1 -12.8 6.8 -20 2.6 -7.1 6.1 -17.7 7.9 -23.5 1.7 -5.8 4 -12.7 5.2 -15.5 1.1 -2.7 3.8 -10.2 5.9 -16.5 2.2 -6.3 4.4 -12.3 5 -13.3 1.4 -2.6 5.5 -14.3 8.8 -25.7 1.6 -5.2 4.5 -14.2 6.6 -20 2 -5.8 4.5 -13.2 5.5 -16.5 1 -3.3 3.5 -11.2 5.4 -17.5 2 -6.3 3.6 -11.9 3.6 -12.3 0 -0.5 -1.2 -0.7 -2.7 -0.5 -3.1 0.4 -3.7 1.8 -9.4 23.2 -2.1 8.2 -5.4 18.8 -7.3 23.5 -1.8 4.7 -4.6 12 -6.1 16.1 -3.7 10.1 -7.9 21.1 -11 29 -1.5 3.6 -3.9 10.8 -5.5 16 -3.9 13 -7.3 22.5 -10.3 29 -1.4 3 -3.7 9.6 -5.2 14.5 -1.4 5 -3.9 12.4 -5.5 16.5 -2.5 6.6 -5.7 15.2 -10.7 28.5 -0.8 2.2 -2.5 7.8 -3.8 12.5 -1.4 4.7 -3.8 13 -5.6 18.5 -7 22.4 -10.1 33.4 -12 42 -1.9 8.9 -4 15.9 -12.5 43 -2.4 7.7 -5 16.9 -5.8 20.5 -0.8 3.6 -2 7.9 -2.6 9.5 -1.4 3.5 -2.9 9 -6.5 23 -1.4 5.5 -2.8 10.8 -3.1 11.8 -0.6 1.8 0.5 2.1 4.4 1.1z m29.4 -1.1 c1 -0.9 1.8 -2 1.8 -2.5 0 -0.5 1.1 -2.6 2.5 -4.7 2.2 -3.7 11.4 -24.7 13 -29.8 0.5 -1.9 0.2 -2.3 -1.4 -2.3 -1.6 0 -3 2 -6.2 8.5 -2.2 4.7 -4.5 8.5 -4.9 8.5 -2.1 0 -1.9 -4.5 0.5 -11.1 2.3 -6.5 2.4 -7.4 1.1 -8.8 -1.4 -1.4 -1.7 -1.3 -3.1 0.4 -0.8 1.1 -2 3.8 -2.6 6 -0.6 2.2 -1.9 6.3 -3 9 -1 2.8 -2.3 7 -2.8 9.5 -0.6 2.5 -1.3 5.7 -1.7 7.2 -0.3 1.5 -0.3 4.8 0 7.3 0.6 3.7 1.1 4.5 2.8 4.5 1.2 0 3 -0.7 4 -1.7z m-13.3 0 c0 -0.5 -0.4 -1.7 -0.9 -2.8 -0.8 -1.8 -0.9 -1.7 -0.9 0.8 -0.1 1.5 0.4 2.7 0.9 2.7 0.6 0 1 -0.3 0.9 -0.7z m12.7 -47.2 c0.4 -1.8 0.2 -3.1 -0.3 -3.1 -0.6 0 -1.3 1.5 -1.6 3.3 -0.3 1.7 -0.8 4.1 -1.2 5.2 -0.7 1.8 -0.6 1.8 0.9 -0.2 0.9 -1.2 1.9 -3.6 2.2 -5.2z m18.7 -3.7 c3.9 -1.9 3.6 -1.4 11.4 -16.4 4.6 -8.8 6.7 -14.1 8.7 -22.6 3.1 -13.2 3.2 -15.4 0.8 -15.4 -1.3 0 -2 1.3 -2.9 5 -1.6 6.8 -9.3 25.5 -12.7 30.9 -4.2 6.6 -5.4 3.9 -1.8 -4 2.6 -5.6 4.4 -10.5 5.9 -15.9 0.2 -0.8 -1.9 3.1 -4.7 8.8 -2.8 5.6 -5.5 10.2 -6 10.2 -2 0 -1.8 -2 0.4 -7.6 7 -17.2 11.6 -31.5 10.8 -33.1 -0.8 -1.4 -1.5 -0.6 -4 4.4 -6.5 12.7 -16.2 43.7 -16.2 51.3 0 2.9 2.7 6 5.1 6 1 0 3.3 -0.7 5.2 -1.6z m120.3 -60.6 c3.2 -4.4 5.8 -8.8 15.9 -26.3 3.1 -5.5 7 -12 8.6 -14.5 1.5 -2.5 4.6 -7.4 6.9 -11 2.2 -3.6 6.3 -9.6 9.1 -13.5 2.8 -3.8 7.6 -10.8 10.6 -15.5 3.1 -4.7 6.8 -10.3 8.4 -12.6 1.5 -2.2 5.7 -9.2 9.1 -15.5 3.5 -6.3 9 -15.4 12.1 -20.4 3.2 -4.9 7.9 -12.5 10.5 -16.7 4.2 -6.9 10.2 -15.9 29.8 -44.3 3.1 -4.4 7.4 -10.5 9.7 -13.5 2.3 -3 6.2 -8.4 8.6 -12 2.4 -3.6 6.1 -8.5 8.1 -11 2.1 -2.5 4.5 -5.8 5.4 -7.5 2.1 -3.9 12.6 -18.8 15.3 -21.7 1.1 -1.3 2.6 -3.3 3.2 -4.5 1.1 -2.2 1 -2.3 -3.3 -2.3 -4 0 -4.5 0.3 -5.5 3.1 -0.6 1.7 -4.1 7.2 -7.8 12.2 -3.8 5.1 -8.2 11.2 -9.8 13.6 -1.7 2.4 -4.6 6.8 -6.6 9.7 -1.9 2.9 -4.9 6.9 -6.5 9 -4.4 5.7 -13.5 18.6 -22.1 31.4 -4.2 6.3 -9.8 14.2 -12.3 17.6 -6.6 8.4 -39.3 58.5 -43.6 66.8 -1.5 2.7 -4.6 8 -7 11.7 -2.4 3.8 -6 10.1 -8 14.1 -2 4 -4.4 8.4 -5.4 9.8 -1 1.4 -5.9 10.6 -10.9 20.5 -5 9.9 -10.4 20.3 -11.9 23 -4 7.2 -11.1 17.5 -12.1 17.5 -0.8 0 -3.3 5.4 -4.8 10 -0.5 1.7 1.8 -0.9 6.3 -7.2z m-117.4 -5.3 c1.7 -3.2 2.9 -8 3.6 -13.5 0.5 -4.7 1.2 -9.4 1.6 -10.5 0.4 -1.1 0.1 -0.9 -0.6 0.5 -0.7 1.4 -1.6 2.7 -2 3 -0.3 0.3 -1.6 4.8 -2.7 10 -1.1 5.2 -2.5 11.2 -3 13.4 -1.1 4.6 -0.2 3.8 3.1 -2.9z m21.9 0.2 c2.6 -2.3 7.9 -9.1 7.9 -10.2 0 -0.3 1.3 -3.2 2.9 -6.4 6.1 -12.4 10.5 -30.6 7.8 -32.3 -2.1 -1.3 -3.1 -0.3 -5.4 5.3 -1.1 3 -2.6 6.5 -3.1 7.9 -0.6 1.4 -2 5.1 -3.2 8.3 -1.6 4.2 -2.6 5.7 -4 5.7 -1.1 0 -1.8 -0.6 -1.5 -1.2 0.2 -0.7 1.3 -4.4 2.5 -8.1 1.2 -3.8 2 -7 1.8 -7.3 -0.3 -0.2 -2 3.2 -3.9 7.6 -3.2 7.6 -5 9.4 -5.7 5.7 -0.2 -0.9 1.7 -7.7 4.2 -15.2 5.2 -15.2 5.5 -17.5 2.7 -17.5 -1.4 0 -2.4 1.3 -3.5 4.3 -7.5 20.6 -11.5 45.2 -8.2 51.5 2.4 4.7 4.9 5.3 8.7 1.9z m-7.9 -47.5 c1.5 -3.5 2.8 -6.6 2.8 -6.9 0 -0.3 1.3 -2.7 2.9 -5.3 2.4 -3.9 2.8 -5.5 2.4 -8.9 -0.3 -2.2 -0.8 -4.1 -1.2 -4.1 -0.6 0 -11.3 31.7 -11.8 34.9 -0.3 1.7 0.3 0.5 4.9 -9.7z m125.1 -12.9 c1.9 -3.2 5.1 -9 7 -13 1.9 -3.9 5.2 -10 7.3 -13.5 2.1 -3.5 5.7 -9.7 7.9 -13.9 2.2 -4.2 7 -12.1 10.6 -17.5 6.1 -9.1 15.1 -22.8 17.3 -26.4 0.5 -0.8 -1.7 0.8 -5 3.5 -5.1 4.3 -6.7 6.5 -11.6 16.5 -9 18.1 -19.2 27.2 -13.4 11.9 1.3 -3.5 3.1 -7.7 4 -9.4 0.9 -1.6 1.6 -3.3 1.6 -3.6 0 -0.4 1.2 -3.2 2.6 -6.4 1.9 -4.1 2.7 -7.7 3 -13.1 0.1 -4.1 0 -7.4 -0.4 -7.4 -0.7 0 -3.1 6.6 -8.7 24.5 -6.7 21 -10.7 33.1 -14 41.5 -1.8 4.7 -4.2 11 -5.3 14 -1.2 3 -3.2 8.3 -4.6 11.8 -1.3 3.4 -2.3 6.2 -2.2 6.2 0.2 0 1.9 -2.6 3.9 -5.7z m-95.8 -1.1 c7.6 -5.1 15.9 -26.9 18.2 -47.4 0.6 -5.7 0.6 -5.8 -2 -5.8 -2.4 0 -2.8 0.6 -4.2 5.8 -4.4 15.6 -10.1 32.2 -11.2 32.6 -2 0.8 -1.6 -1.9 2.7 -18.5 5.3 -20 5.5 -21.2 3.8 -22.6 -1 -0.9 -1.3 -0.3 -1.4 3 -0.1 4.9 -5.2 17.8 -7.3 18.5 -2.1 0.7 -0.8 -7.2 2.8 -16.3 2.6 -6.7 3.1 -11.5 1.2 -11.5 -1.4 0.1 -8.5 13.5 -10.6 20.3 -4.9 15.3 -7.2 30 -5.5 35.1 1 3.1 7 9.7 8.8 9.6 0.4 -0.1 2.5 -1.3 4.7 -2.8z m-4.4 -60.4 c1.2 -2.4 2.7 -5 3.4 -5.8 0.8 -0.9 1.3 -3.5 1.2 -6.3 -0.2 -4.1 -0.4 -4.5 -1.5 -3 -0.7 1 -2 4.3 -2.8 7.3 -0.8 3 -1.9 6.5 -2.5 7.8 -2.3 5.6 -0.6 5.5 2.2 0z m26.7 -4.1 c4.4 -4.1 8.5 -11.9 12.9 -24.9 3.8 -11.4 7.4 -29.1 6.2 -30.2 -0.2 -0.2 -1.8 -0.7 -3.5 -1 -3 -0.7 -3.1 -0.7 -4.3 5.1 -1.7 7.5 -10.8 34.8 -13.2 39.3 -1.5 3 -1.8 3.2 -1.9 1.2 0 -1.2 1 -5.7 2.1 -10 1.2 -4.2 2.5 -9 2.9 -10.7 0.4 -1.6 2.2 -8.3 4 -14.9 2.3 -8.5 2.9 -12.1 2.1 -12.9 -0.8 -0.8 -1.1 -0.6 -1.1 0.7 0 1 -1.6 5.1 -3.5 9.2 -1.9 4 -3.5 7.8 -3.5 8.4 0 1.1 -2.3 1.4 -3.2 0.4 -0.6 -0.5 2.2 -8.7 5.6 -16.8 1.8 -4.3 2 -5.6 0.8 -5.6 -1 0 -14.2 27.2 -15.7 32.5 -1.4 4.9 -1.1 21.9 0.5 26 0.6 1.7 2.1 4 3.2 5.2 2.5 2.6 6 2.3 9.6 -1z m122.2 -31.8 c7.8 -7.2 15.5 -13.6 17.1 -14.1 0.8 -0.3 0.9 -1.2 0.3 -3.1 l-0.9 -2.8 -5.8 5.2 c-5.5 4.9 -5.9 5.1 -8.7 3.9 -3 -1.3 -5 -5.5 -5 -11 l0 -2.4 -2.2 2.1 c-2 2 -2.2 3.4 -2.5 15.3 -0.1 7.1 0.1 13 0.5 13 0.4 0 3.6 -2.8 7.2 -6.1z m29.5 -28.7 c-0.8 -0.8 -3.5 2 -3.5 3.7 0.1 1.2 0.5 1.1 2.1 -0.8 1.1 -1.3 1.7 -2.6 1.4 -2.9z m-17.7 1.4 c2 -1.3 5.3 -3.8 7.2 -5.6 1.9 -1.7 7 -5.4 11.3 -8.2 7.6 -5.1 7.7 -5.2 7.7 -9.5 0 -2.9 -0.4 -4.3 -1.3 -4.3 -1.8 0 -12.7 7.8 -12.7 9.1 0 1.5 -7.1 8.9 -8.6 8.9 -1.8 0 -1.8 -5.7 0 -9 1.2 -2.1 1.2 -2.9 -0.5 -6.2 -1 -2 -1.9 -4.7 -1.9 -5.8 0 -2.7 -0.8 -2.4 -5.9 2.3 l-4.2 3.8 1.5 4.7 c0.8 2.6 1.8 8.6 2.2 13.5 0.3 4.8 0.8 8.7 1 8.7 0.3 0 2.1 -1.1 4.2 -2.4z m-137.5 -4.2 c2 -4 2.5 -6 1.8 -7.2 -1.1 -1.9 -0.8 -2.5 -3.9 7.1 -1 3.1 -1.6 5.7 -1.3 5.7 0.4 0 1.9 -2.5 3.4 -5.6z m24.9 -4.6 c5.9 -6.6 12.9 -23.9 15.2 -38 3.1 -18.1 3.6 -21.6 3.6 -25.2 0 -3.4 -0.2 -3.6 -3.4 -3.6 -3.8 0 -4.6 1.2 -4.6 6.8 0 7.8 -3.5 22 -8.7 35.6 -3 7.7 -5.8 15.9 -6.3 18.1 -0.6 3 -0.8 3.4 -1 1.5 -0.5 -5.7 0.9 -13.5 6.1 -33.7 1.6 -6.1 3.3 -14.3 3.9 -18.1 0.5 -3.8 1.2 -7.7 1.6 -8.6 0.4 -1.1 0.1 -1.6 -1.2 -1.6 -1.7 0 -1.9 0.9 -2 7.8 -0.1 6.8 -0.6 8.5 -3.8 14.6 -2 3.9 -3.9 7.2 -4.2 7.5 -1.2 1.1 1.8 -24.6 3.2 -28.3 0.5 -1.2 0 -1.6 -2 -1.6 -2.1 0 -2.6 0.5 -2.6 2.6 0 2.4 -3.4 14.6 -7.6 27.3 -3.9 11.9 -3.6 29.6 0.7 35 2.3 2.9 5.8 4.9 8.8 5 0.8 0.1 2.7 -1.4 4.3 -3.1z m96.8 -0.3 c0 -0.8 -0.4 -1.5 -1 -1.5 -0.5 0 -1 0.7 -1 1.5 0 0.8 0.5 1.5 1 1.5 0.6 0 1 -0.7 1 -1.5z m56.8 -23.9 c2.3 -2.9 4.2 -5.6 4.2 -6 0 -0.3 -2.2 0.5 -5 1.9 -4.6 2.3 -5 2.8 -5 6 0 1.9 0.3 3.5 0.8 3.5 0.4 -0.1 2.6 -2.5 5 -5.4z m-20.7 -4.1 c4.4 -3.1 9.2 -6 10.7 -6.6 1.5 -0.5 5.9 -2.6 9.8 -4.6 8.1 -4 8.4 -4.6 8.4 -15.9 l0 -6.4 -3.9 0 c-3.5 0 -4 0.3 -5 3.2 -1.8 5.1 -6.2 10.8 -10.3 13.4 -2.1 1.3 -4 2.4 -4.3 2.4 -0.3 0 -0.5 -1.9 -0.5 -4.2 0 -3.1 0.9 -5.5 3 -8.7 1.7 -2.4 3 -4.8 3 -5.3 0 -0.5 -2.1 -0.8 -4.7 -0.6 -3.9 0.2 -4.8 0.7 -5.3 2.5 -0.6 2.4 -6 8.5 -10.9 12.3 l-3.2 2.5 1.5 7 c0.8 3.9 1.8 8.7 2.1 10.8 0.3 2 0.8 3.7 1.1 3.7 0.2 0 4 -2.5 8.5 -5.5z m-23.7 -4.5 c2.9 -1.1 3.1 -1.7 1.5 -5.7 -0.9 -2.5 -1.1 -2.6 -2.1 -1 -1.1 2.1 -2.8 7.7 -2.3 7.7 0.2 0 1.5 -0.4 2.9 -1z m67.3 -22.3 c2.8 -4 5 -7.3 4.9 -7.4 -0.1 -0.1 -2.7 0.1 -5.9 0.4 l-5.7 0.6 0.2 6.8 c0.2 3.8 0.5 6.9 0.8 6.8 0.3 0 2.8 -3.2 5.7 -7.2z m-57.9 -1.7 c2.3 -1.7 4.2 -3.2 4.2 -3.5 0 -0.3 -2.2 -0.5 -4.9 -0.5 l-5 0 0.2 3.5 c0.1 1.9 0.5 3.5 0.8 3.5 0.3 0 2.5 -1.4 4.7 -3z m46.2 -16.4 c14.6 -0.4 29.5 -1.1 33.2 -1.7 3.7 -0.6 8.1 -0.8 9.7 -0.4 2.3 0.5 3.2 0.2 4 -1.3 1 -1.9 0 -1.9 -55.6 -1.6 -54 0.2 -56.7 0.3 -57.4 2.1 -0.4 1 -0.8 2.3 -0.8 2.9 -0.1 1.2 17.3 1.2 66.9 0z m-119.3 -4.3 c0.2 -0.4 -5.1 -0.9 -11.7 -1.1 -7.2 -0.1 -12 0.1 -12 0.7 0 1.8 23.1 2.2 23.7 0.4z m-25.7 -0.3 c0 -0.6 -2.7 -1 -6.2 -1 -3.5 0 -11.9 -0.5 -18.6 -1.2 -10.5 -1 -12.5 -0.9 -13.3 0.3 -0.5 0.8 -0.9 1.7 -0.9 2.2 0 0.4 8.8 0.7 19.5 0.7 12.3 0 19.5 -0.4 19.5 -1z"/>
  <path d="M491.3 512.1 c-6.8 -3.1 -17.2 -14.3 -24.3 -26.1 -3.4 -5.8 -7.1 -11.6 -8 -13 -1 -1.4 -5 -8.8 -9 -16.5 -4 -7.7 -8 -15.3 -9 -17 -1 -1.6 -3.7 -7.3 -6 -12.5 -2.3 -5.2 -4.8 -10.8 -5.5 -12.5 -0.7 -1.6 -2.9 -6.6 -4.8 -11 -2 -4.4 -6.5 -14.7 -10.2 -23 -3.7 -8.2 -7.8 -17.7 -9 -21 -1.2 -3.3 -2.7 -7.1 -3.3 -8.5 -0.5 -1.4 -2.7 -6.8 -4.7 -12 -2 -5.2 -4.2 -10.1 -4.9 -11 -0.8 -0.8 -3.5 -8 -6.1 -16 -2.5 -8 -5.7 -17.2 -6.9 -20.5 -2.9 -7.8 -3 -7.9 -15.1 -42.5 -5.7 -16.2 -11.2 -32.6 -12.3 -36.5 -1.1 -3.8 -3.5 -12.2 -5.2 -18.5 -1.8 -6.3 -5.2 -17.4 -7.6 -24.6 -2.4 -7.2 -4.4 -14 -4.4 -15 0 -1.1 -1.4 -5.5 -3.1 -9.9 -1.6 -4.3 -3.9 -10.8 -4.9 -14.4 -1.1 -3.7 -3.9 -12.5 -6.4 -19.7 -2.4 -7.2 -4.7 -14.8 -5.1 -17 -0.4 -2.1 -1.3 -5.9 -2 -8.4 -0.7 -2.5 -2.7 -10.4 -4.4 -17.6 -2.5 -10.7 -2.9 -13.6 -2 -16.2 0.6 -1.7 1.8 -3.4 2.7 -3.8 2.4 -1 61 -0.5 65.3 0.6 1.9 0.6 4.5 2 5.6 3.2 3 3.3 9.5 14.4 12.2 20.8 1.3 3 3 6.4 3.7 7.5 0.8 1.1 1.4 3.1 1.4 4.5 0 1.4 1.6 6.4 3.6 11 1.9 4.7 4.4 10.8 5.5 13.5 1.1 2.8 3.4 7.8 5 11.3 1.6 3.4 2.9 6.6 2.9 7.1 0 0.8 3.1 8.9 5.6 14.8 0.8 1.7 1.4 3.5 1.4 4 0 0.5 0.5 1.4 1.1 2 0.7 0.7 2.6 4.9 4.4 9.5 1.8 4.6 6.9 16.8 11.4 27.2 4.5 10.4 8.6 20.9 9.1 23.5 0.5 2.5 2 7.2 3.4 10.4 1.4 3.2 2.6 6.3 2.6 6.9 0 0.6 0.9 2.9 1.9 5.2 1.9 4.1 5.4 13.2 5.7 15.1 0.5 2.6 3.7 12.3 4.8 14.5 0.7 1.4 1.6 4.1 1.9 6.1 0.5 3.4 5.9 18.3 11.3 31 1.3 3.1 2.4 6.4 2.4 7.3 0 2 5.7 22.1 15.3 54.1 8 26.6 9 30.3 16.3 60 2.5 10.5 5.7 22.4 6.9 26.5 3 9.4 10.1 37.1 11 42.7 1.1 6.8 -2.7 11.3 -7.9 9.3 -1.9 -0.7 -2.6 -1.7 -2.6 -3.6 0 -3.1 -5.1 -8.4 -10.9 -11.3 -3.1 -1.6 -4.4 -1.8 -8.8 -0.9 -2.9 0.6 -6 1.9 -6.9 2.9 -2.2 2.5 -3 10.1 -1.4 14.1 2.8 7.1 6.7 9 7.2 3.6 0.2 -2.1 0.8 -3.3 1.8 -3.3 0.8 0 1.8 -0.4 2.2 -1 1.3 -1.7 4.3 1 4.6 4.1 1.1 8.7 -8.7 14.5 -17.5 10.5z m-9.3 -26.8 c0 -3 4.2 -9 8.2 -11.6 5.8 -3.7 17.5 -4.8 24.1 -2.2 1 0.4 1.7 0.3 1.7 -0.4 0 -0.6 -0.9 -1.1 -2 -1.1 -1.1 0 -2.8 -0.9 -3.8 -2 -6.5 -7.7 -24.2 -2 -30.3 9.9 -2.6 5 -2.7 5.5 -1.2 7.7 1.6 2.5 3.3 2.4 3.3 -0.3z m-12.8 -26.9 c-2.2 -4.3 -4.3 -9 -4.7 -10.4 -0.4 -1.4 -2.6 -6.5 -5 -11.5 -2.3 -4.9 -4.8 -10.8 -5.5 -13 -0.7 -2.2 -2.5 -6.5 -4.1 -9.6 -1.5 -3.1 -4.4 -9.8 -6.5 -15 -2 -5.2 -5.4 -12.8 -7.4 -16.9 -2.1 -4.2 -4.3 -9.6 -5 -12 -0.7 -2.5 -2.2 -6.3 -3.5 -8.5 -1.3 -2.2 -3.5 -7.8 -5 -12.5 -1.5 -4.7 -6.3 -17.5 -10.8 -28.5 -4.4 -11 -9 -23.1 -10.3 -27 -3.5 -11.1 -8.4 -24.7 -10.1 -28.3 -1.6 -3.4 -11.9 -32.9 -15.3 -43.7 -1 -3.3 -3.9 -11.8 -6.4 -18.8 -2.5 -7 -4.6 -13.6 -4.6 -14.5 0 -0.9 -0.7 -3 -1.5 -4.6 -0.9 -1.7 -2.9 -8.4 -4.6 -15 -5.3 -21.4 -13 -47.3 -16.8 -56.2 -1.1 -2.7 -3.2 -9.4 -4.6 -14.9 -1.5 -5.5 -3.5 -12.4 -4.6 -15.3 -1 -2.9 -1.9 -6.2 -1.9 -7.2 0 -1.7 -0.7 -2 -4.6 -2 -2.5 0 -4.3 0.4 -4 0.9 0.3 0.5 2.2 7.3 4.1 15.1 2 7.7 4 14.9 4.5 15.8 1.2 2.1 4.5 11.9 6.5 18.9 0.8 2.8 2.6 8.5 4.1 12.5 1.5 4 3.3 10 4.2 13.3 0.8 3.3 2.9 10.3 4.7 15.5 4 11.5 8 24.7 9.6 31.5 1.2 5.5 5.3 19.7 7.4 26 4 11.9 14.9 42.6 18.8 53 2.5 6.6 5.5 15.2 6.8 19 5.4 17 8.3 25.1 9.5 27.1 1.3 2.2 7.8 18 12 29.3 1.3 3.6 3.5 8.7 4.8 11.5 1.3 2.8 4.1 9.2 6.1 14.1 2 5 4.5 10.6 5.6 12.5 2 4 5.9 12.6 5.9 13.4 0 0.2 1.6 3.9 3.5 8 1.9 4.2 3.5 7.8 3.5 8 0 1.8 20.9 43.9 24.7 50 l2.7 4.1 0.9 -3.1 c0.8 -2.6 0.3 -4.3 -3.1 -11z m18.3 -3.1 c-0.3 -1 -1.8 -5.4 -3.2 -9.8 -3.9 -12 -5.3 -15.1 -6.3 -13.5 -1.4 2.2 -3.8 0.3 -5.1 -4.1 -0.7 -2.3 -1.5 -3.7 -1.6 -3.2 -0.6 1.7 7.5 23.4 9.5 25.7 1.1 1.1 2.5 3.1 3.1 4.4 1.4 2.7 4.7 3.1 3.6 0.5z m24 0.5 c-0.5 -1.7 -4.3 -15.3 -5.4 -19.8 -0.5 -1.9 -1.6 -6.2 -2.5 -9.5 -0.9 -3.3 -3.2 -12.5 -5.1 -20.5 -3.9 -16.2 -4.2 -17.3 -11.9 -42.5 -8.3 -27.4 -12.6 -42.3 -14.6 -50 -1 -3.8 -3.7 -11.9 -6 -18 -8.3 -21.7 -9 -23.6 -9 -25.5 0 -1.1 -0.8 -3.9 -1.9 -6.2 -1 -2.4 -3.3 -8.8 -5.1 -14.3 -1.7 -5.5 -6.3 -17.7 -10.1 -27.2 -3.8 -9.5 -6.9 -18 -6.9 -18.9 0 -1 -2.2 -7 -4.9 -13.3 -2.6 -6.4 -5.4 -13.1 -6.1 -14.9 -0.7 -1.7 -1.6 -3.2 -2.1 -3.2 -0.5 0 -0.9 -0.6 -0.9 -1.2 0 -2 -5.2 -15.1 -7.2 -18 -1 -1.4 -1.8 -3 -1.8 -3.5 0 -1.2 -9.2 -24.6 -16.6 -42 -3.5 -8.3 -6.4 -16 -6.4 -17 0 -1 -1.6 -5 -3.6 -9 l-3.6 -7.3 -4.4 0 c-2.4 0 -4.4 0.3 -4.4 0.8 0 0.4 1 2.3 2.1 4.2 1.2 1.9 3.6 7.5 5.5 12.5 3.5 9.5 6.4 17 17.1 43 3.6 8.8 9.4 24 12.9 33.9 3.5 9.8 6.8 18.4 7.3 19 0.5 0.6 1.2 2.6 1.6 4.4 0.4 1.8 2.1 6.3 3.7 10 1.7 3.7 3.9 9 4.9 11.7 1 2.8 3.2 8.4 4.9 12.5 1.8 4.1 4.2 10.2 5.5 13.5 1.3 3.3 3.7 9.6 5.5 14 1.7 4.4 6.9 18.8 11.5 32 4.6 13.2 10.7 30.5 13.6 38.5 9.2 25.8 16 46.3 18.4 55.5 1.3 5 3.3 11.7 4.5 15 1.1 3.3 4.7 17.3 8.1 31 3.3 13.8 6.2 25.8 6.5 26.8 0.5 1.4 4.8 4.2 7.1 4.7 0.1 0 0.1 -0.6 -0.2 -1.2z m-20 -11.2 c-2.7 -10.3 -5.2 -17.2 -6 -16.4 -0.3 0.2 0.4 3.8 1.5 7.9 1.1 4.1 2.5 9.8 3 12.7 1.1 6.1 1.9 7.7 3.1 6.5 0.6 -0.6 -0.1 -4.9 -1.6 -10.7z m-16.5 -49.1 c1.8 -6.4 0.7 -13.1 -4.5 -28.2 -5.1 -15 -16 -35.5 -17.8 -33.7 -0.3 0.4 0.6 2.5 2.2 4.8 3.5 5.2 6.9 13.8 7.7 19.6 0.3 2.5 1.5 7.9 2.5 12.1 2.3 9.5 4 24.1 2.9 25.3 -1.1 1.2 -3 -0.2 -3.1 -2.2 0 -0.9 -2.2 -8.9 -5 -17.7 -2.7 -8.8 -4.7 -14.3 -4.5 -12.2 0.3 2.1 0.2 4.5 -0.1 5.3 -1.3 3.4 -3.6 0.9 -8.3 -8.8 -2.7 -5.7 -4.9 -9.6 -4.9 -8.8 -0.3 8.8 12.3 43.6 17.5 48.2 1 0.9 3.2 2.3 4.8 3.1 2.5 1.4 3.1 1.3 6.1 -0.4 2.4 -1.4 3.6 -3.1 4.5 -6.4z m-40.3 -60 c-0.1 0 -1.5 -1.1 -3.1 -2.5 -3.2 -2.8 -3.2 -3.5 0 7.5 l1.8 6 0.7 -5.5 c0.4 -3 0.7 -5.5 0.6 -5.5z m11.4 -12.7 c1.6 -6.1 0.4 -16.6 -3.2 -26.7 -1.6 -4.7 -4.3 -12.6 -6 -17.6 -1.6 -4.9 -3.6 -9.6 -4.5 -10.5 -1.4 -1.3 -1.8 -1.2 -3.8 1.3 -1.2 1.5 -2.7 2.7 -3.3 2.7 -0.6 0 -1.6 0.6 -2.2 1.4 -1 1.1 -0.8 1.8 0.7 3.3 4 3.8 6 9.4 7.8 21.8 0.5 3.5 -0.7 7.5 -2.2 7.5 -0.8 0 -2.2 -1.7 -3 -3.7 -2.2 -5.8 -6.7 -15.7 -7.5 -16.6 -0.9 -1.1 5.6 18.4 6.9 20.9 8.1 14.8 12.6 20.3 16.9 20.4 1.8 0 2.5 -0.9 3.4 -4.2z m-28.7 -43.2 c-0.3 -1.4 -1.3 -2.6 -2.1 -2.6 -1.2 0 -1.1 0.5 0.3 3 2.1 3.4 2.8 3.3 1.8 -0.4z m-0.1 -14.6 c3.8 -2.3 6.7 -7.6 6.7 -12.3 0 -6.4 -6.8 -30.9 -9.9 -35.7 -0.9 -1.4 -2.4 -4.1 -3.4 -6 -2.1 -4.2 -7.1 -10.6 -5.9 -7.5 0.5 1.1 2 4.5 3.4 7.5 4.9 10.1 9.6 34.2 7.6 38.6 -1.1 2.3 -1.2 2.3 -2.5 0.5 -0.7 -1.1 -2.5 -5.9 -3.8 -10.7 -1.4 -4.7 -3.1 -9.6 -3.7 -10.7 -0.9 -1.8 -1.1 -1.9 -2 -0.4 -1.5 2.8 -3.4 2 -6.2 -2.5 l-2.6 -4.3 0.6 4 c0.4 2.2 1.5 5.8 2.4 8 0.9 2.2 2 5.4 2.4 7 1.6 6.6 11.4 26.5 13.1 26.5 0.2 0 1.9 -0.9 3.8 -2z m-20.8 -69.1 c0.6 -0.6 1 -5.1 0.9 -10.2 0 -7.1 -0.5 -10.3 -2.2 -14.2 -1.1 -2.7 -2.6 -6.9 -3.2 -9.2 -1.1 -4.4 -9.3 -21.8 -13.6 -29 -2.2 -3.8 -2.8 -4.2 -4.5 -3.2 -1.7 0.8 -1.8 1.3 -0.8 2.5 4.3 5.1 9.7 25.3 7 26.2 -0.6 0.2 -0.8 0.8 -0.5 1.4 0.4 0.6 0.1 0.9 -0.7 0.6 -2 -0.7 -4.5 -5.3 -8.9 -16.9 -7.5 -19.7 -4.3 -2.1 5.2 29.1 2.2 7.2 7.9 17.8 11.5 21.4 3 3 4.2 3.6 6.3 3.1 1.4 -0.4 3 -1.1 3.5 -1.6z m-27.2 -74.2 c1.5 -2.1 -0.1 -15 -2.7 -22.4 -1.4 -4 -2.6 -7.7 -2.6 -8.3 0 -2.7 -6.3 -17 -7.5 -17 -1 0 -0.8 1.9 1 8.5 1.3 4.7 2 8.7 1.6 9 -0.5 0.2 -0.6 1.6 -0.3 3 0.2 1.5 0 2.5 -0.7 2.5 -0.6 0 -1.1 0.7 -1.1 1.6 0 3.1 -2.5 -1 -7.2 -11.6 -2.5 -5.8 -4.8 -11.2 -5.1 -12 -0.4 -1 -0.6 -0.8 -0.6 0.6 -0.1 2.7 2.9 14 7.3 27.4 4.7 14.7 6.2 17.7 9.4 19.5 2.8 1.5 7.1 1.2 8.5 -0.8z m3.7 -59.6 c0 -1.5 -4.8 -2.2 -9.9 -1.5 -3.1 0.4 -5.1 0.2 -5.5 -0.5 -1 -1.6 -38.9 -1.5 -38.4 0.1 0.3 0.8 4.3 1.3 12.7 1.5 6.8 0.1 12.6 0.4 12.8 0.7 0.9 0.9 28.3 0.6 28.3 -0.3z"/>
  <path d="M616.1 306.9 c-2.4 -0.9 -2.4 -1.1 -1.6 -9.7 0.8 -9.5 2.1 -92.9 2.1 -132.7 -0.1 -24.1 -0.2 -25.1 -2.3 -28.8 -4.6 -7.6 -1.8 -14.8 4.8 -12.5 1.6 0.5 2.9 1.6 2.9 2.3 0 0.7 0.7 1.6 1.6 1.9 0.8 0.3 1.3 0.9 1.1 1.3 -0.3 0.5 0 2.1 0.7 3.7 1.4 3.5 9.5 7 13 5.6 2.7 -1 8.6 -7.5 8.6 -9.5 0 -0.7 0.2 -2 0.6 -2.8 0.5 -1.3 -4 -7.7 -5.5 -7.7 -0.3 0 -1.1 1 -1.6 2.1 -0.6 1.2 -2.5 2.7 -4.3 3.5 -3.1 1.3 -3.3 1.2 -4.4 -1.1 -0.7 -1.6 -0.8 -3.9 -0.2 -6.7 0.7 -3.5 1.6 -4.7 4.9 -6.6 3.5 -2 4.9 -2.2 10.5 -1.7 3.8 0.3 8.6 1.6 11.6 3 2.8 1.4 5.6 2.5 6.2 2.5 2.2 0 10.5 9.3 12.2 13.8 1 2.6 2.8 7.1 3.9 9.9 3.5 8.8 4.2 14.1 4.3 29.8 0 31.4 -9 60.7 -29.6 95.8 -2.8 4.8 -5.6 9.8 -6.3 11 -0.6 1.2 -3.9 6 -7.2 10.7 -3.3 4.7 -7.9 11.1 -10.1 14.3 -5.7 7.9 -10.6 10.6 -15.9 8.6z m12.3 -21.7 c0.3 -0.5 0.7 -14.1 1 -30.3 0.6 -30.7 1.9 -57.3 4 -79.6 1 -11.1 1 -13.3 -0.2 -13.8 -3.8 -1.4 -4 -0.9 -4.1 14.8 -0.1 8.3 -0.4 17 -0.7 19.2 -0.3 2.2 -0.7 21.8 -0.8 43.5 -0.2 21.7 -0.6 41.2 -1.1 43.3 -0.5 2.4 -0.4 3.7 0.3 3.7 0.6 0 1.3 -0.4 1.6 -0.8z m14.6 -22.6 c0 -0.5 0.6 -1.7 1.4 -2.5 0.8 -0.9 5.2 -9.1 9.9 -18.3 8.4 -16.4 13.9 -30.8 15.7 -40.4 0.4 -2.7 1.8 -10.1 3 -16.4 2.6 -13.9 2.4 -31.7 -0.5 -41.7 -1 -3.5 -2.1 -6.3 -2.4 -6.3 -0.4 0 -1.2 0.9 -1.9 2.1 -1.1 1.7 -1.1 3.9 -0.1 11.7 1.9 16.4 -0.4 41.4 -5.7 60.1 -2.5 8.7 -8.4 25.4 -10 27.8 -0.8 1.2 -1.4 2.8 -1.4 3.6 0 1.6 -9.8 15.9 -11.7 17 -0.8 0.5 -1.3 2.6 -1.3 5.5 l0.1 4.7 2.4 -3 c1.4 -1.6 2.5 -3.4 2.5 -3.9z m6.2 -43.4 c4.7 -13.8 7.3 -24.9 9.3 -40.2 1.5 -11.9 1.8 -20.8 0.7 -24.8 l-0.7 -2.3 -3.5 2.7 c-1.9 1.4 -5.4 3.4 -7.7 4.5 -2.4 1 -4.3 2.2 -4.3 2.6 0 0.4 -0.7 10 -1.5 21.3 -0.8 11.3 -1.7 29.3 -2 40 l-0.6 19.5 3.2 -6 c1.7 -3.3 4.9 -11.1 7.1 -17.3z m-5.4 -68.1 c7.9 -4 17.5 -15.9 18.7 -23.1 0.7 -4.3 0.1 -6 -2.1 -6 -1 0 -1.4 1.2 -1.4 3.8 -0.1 11.6 -13.8 23.2 -26.1 22 -3.4 -0.3 -3.9 -0.1 -3.9 1.8 0 1.1 0.3 2.4 0.7 2.7 1.4 1.4 10.5 0.6 14.1 -1.2z"/>
  <path d="M588.8 305.8 c-2.1 -0.6 -3.8 -1.3 -3.8 -1.7 0 -0.4 -2.1 -3.4 -4.7 -6.7 -2.7 -3.3 -8.4 -11.3 -12.7 -17.9 -4.4 -6.6 -8.7 -13.2 -9.7 -14.6 -3.2 -4.7 -9.8 -18.3 -11.9 -24.3 -1.1 -3.3 -2.9 -7.4 -3.9 -9.2 -2.6 -4.4 -11.3 -25.3 -13.8 -33.4 -5.1 -15.9 -5.8 -20.7 -5.8 -40 l0 -18.5 4.7 -9.6 c4.3 -8.8 5.2 -10 10 -12.9 2.9 -1.8 5.5 -3.6 5.8 -4 1 -1.5 10 -5 12.8 -5 4.2 0 11.7 2.5 14 4.6 4.1 3.9 5.6 10.6 3 13.2 -1.9 1.9 -3.5 1.4 -7.2 -2.2 -1.8 -1.9 -4.4 -3.6 -5.7 -3.8 -2 -0.2 -2.6 0.4 -3.8 3.7 -2.7 7.9 1 15.7 8.9 18.9 3.6 1.4 4.3 1.4 8.9 -0.1 4.5 -1.4 5.2 -2.1 7 -6.4 1.2 -2.6 2.1 -5.7 2.1 -6.9 0 -3.7 9 -9.4 10.7 -6.7 0.4 0.6 0.7 8.3 0.8 17.2 0.1 8.8 0.8 28.2 1.4 43 1.3 28 2.1 115.4 1.1 119.5 -0.8 3.5 -3.8 4.9 -8.2 3.8z m-2.8 -53.8 c0.2 -64.5 0 -92 -0.8 -92 -2.7 0.1 -2.9 3.1 -2.8 61.5 0.1 50.9 0.3 60.3 1.6 62.2 0.8 1.2 1.5 2.1 1.7 2 0.1 -0.2 0.3 -15.3 0.3 -33.7z m-13.6 6.8 c-0.4 -4.5 -1.2 -7.6 -2 -8.1 -4.4 -2.6 -17.3 -27.2 -21.6 -41.2 -8.7 -28 -10.8 -38.2 -10.8 -52.7 0 -8 -0.4 -11.7 -1.6 -13.9 -0.8 -1.7 -1.7 -2.9 -2 -2.7 -1.4 1.5 -2.4 21.7 -1.4 29.1 1.7 12.5 6.1 28.3 10.8 38.7 9.5 20.8 12.2 27 13.2 30.5 1.2 3.6 4.3 10 7.3 14.9 6.5 10.5 7.8 12.6 8.3 12.6 0.3 0 0.2 -3.3 -0.2 -7.2z m-0.1 -46.1 c0.3 -13 0.8 -24.1 1.1 -24.5 0.2 -0.4 0.7 -6 1.1 -12.3 l0.7 -11.6 -6.9 -0.6 c-8.3 -0.7 -16.6 -3.7 -20.4 -7.3 l-2.8 -2.7 0.5 3.9 c2.9 19.8 11 50.4 16.6 62.4 3.5 7.4 8.9 17.2 9.3 16.8 0.1 -0.2 0.5 -11 0.8 -24.1z m6.5 -58.3 c1.7 -0.3 3.2 -1 3.2 -1.5 0 -0.5 0.9 -0.9 2 -0.9 1.5 0 2 -0.7 2 -2.6 0 -2.1 -0.3 -2.5 -1.7 -1.9 -13.2 5.3 -19.4 5.5 -28.6 0.8 -3.7 -1.8 -4.8 -2.1 -3.8 -0.9 2.7 3.2 7.4 6 12.5 7.2 4.9 1.3 7.5 1.2 14.4 -0.2z m-30.7 -13.2 c-2.1 -4.2 -4.2 -13.8 -3.4 -15.9 0.6 -1.6 -2.3 -1.7 -3.3 -0.1 -2.1 3.4 0.7 11.7 5.9 17.6 2.9 3.1 3 2.8 0.8 -1.6z"/>
  <path d="M1020.5 128.9 c-1 -1.5 0.1 -2.3 2 -1.5 0.9 0.3 1.3 1 1 1.6 -0.8 1.3 -2.2 1.3 -3 -0.1z"/>
  <path d="M123.3 47.3 c0.9 -0.2 2.5 -0.2 3.5 0 0.9 0.3 0.1 0.5 -1.8 0.5 -1.9 0 -2.7 -0.2 -1.7 -0.5z"/>
 </g>
</svg>